<?xml version="1.0" encoding="UTF-8" standalone="no"?>
<!-- Created with Inkscape (http://www.inkscape.org/) -->

<svg
   version="1.1"
   id="svg1"
   width="1263.1814"
   height="937.86261"
   viewBox="0 0 1263.1814 937.86261"
   sodipodi:docname="51b.svg"
   inkscape:version="1.3.2 (091e20ef0f, 2023-11-25)"
   xmlns:inkscape="http://www.inkscape.org/namespaces/inkscape"
   xmlns:sodipodi="http://sodipodi.sourceforge.net/DTD/sodipodi-0.dtd"
   xmlns="http://www.w3.org/2000/svg"
   xmlns:svg="http://www.w3.org/2000/svg">
  <defs
     id="defs1" />
  <sodipodi:namedview
     id="namedview1"
     pagecolor="#ffffff"
     bordercolor="#000000"
     borderopacity="0.25"
     inkscape:showpageshadow="2"
     inkscape:pageopacity="0.0"
     inkscape:pagecheckerboard="0"
     inkscape:deskcolor="#d1d1d1"
     showgrid="false"
     inkscape:zoom="0.54241071"
     inkscape:cx="631.44033"
     inkscape:cy="467.35803"
     inkscape:window-width="1920"
     inkscape:window-height="1011"
     inkscape:window-x="0"
     inkscape:window-y="0"
     inkscape:window-maximized="1"
     inkscape:current-layer="layer1" />
  <g
     inkscape:groupmode="layer"
     id="layer1"
     inkscape:label="Layer 1"
     transform="translate(-40.647765,-24.778825)">
    <path
       id="path1-5"
       style="fill:#ff9955"
       d="m 459.68292,24.778825 c -20.25866,0.03232 -41.13794,3.356651 -61.42773,10.103516 -59.6164,19.823948 -107.7011,62.72433 -137.99414,123.117189 -16.95351,33.79886 -22.47829,56.09675 -25.70899,103.75586 -1.96736,29.02254 -1.013,53.4923 2.79102,71.57812 4.65452,22.12946 14.00446,51.86921 24.94336,79.33399 5.54947,13.93331 10.38342,27.88456 10.74218,31.0039 0.80582,7.00645 -2.48201,12.42134 -16.44921,27.08594 -12.17275,12.78054 -14.58076,17.60987 -18.58594,37.27539 -5.70959,28.03413 -12.46344,47.35767 -30.28321,86.63477 -13.99442,30.84554 -21.07403,52.63818 -27.04296,83.25 -2.708,13.88796 -5.42201,26.56163 -6.03125,28.16406 -3.09585,8.1427 -15.74987,3.91903 -26.5586,-8.86524 -14.57459,-17.23842 -20.37261,-22.54882 -24.61133,-22.54882 -6.95173,0 -14.60763,9.86361 -29.701168,38.26562 -14.489804,27.26595 -19.34979,39.00278 -21.769531,52.56641 -2.033777,11.40014 -9.061067,28.83631 -20.082031,49.83398 -11.084388,21.11851 -12.371015,26.16673 -10.625,41.6875 0.720492,6.40464 1.913836,19.6402 2.652344,29.41016 0.738507,9.76996 2.092466,20.26867 3.007812,23.33203 2.300555,7.69919 10.347411,15.22211 23.050781,21.54883 10.527413,5.24301 10.890989,5.31791 27.832032,5.77539 24.109691,0.65108 75.122801,-5.30052 87.798831,-10.24414 4.84118,-1.88805 5.84723,-6.60725 3.87109,-18.14258 -1.88268,-10.98977 -4.87429,-17.58739 -9.50195,-20.95313 -1.83333,-1.33338 -12.68525,-4.7588 -24.11524,-7.61328 -33.45266,-8.3543 -37.21679,-11.25576 -37.21679,-28.67382 0,-18.48426 6.71038,-37.26757 15.33398,-42.91797 3.15773,-2.06902 3.97493,-1.9868 15.00195,1.48437 17.49575,5.50745 19.55307,5.89303 38.48243,7.24219 11.88732,0.84725 19.99912,2.15927 25.33398,4.0957 5.86722,2.12967 11.63153,2.94838 22.84766,3.2461 9.74334,0.25863 15.72827,0.99982 17.07226,2.11523 1.13812,0.94456 4.52225,5.96761 7.52149,11.16211 8.15801,14.12919 13.41061,19.95795 21.82421,24.21484 4.15751,2.10351 7.83734,4.54575 8.17579,5.42774 0.33845,0.88199 3.05649,2.0153 6.04101,2.51953 2.98453,0.50423 7.51102,1.78907 10.0586,2.85351 6.48061,2.70777 27.70216,7.09898 34.21289,7.08008 2.98506,-0.009 10.21169,-1.19112 16.06054,-2.62695 5.84887,-1.43584 16.64888,-2.97158 24,-3.41406 21.33334,-1.2841 38.03321,-7.40064 38.03321,-13.92969 0,-6.54783 -13.10503,-29.04492 -21.49414,-36.90039 -5.96279,-5.58349 -11.84154,-6.95649 -36.13868,-8.44141 -22.25204,-1.35993 -32.37145,-3.65848 -36.61328,-8.31445 -9.93914,-10.90954 -7.07851,-25.97879 6.20508,-32.68945 7.22836,-3.65166 13.8485,-3.79743 40.20117,-0.87696 10.54445,1.16857 25.17254,1.90957 32.50586,1.64453 12.10729,-0.43756 14.25352,-0.92859 23.33399,-5.33789 5.49999,-2.67069 15.0987,-8.83611 21.33203,-13.69921 16.26349,-12.68842 33.78331,-24.44832 41.05468,-27.5586 7.48867,-3.20321 12.2793,-7.39255 12.2793,-10.73828 0,-1.82464 1.01849,-2.43359 4.06641,-2.43359 4.85534,0 7.26923,1.18708 30.59961,15.05859 40.25237,23.9328 61.16915,29.8884 124.96679,35.58203 66.21951,5.90978 69.37956,6.45479 75.09375,12.96289 2.16703,2.46811 3.93946,5.10535 3.93946,5.85938 0,2.58995 8.40536,19.21209 14.43359,28.54492 6.16202,9.53991 16.49047,19.32422 20.39844,19.32422 1.19654,0 2.95045,0.93585 3.89844,2.07812 3.84314,4.63071 13.42534,8.85822 22.7207,10.02539 11.61526,1.45846 29.09364,8.42312 40.2168,16.02539 4.58288,3.13224 14.93333,8.83163 23,12.66407 21.75835,10.33731 83.37298,36.07947 98.66601,41.22265 7.33333,2.46626 25.6327,10.14215 40.66599,17.05664 31.8647,14.65598 48.0859,21.19494 62.1192,25.04493 5.5596,1.52525 12.0069,3.5996 14.3281,4.60937 2.3212,1.00977 4.3497,1.85997 4.5078,1.88867 3.0194,0.54804 46.5544,-7.43358 50.3789,-9.23633 2.9334,-1.38267 10.1334,-2.93384 16,-3.44726 24.8692,-2.17644 42,-12.42186 42,-25.11914 0,-1.82647 0.7387,-3.77658 1.6406,-4.33399 0.9019,-0.55742 14.2513,-1.09144 29.6661,-1.18554 30.5651,-0.1865 35.6527,-1.06193 41.9531,-7.22071 3.7957,-3.71043 4.1149,-3.77341 15.3535,-3.07226 10.6994,0.66751 11.7004,0.5052 14.7891,-2.39649 6.2222,-5.84549 9.2486,-22.98574 5.3574,-30.33593 -1.0483,-1.98025 -8.0977,-9.68026 -15.666,-17.11133 l -13.7598,-13.51172 -28.7246,-0.79688 c -37.2289,-1.0335 -47.9614,-2.51416 -56.6094,-7.80664 -21.8142,-13.35008 -58.5479,-46.33869 -68.0176,-61.08398 -3.0765,-4.79035 -12.1306,-15.83843 -20.1211,-24.55274 -24.2734,-26.47235 -29.8613,-33.62886 -29.8613,-38.23632 0,-1.35277 1.8036,-4.41761 4.0078,-6.8125 3.891,-4.22773 4.0655,-4.28048 6,-1.76758 1.0958,1.4235 1.9922,4.82541 1.9922,7.55859 0,16.40169 6.0408,9.03929 9.3359,-11.3789 2.9029,-17.98697 7.5096,-23.11459 9.8868,-11.00196 0.6729,3.42871 1.6282,6.23438 2.123,6.23438 1.8001,0 10.6195,-20.9083 12.6543,-30 2.9235,-13.06278 4.5716,-16.64729 8.8418,-19.24414 4.4885,-2.72963 7.8276,-6.85763 11.668,-14.42188 1.5824,-3.11665 3.1556,-5.66601 3.4961,-5.66601 0.3405,0 0.2337,3.6937 -0.2383,8.20898 -1.0392,9.94329 0.821,9.71673 4.668,-0.56836 5.4208,-14.49258 11.5012,-50.43638 14.9375,-88.30859 1.8557,-20.4532 3.011,-23.76235 5.3359,-15.27539 1.196,4.36591 1.3898,14.34553 0.7266,37.60937 -0.9508,33.3518 10e-4,39.06636 3.7578,22.54883 6.1867,-27.20077 7.4218,-59.5948 2.9062,-76.21484 -2.9272,-10.77419 -3.2656,-19.33399 -0.7656,-19.33399 3.9378,0 7.1051,10.48224 11.75,38.88867 2.5581,15.6443 5.0833,28.44532 5.6113,28.44532 0.528,0 2.6039,-10.24751 4.6153,-22.77149 2.8852,-17.96478 3.5211,-25.63408 3.0136,-36.33398 -0.7707,-16.25047 1.6838,-26.22852 6.4492,-26.22852 4.6107,0 6.9482,3.97378 14.5997,24.82031 8.9137,24.2861 8.7873,24.03456 7.998,15.84571 -6.7802,-70.34787 -9.7417,-85.33787 -22.2305,-112.51953 -2.8269,-6.15255 -5.1406,-11.51977 -5.1406,-11.92774 0,-0.40797 2.128,1.31933 4.7285,3.83985 6.0205,5.83526 10.313,13.17945 13.8614,23.71289 4.4128,13.09905 6.9337,18.89453 8.2207,18.89453 1.7285,0 1.4638,-3.16417 -1.4473,-17.27344 -3.4904,-16.91687 -9.0006,-27.93864 -16.3574,-32.71289 -7.4697,-4.8475 -13.0059,-10.07996 -13.0059,-12.29492 0,-0.98095 1.5297,-2.36566 3.3984,-3.07617 1.9198,-0.72993 4.2079,-3.23054 5.2598,-5.74805 1.0239,-2.45058 5.7912,-9.72614 10.5938,-16.16797 4.8026,-6.44182 9.3517,-14.01465 10.1093,-16.82812 0.7576,-2.81348 4.3863,-9.61395 8.0645,-15.11329 14.1643,-21.17743 20.7857,-42.51115 19.4043,-62.52148 -0.8974,-12.99786 -1.5978,-14.84071 -9.0254,-23.78125 -5.9374,-7.14695 -6.1342,-8.48709 -2.3262,-15.79297 5.3632,-10.28954 -1.0441,-22.80751 -15.3261,-29.94336 l -7.8457,-3.91992 -37.1329,-0.96875 c -20.422,-0.53273 -38.9677,-1.3717 -41.2148,-1.86523 -5.3902,-1.1839 -3.7369,-3.18786 7.9121,-9.58789 15.5251,-8.52962 17.4924,-11.7971 6.4629,-10.73438 -13.5945,1.30986 -16.7477,-3.48765 -5.2168,-7.9375 4.6101,-1.77908 9.947,-2.39844 20.6562,-2.39844 h 14.4375 l -5.1054,-2.29883 c -8.2445,-3.7112 -34.5538,-3.20237 -54.7969,1.0586 -3.5981,0.75739 -4.2189,0.55782 -3.5664,-1.14258 1.3491,-3.51569 10.9076,-9.22658 19.6074,-11.71484 l 8.3164,-2.37891 -6.0527,-0.0957 c -13.8388,-0.21717 -37.2793,9.43489 -37.2793,15.34961 0,3.75157 -4.6293,7.22265 -9.6309,7.22265 -4.4551,0 -5.0048,-3.21045 -0.9238,-5.39453 1.5287,-0.81816 3.62,-3.49654 4.6465,-5.95312 2.2495,-5.38401 9.3225,-11.52685 20.6309,-17.91797 4.6151,-2.60835 8.6149,-5.41523 8.8886,-6.23633 1.5456,-4.63676 -13.0502,-2.16712 -28.4433,4.8125 -4.8786,2.21204 -9.3877,4.02344 -10.0196,4.02344 -2.6337,0 -0.7097,-5.17972 6.6426,-17.87696 4.2857,-7.40131 8.1995,-14.591455 8.6973,-15.978512 1.563,-4.355627 -2.8376,0.143193 -10.9434,11.187502 -16.8495,22.95769 -35.8029,42.66797 -41.0312,42.66797 -3.4165,0 -1.8871,-3.40719 4.2168,-9.39063 9.893,-9.69772 24.4494,-37.41793 26.7207,-50.886717 0.6923,-4.105405 0.6075,-4.226848 -1.3008,-1.876953 -1.1221,1.381789 -4.5577,7.380494 -7.6348,13.33203 -7.8242,15.13329 -12.8434,22.1543 -15.8379,22.1543 -4.1091,0 -6.6777,-5.1648 -6.6777,-13.42578 0,-5.58552 -0.6819,-8.28417 -2.668,-10.574222 -1.4667,-1.691079 -2.6664,-3.433301 -2.666,-3.871094 4e-4,-0.437791 2.4015,-4.694276 5.334,-9.460937 5.2728,-8.570752 6.4556,-12 4.1406,-12 -0.6556,0 -5.5383,4.821106 -10.8515,10.714844 -5.3131,5.893737 -10.3281,10.496602 -11.1426,10.228515 -0.8233,-0.270939 -1.776,-4.875911 -2.1465,-10.36914 -0.5355,-7.93708 -1.1169,-9.968492 -2.9473,-10.316407 -1.54,-0.292728 -2.9009,1.055734 -4.1972,4.158203 -3.7932,9.078439 -7.644,7.573638 -6.5039,-2.541015 0.5634,-4.998931 0.3068,-5.875 -1.7188,-5.875 -1.3095,0 -4.428,1.560647 -6.9297,3.46875 l -4.5488,3.46875 -0.7637,-2.916016 c -0.6553,-2.505848 -1.3931,-2.798136 -5.25193,-2.074219 -3.95109,0.741229 -4.64739,0.43469 -5.7832,-2.552734 -0.71003,-1.867527 -2.1927,-3.394531 -3.29688,-3.394531 -2.21035,0 -2.61887,1.416374 -4.56641,15.851562 -0.73103,5.4184 -1.91454,10.436028 -2.6289,11.150391 -1.85968,1.859671 -4.19727,-0.0033 -4.19727,-3.34375 0,-4.721411 -6.5677,-12.70524 -15.19531,-18.472656 -9.63623,-6.441661 -11.09001,-4.993072 -5.02539,5.009765 9.36513,15.446626 6.13099,16.474452 -7.7793,2.470703 -5.46328,-5.499994 -10.39844,-10 -10.96679,-10 -2.20492,0 -0.77686,3.072038 5.88476,12.654297 3.80539,5.473772 6.48328,10.389765 5.94922,10.923828 -0.53407,0.534063 -6.00577,-4.167061 -12.1582,-10.445312 -12.21642,-12.466235 -23.47621,-20.687037 -30.16797,-22.025391 -5.07479,-1.014957 -4.46107,0.828746 2.0664,6.201172 2.2322,1.837204 6.7586,5.879766 10.0586,8.984375 5.79466,5.451569 5.88132,5.645932 2.52148,5.675781 -1.91339,0.017 -7.91405,-2.001496 -13.33398,-4.486328 -10.73634,-4.922193 -18.51953,-7.078471 -18.51953,-5.128906 0,1.792069 3.37544,4.380749 15.01562,11.513672 11.69455,7.166235 21.20766,15.535318 18.67383,16.427734 -0.90398,0.318384 -6.6053,-2.418072 -12.66797,-6.080078 -16.36795,-9.886641 -38.53641,-17.901091 -41.45117,-14.986328 -1.0595,1.0595 2.03822,3.171934 20.33789,13.871094 10.51345,6.146838 10.39932,7.876898 -0.44727,6.765625 -9.70394,-0.994197 -10.79771,0.01336 -6.57031,6.048823 2.21813,3.16682 2.21273,3.17341 -1.88672,2.35352 -2.26034,-0.45207 -10.64136,-3.76789 -18.62304,-7.36914 -7.98169,-3.601251 -15.83294,-6.968101 -17.44727,-7.480469 -5.12445,-1.626438 -3.45545,3.004863 4.39844,12.205079 7.4265,8.69956 9.49113,13.53809 5,11.7168 -13.88284,-5.62994 -34.4069,-9.54214 -41.16602,-7.84571 -4.90461,1.23099 -3.818,4.28428 1.83399,5.1543 7.51567,1.1569 11.39255,2.51618 11.94726,4.1875 0.72544,2.18574 -2.72456,3.14226 -14.14453,3.92578 -17.70162,1.21451 -21.4707,1.92074 -21.4707,4.01953 0,1.07322 1.6513,2.57896 3.66797,3.34571 2.93043,1.11416 3.26109,1.62006 1.65039,2.52148 -2.90052,1.62325 -23.36778,5.35156 -29.37891,5.35156 -2.80458,0 -6.74674,0.62649 -8.76172,1.39258 l -3.66406,1.39258 3.24414,3.17969 c 1.78391,1.74867 7.69302,5.57501 13.13281,8.5039 l 9.89063,5.32617 -4.55664,0.75586 c -2.50647,0.41615 -9.49877,1.39026 -15.53907,2.16407 -15.92278,2.03986 -30.19167,6.0552 -42.35156,11.91797 -10.12255,4.88047 -22.10264,13.64401 -20.66601,15.11718 0.36666,0.376 4.26602,-0.83569 8.66601,-2.69336 17.08231,-7.21212 47.18415,-12.60908 45.71289,-8.19531 -0.28034,0.84101 -6.10951,5.05283 -12.95312,9.35938 -20.92914,13.17029 -46.48215,34.31649 -42.90821,35.50781 0.87886,0.29295 8.02177,-3.35748 15.87305,-8.11133 14.93075,-9.04037 20.64026,-12.14088 26.3418,-14.30859 6.16682,-2.34463 2.21693,1.11115 -12.50195,10.93554 -20.06314,13.39152 -33.977,24.54358 -45.56446,36.52149 -9.64297,9.9679 -9.76264,10.16683 -3.33398,5.5957 16.72488,-11.89232 26.50629,-18.30034 27.07226,-17.73437 0.33851,0.3385 -2.97326,4.68736 -7.35937,9.66211 -15.72719,17.8378 -32.37891,41.38868 -32.37891,45.79492 0,0.95496 13.5148,-11.65797 30.03321,-28.0293 16.5184,-16.37133 30.40007,-29.39875 30.84765,-28.95117 1.19467,1.19466 -1.73219,5.20391 -16.0039,21.91992 -21.07848,24.68859 -32.63451,43.68138 -35.42969,58.23437 -0.71218,3.70792 -1.94031,12.44155 -2.72852,19.40821 -0.78821,6.96666 -1.75557,14.76733 -2.15039,17.33398 l -0.7168,4.66602 3.38477,-3.99414 c 1.86245,-2.19703 4.68871,-7.29769 6.2793,-11.33399 4.88866,-12.40552 14.33056,-29.73487 19.19336,-35.22656 2.54327,-2.87218 4.625,-4.74549 4.625,-4.16211 0,0.9136 -5.6747,13.21625 -22.78125,49.38477 -5.3375,11.28509 -14.51939,22.33644 -24.94532,30.02929 -8.37486,6.17947 -12.48586,8.01372 -26.60742,11.86524 -6.15493,1.67871 -7.53509,4.77059 -2.55469,5.72265 2.53915,0.48539 22.36044,-2.93232 36.65235,-6.31836 3.029,-0.71762 3.00889,-0.60021 -0.95703,5.16407 -2.23136,3.24315 -5.92207,7.46507 -8.20117,9.38281 -5.51172,4.63781 -11.90425,4.56753 -36.97461,-0.41016 -34.88991,-6.92733 -67.82229,-8.96367 -166.29883,-10.28125 -70.8192,-0.94753 -77.08133,-0.51517 -92.09375,6.35938 -11.63782,5.32923 -22.40654,5.8618 -30.68164,1.51758 -12.60237,-6.61595 -28.29038,-28.64983 -37.90821,-53.24024 -11.45731,-29.2935 -16.3943,-59.18021 -16.375,-99.125 0.0195,-40.17267 3.61077,-56.87444 18.0625,-84 32.43176,-60.87366 85.64876,-102.128442 147.30274,-114.191404 13.90796,-2.721175 39.82073,-3.013468 52.36133,-0.589844 19.95251,3.856072 38.56298,12.675555 51.28711,24.304688 13.4662,12.307352 18.00292,23.761928 18.02929,45.51953 0.0175,14.38578 -1.72797,20.43321 -7.7207,26.74219 -7.0992,7.47384 -7.9361,7.60993 -44.56055,7.23047 -38.84786,-0.40249 -38.16341,-0.57108 -52.77539,12.95703 -10.36978,9.60059 -10.91349,11.85096 -4.36328,18.08203 6.29645,5.98967 27.09488,16.37356 38.76953,19.35547 11.42027,2.91693 28.51415,2.01939 38.64063,-2.02734 23.53023,-9.40313 49.72076,-35.18652 57.61328,-56.7168 4.18699,-11.42181 4.15775,-29.68382 -0.0703,-43.33203 C 578.72863,80.754908 566.55306,63.090718 550.20441,51.435075 525.48798,33.813701 493.44736,24.724959 459.68292,24.778825 Z M 1024.6536,833.65382 c 3.8318,0.22642 24.2573,13.4883 39.0469,25.4336 6.0688,4.9016 11.7998,8.91211 12.7344,8.91211 1.8933,0 4.8984,2.61872 4.8984,4.26758 0,0.58666 -1.5007,1.0664 -3.334,1.0664 -1.8333,0 -3.332,-0.60065 -3.332,-1.33398 0,-0.73333 -0.6638,-1.33203 -1.4746,-1.33203 -0.8108,0 -3.2568,-1.50065 -5.4356,-3.33399 -2.1788,-1.83333 -4.7654,-3.33398 -5.748,-3.33398 -0.9826,0 -1.9861,-0.48479 -2.2305,-1.07813 -0.2445,-0.59334 -5.5258,-4.04269 -11.7344,-7.66601 -13.1171,-7.65504 -27.4667,-20.71808 -23.7089,-21.58203 0.088,-0.0203 0.1947,-0.0268 0.3183,-0.0195 z" />
    <path
       style="fill:#ff0000"
       d="m 1120.0017,592.09138 c 14.7528,-8.76446 23.1394,-19.65143 26.6615,-34.61042 3.6706,-15.58945 -0.8744,-60.55137 -9.3758,-92.75288 -5.9979,-22.71849 -13.9592,-33.56201 -30.8474,-42.01483 -5.9118,-2.95895 -11.7593,-5.37992 -12.9944,-5.37992 -6.4292,0 -7.193,8.10122 -1.4456,15.33334 7.6196,9.58801 3.7998,10.18074 -5.5238,0.85714 -4.2481,-4.24805 -6.4762,-7.6086 -6.4762,-9.76758 0,-6.72688 -13.1786,-14.34388 -24.9032,-14.39361 -5.8881,-0.025 -7.3096,0.48735 -9.6667,3.48386 -3.6545,4.64592 -3.4567,8.39402 1.1162,21.15352 2.1026,5.86667 5.9961,16.73385 8.6523,24.1493 7.2021,20.10634 13.6351,50.37276 14.5632,68.51737 0.8772,17.15111 4.9854,33.71518 11.5069,46.39544 4.585,8.91485 7.9451,13.05313 15.8575,19.52962 7.6086,6.22792 11.7008,6.13842 22.8755,-0.50035 z"
       id="path79" />
    <path
       style="display:inline;fill:#e6e6e6"
       d="m 1199.9776,322.70152 c 5.231,-8.15179 10.6231,-23.05871 10.6609,-29.47293 0.031,-5.24872 -5.446,-14.61384 -12.914,-22.08182 -6.1509,-6.15097 -13.075,-7.71569 -27.034,-6.10918 -6.2465,0.71888 -12.8572,1.35054 -14.6905,1.40368 -5.5637,0.16127 -12.7344,9.173 -16.0903,20.2214 -2.3496,7.73578 -2.7414,11.32095 -2.0134,18.42653 0.4971,4.85213 1.2064,9.12464 1.5763,9.49448 0.9634,0.9634 3.1486,-2.91194 2.3607,-4.18669 -0.3615,-0.58501 -0.04,-1.06366 0.7141,-1.06366 0.7543,0 1.3069,-1.95 1.228,-4.33333 -0.2904,-8.77241 2.9142,-19.25854 7.8032,-25.53378 4.5362,-5.82231 5.1132,-6.13289 11.3939,-6.13289 4.4716,0 7.8258,-0.86154 10.3489,-2.65819 3.2836,-2.33809 3.8302,-2.40524 4.5392,-0.55762 0.4433,1.15532 0.8061,3.25151 0.8061,4.6582 0,3.22884 0.6807,3.20393 5.4608,-0.19985 4.1087,-2.92563 4.6743,-2.19173 2.5722,3.33733 -1.5626,4.10999 -0.2309,4.34168 4.3308,0.75347 1.8646,-1.46667 3.625,-2.66667 3.9121,-2.66667 0.287,0 0.2775,2.09391 -0.021,4.65314 -0.3965,3.39628 0.036,4.8754 1.6011,5.47599 3.001,1.15161 2.8119,11.67121 -0.5184,28.82359 -3.1273,16.10721 -2.95,14.38061 -1.4763,14.38061 0.6569,0 3.1093,-2.98431 5.4499,-6.63181 z"
       id="path100" />
    <path
       style="fill:#ffff00"
       d="m 1063.6296,216.46898 c 0.8963,-1.93062 1.3109,-4.02594 0.9213,-4.65627 -0.3895,-0.63032 -4.2729,-1.14604 -8.6296,-1.14604 -6.8609,0 -7.9213,0.3352 -7.9213,2.50403 0,3.30112 4.9984,6.67452 10,6.74896 3.0497,0.0454 4.3871,-0.77439 5.6296,-3.45068 z"
       id="path65" />
    <path
       style="fill:#000000"
       d="m 1080.4463,960.72635 c -2.3212,-1.00977 -8.7691,-3.08387 -14.3287,-4.60913 -14.0333,-3.84999 -30.2529,-10.38969 -62.1176,-25.04568 -15.03333,-6.9145 -33.33333,-14.58967 -40.66667,-17.05593 -15.29305,-5.14319 -76.90828,-30.88674 -98.66666,-41.22406 -8.06667,-3.83244 -18.41631,-9.53081 -22.9992,-12.66305 -11.12317,-7.60228 -28.60157,-14.56703 -40.21684,-16.02549 -9.29537,-1.16717 -18.87704,-5.39545 -22.72019,-10.02616 C 777.78245,832.93458 776.02782,832 774.83128,832 770.92331,832 760.59419,822.21458 754.43217,812.67466 748.40393,803.34182 740,786.72037 740,784.13041 c 0,-0.75403 -1.77302,-3.39032 -3.94005,-5.85843 -5.7142,-6.50811 -8.87365,-7.05352 -75.09322,-12.9633 C 597.16902,759.61504 576.25241,753.6594 536,729.72658 c -23.3304,-13.87152 -25.7451,-15.05991 -30.60045,-15.05991 -3.04792,0 -4.06622,0.6096 -4.06622,2.43424 0,3.34573 -4.79136,7.53584 -12.28003,10.73906 -7.27138,3.11028 -24.78979,14.87019 -41.0533,27.55862 -6.23333,4.86311 -15.83333,11.02713 -21.33333,13.69783 -9.08048,4.4093 -11.22604,4.90012 -23.33334,5.33769 -7.33333,0.26504 -21.96062,-0.47421 -32.50508,-1.64278 -26.3527,-2.92048 -32.97327,-2.77632 -40.20164,0.87534 -13.2836,6.71067 -16.1441,21.7812 -6.20495,32.69075 4.24183,4.65597 14.36075,6.95365 36.61282,8.31358 24.29716,1.48492 30.17665,2.85831 36.13944,8.4418 8.38912,7.85548 21.49275,30.35313 21.49275,36.90097 0,6.52906 -16.69901,12.64492 -38.03237,13.92902 -7.35113,0.44248 -18.15113,1.97928 -24,3.41512 -5.84886,1.43583 -13.07663,2.61769 -16.0617,2.62635 -6.51073,0.0189 -27.73161,-4.37332 -34.21223,-7.08109 -2.54758,-1.06445 -7.07386,-2.34792 -10.05839,-2.85215 -2.98452,-0.50423 -5.70333,-1.63842 -6.04178,-2.52041 -0.33845,-0.88199 -4.01697,-3.32467 -8.17448,-5.42818 -8.41361,-4.2569 -13.66606,-10.08446 -21.82408,-24.21366 -2.99924,-5.19451 -6.38436,-10.21738 -7.52248,-11.16194 -1.34399,-1.11541 -7.32755,-1.85694 -17.0709,-2.11557 -11.21614,-0.29772 -16.98178,-1.11697 -22.84901,-3.24664 -5.33487,-1.93643 -13.446,-3.24746 -25.33334,-4.09471 -18.92937,-1.34916 -20.98622,-1.73634 -38.48198,-7.24379 -11.02703,-3.47118 -11.84479,-3.55201 -15.00252,-1.48299 -8.62361,5.65041 -15.33474,24.43266 -15.33474,42.91693 0,17.41808 3.76547,20.31905 37.21817,28.67336 11.43,2.85448 22.28183,6.28092 24.11516,7.61431 4.62767,3.36574 7.61923,9.96222 9.50191,20.952 1.97614,11.53534 0.96871,16.25534 -3.87248,18.14339 -12.67604,4.94363 -63.68791,10.89623 -87.797628,10.24515 C 80.890742,936.63079 80.527423,936.55539 70,931.31237 57.296617,924.98565 49.249188,917.46278 46.948631,909.76358 c -0.915347,-3.06336 -2.2685,-13.56336 -3.007008,-23.33333 -0.738508,-9.76997 -1.932235,-23.00375 -2.652728,-29.40839 -1.746017,-15.52079 -0.459109,-20.57 10.62529,-41.68853 11.020975,-20.99769 18.046877,-38.43379 20.080656,-49.83394 2.419743,-13.56364 7.280403,-25.30013 21.770222,-52.56611 15.093557,-28.40204 22.750297,-38.26661 29.702037,-38.26661 4.23872,0 10.03499,5.31106 24.6096,22.5495 10.80874,12.78428 23.46297,17.00846 26.55882,8.86575 0.60924,-1.60243 3.32334,-14.2764 6.03134,-28.16438 5.96894,-30.61185 13.04817,-52.4053 27.04261,-83.25087 17.81978,-39.27714 24.57436,-58.6002 30.28395,-86.63436 4.00519,-19.66554 6.4131,-24.49479 18.58586,-37.27534 13.96722,-14.66462 17.25549,-20.07897 16.44967,-27.08542 -0.35876,-3.11935 -5.19277,-17.07155 -10.74225,-31.00488 -10.93891,-27.4648 -20.28946,-57.20386 -24.94399,-79.33334 -3.80402,-18.08584 -4.75802,-42.55501 -2.79066,-71.57758 C 237.78275,214.09659 243.30781,191.7989 260.26133,158 290.5544,97.607082 338.63932,54.705919 398.25578,34.881951 452.36195,16.890293 510.65898,23.241212 550.2053,51.435438 c 16.34867,11.655655 28.52288,29.318621 35.31116,51.231232 4.22807,13.64823 4.258,31.91151 0.071,43.33333 -7.89253,21.5303 -34.0841,47.31399 -57.61436,56.71712 -10.12649,4.04674 -27.21951,4.94301 -38.63979,2.02608 -11.67466,-2.98191 -32.47292,-13.36486 -38.76938,-19.35454 -6.55022,-6.23108 -6.00736,-8.4812 4.36243,-18.0818 14.61199,-13.52812 13.92795,-13.36017 52.77585,-12.95768 36.62448,0.37946 37.46116,0.24371 44.56037,-7.23014 5.99274,-6.30899 7.73903,-12.35709 7.72157,-26.74288 C 559.95778,98.618535 555.42114,87.164823 541.95492,74.857459 529.23078,63.228314 510.6192,54.408434 490.66667,50.552359 478.12606,48.128732 452.21478,48.420238 438.3068,51.141416 376.65276,63.20439 323.43495,104.45961 291.00316,165.33333 c -14.45175,27.12558 -18.04312,43.82729 -18.06257,84 -0.0193,39.94483 4.91799,69.83224 16.37532,99.12577 9.61784,24.59043 25.30633,46.62355 37.90871,53.2395 8.27511,4.34423 19.04403,3.81154 30.68186,-1.5177 15.01244,-6.87456 21.27425,-7.30696 92.09352,-6.35943 98.47664,1.31758 131.40796,3.35344 166.2979,10.28078 25.07039,4.97769 31.46296,5.04874 36.97468,0.41093 2.27911,-1.91774 5.96949,-6.14031 8.20085,-9.38347 3.96593,-5.76428 3.98745,-5.88017 0.95845,-5.16254 -14.29192,3.38604 -34.11425,6.80221 -36.6534,6.31682 -4.98041,-0.95207 -3.60009,-4.04377 2.55485,-5.72248 14.12157,-3.85152 18.23316,-5.68485 26.60803,-11.86432 10.42594,-7.69286 19.60639,-18.74542 24.94389,-30.03052 17.10657,-36.16855 22.78142,-48.47 22.78142,-49.3836 0,-0.58338 -2.08086,1.28927 -4.62414,4.16145 -4.8628,5.49169 -14.30539,22.822 -19.19406,35.22754 -1.59059,4.0363 -4.4158,9.1363 -6.27825,11.33333 L 669.18396,354 l 0.71786,-4.66667 c 0.39482,-2.56666 1.36275,-10.36666 2.15096,-17.33333 0.78821,-6.96667 2.01579,-15.70042 2.72797,-19.40834 2.79519,-14.55301 14.35072,-33.54704 35.42922,-58.23565 14.27173,-16.71603 17.1988,-20.72502 16.00413,-21.91968 -0.44758,-0.44758 -14.32885,12.58095 -30.84727,28.9523 -16.51842,16.37135 -30.0335,28.98477 -30.0335,28.02981 0,-4.40624 16.65246,-27.95896 32.37966,-45.79678 4.38612,-4.97475 7.69782,-9.32197 7.35931,-9.66047 -0.56597,-0.56597 -10.3474,5.84133 -27.0723,17.73366 -6.42866,4.57113 -6.30965,4.37132 3.33333,-5.59659 11.58747,-11.97792 25.50056,-23.1299 45.56372,-36.52143 14.7189,-9.8244 18.67026,-13.28032 12.50343,-10.93569 -5.70154,2.16772 -11.41145,5.26952 -26.34221,14.3099 -7.85129,4.75385 -14.99413,8.40367 -15.87299,8.11072 -3.57395,-1.19132 21.97877,-22.33647 42.90793,-35.50678 6.84362,-4.30655 12.6723,-8.51819 12.95264,-9.3592 1.47126,-4.41378 -28.63019,0.98204 -45.71252,8.19417 -4.4,1.85767 -8.3,3.06996 -8.66666,2.69396 -1.43663,-1.47317 10.5441,-10.23693 20.66666,-15.11741 12.1599,-5.86277 26.42818,-9.87794 42.35098,-11.91781 6.0403,-0.77381 13.0331,-1.74742 15.53957,-2.16357 l 4.55722,-0.75662 -9.89055,-5.32528 c -5.4398,-2.9289 -11.35011,-6.75601 -13.13402,-8.50469 l -3.24346,-3.1794 3.6636,-1.3929 c 2.01498,-0.76609 5.95826,-1.3929 8.76284,-1.3929 6.01114,0 26.47794,-3.72801 29.37846,-5.35126 1.6107,-0.90142 1.27914,-1.40781 -1.6513,-2.52198 C 793.65,128.69334 792,127.18792 792,126.1147 c 0,-2.09879 3.76833,-2.80412 21.46997,-4.01863 11.41998,-0.78352 14.86954,-1.74127 14.1441,-3.92701 -0.55471,-1.67132 -4.43172,-3.03 -11.9474,-4.1869 -5.65199,-0.87002 -6.73818,-3.92348 -1.83356,-5.15447 6.75912,-1.69643 27.28404,2.21477 41.16689,7.84471 4.49114,1.8213 2.42651,-3.01664 -5,-11.71621 -7.8539,-9.200225 -9.52265,-13.830753 -4.39819,-12.204313 1.61433,0.512368 9.46561,3.878058 17.4473,7.479313 7.98169,3.60125 16.36153,6.9176 18.62187,7.36967 4.09945,0.81989 4.10416,0.81402 1.88603,-2.3528 -4.22741,-6.035476 -3.1331,-7.042819 6.57085,-6.048621 10.8466,1.111271 10.96116,-0.620197 0.4477,-6.767041 C 872.27587,81.733227 869.179,79.621003 870.2385,78.561502 c 2.91476,-2.914766 25.08326,5.100498 41.45123,14.987149 6.06268,3.662009 11.76268,6.397702 12.66666,6.079318 2.53383,-0.892417 -6.97896,-9.260791 -18.67352,-16.427033 -11.64019,-7.13293 -15.0162,-9.721455 -15.0162,-11.513526 0,-1.949567 7.78476,0.205845 18.52111,5.128043 5.41994,2.484834 11.41994,4.503972 13.33333,4.486974 3.35984,-0.02985 3.27356,-0.22408 -2.52111,-5.675654 -3.3,-3.104612 -7.82634,-7.147917 -10.05854,-8.985123 -6.52748,-5.372432 -7.14176,-7.215044 -2.06697,-6.200086 6.69177,1.338355 17.9519,9.559213 30.16833,22.02546 6.15244,6.278257 11.62321,10.978053 12.15728,10.44399 0.53406,-0.534064 -2.14248,-5.449569 -5.94787,-10.923346 -6.66163,-9.582269 -8.09045,-12.654335 -5.88553,-12.654335 0.56836,0 5.50334,4.5 10.96663,10 13.9103,14.003763 17.14455,12.977039 7.77941,-2.469602 -6.06462,-10.002847 -4.61087,-11.452347 5.02537,-5.01068 8.62762,5.767422 15.19522,13.751844 15.19522,18.47326 0,3.340413 2.33819,5.202166 4.19787,3.342493 0.71436,-0.714364 1.89696,-5.732085 2.62799,-11.15049 1.94754,-14.435203 2.35553,-15.851647 4.56588,-15.851647 1.10418,0 2.58854,1.527978 3.29857,3.395507 1.13582,2.987427 1.83068,3.294256 5.78177,2.553027 3.85879,-0.723918 4.59809,-0.432076 5.25339,2.073775 l 0.7627,2.916254 4.5484,-3.469282 c 2.5017,-1.908105 5.6199,-3.469281 6.9294,-3.469281 2.0256,0 2.282,0.876724 1.7186,5.87566 -1.1401,10.114663 2.7126,11.619389 6.5058,2.540941 1.2963,-3.102473 2.6573,-4.450727 4.1973,-4.157998 1.8304,0.347915 2.4102,2.378672 2.9457,10.31576 0.3705,5.493235 1.3244,10.099059 2.1477,10.369999 0.8145,0.268087 5.8281,-4.334722 11.1412,-10.228465 5.3132,-5.893744 10.1967,-10.715897 10.8523,-10.715897 2.315,0 1.1316,3.42924 -4.1412,12 -2.9325,4.766666 -5.3322,9.024861 -5.3326,9.462653 -4e-4,0.437793 1.1992,2.179599 2.6659,3.87068 1.9861,2.29005 2.6667,4.98848 2.6667,10.574 0,8.26099 2.5691,13.426 6.6782,13.426 2.9945,0 8.0138,-7.02102 15.838,-22.15432 3.0771,-5.951543 6.5128,-11.951543 7.6349,-13.333333 1.9083,-2.349897 1.9923,-2.228537 1.3,1.876872 -2.2713,13.468801 -16.8275,41.190661 -26.7205,50.888391 -6.1039,5.98344 -7.6336,9.38906 -4.2171,9.38906 5.2283,0 24.1818,-19.70896 41.0313,-42.66667 8.1058,-11.044318 12.5076,-15.544222 10.9446,-11.188591 -0.4978,1.387058 -4.4115,8.577551 -8.6972,15.978871 -7.3523,12.69725 -9.277,17.87639 -6.6433,17.87639 0.6319,0 5.1404,-1.80986 10.019,-4.0219 15.3932,-6.97963 29.9891,-9.44909 28.4435,-4.81233 -0.2737,0.8211 -4.2737,3.62701 -8.8889,6.23536 -11.3084,6.39113 -18.381,12.53369 -20.6305,17.9177 -1.0265,2.45659 -3.1171,5.13593 -4.6458,5.95409 -4.081,2.18408 -3.5313,5.39374 0.9238,5.39374 5.0016,0 9.63,-3.47159 9.63,-7.22317 0,-5.91472 23.4413,-15.56567 37.2801,-15.3485 l 6.0532,0.095 -8.3164,2.37859 c -8.6998,2.48827 -18.2589,8.19955 -19.608,11.71524 -0.6525,1.7004 -0.031,1.89933 3.5671,1.14194 20.2431,-4.26097 46.552,-4.76867 54.7965,-1.05746 l 5.1059,2.29837 h -14.4392 c -10.7093,0 -16.0449,0.61964 -20.655,2.39872 -11.5309,4.44985 -8.3787,9.24633 5.2158,7.93647 11.0295,-1.06272 9.062,2.20517 -6.4631,10.73479 -11.649,6.40004 -13.3024,8.40359 -7.9122,9.58749 2.2471,0.49353 20.7945,1.3332 41.2166,1.86593 l 37.131,0.9686 7.847,3.92067 c 14.2821,7.13586 20.6886,19.65276 15.3254,29.94231 -3.808,7.30589 -3.6105,8.64636 2.3269,15.79332 7.4276,8.94055 8.1271,10.7841 9.0245,23.78197 1.3814,20.01035 -5.2395,41.34353 -19.4038,62.52099 -3.6782,5.49934 -7.3075,12.30074 -8.0651,15.11422 -0.7576,2.81348 -5.3069,10.38602 -10.1095,16.82785 -4.8026,6.44184 -9.5698,13.71746 -10.5937,16.16804 -1.0519,2.51751 -3.3397,5.01752 -5.2595,5.74745 -1.8688,0.71051 -3.3979,2.09444 -3.3979,3.07539 0,2.21496 5.5358,7.44892 13.0055,12.29642 7.3568,4.77425 12.8677,15.79438 16.3581,32.71127 2.9111,14.10928 3.1764,17.27477 1.4479,17.27477 -1.287,0 -3.8092,-5.7967 -8.222,-18.89577 -3.5484,-10.53345 -7.8408,-17.87598 -13.8613,-23.71125 -2.6005,-2.52052 -4.7282,-4.24897 -4.7282,-3.841 0,0.40797 2.3129,5.77567 5.1398,11.92822 12.4888,27.18169 15.4505,42.17186 22.2307,112.5198 0.7893,8.18886 0.9159,8.43984 -7.9979,-15.84628 -7.6515,-20.84656 -9.9889,-24.82039 -14.5996,-24.82039 -4.7655,0 -7.2185,9.97863 -6.4478,26.22911 0.5075,10.69991 -0.1286,18.36853 -3.0138,36.33333 -2.0114,12.52399 -4.089,22.7709 -4.617,22.7709 -0.528,0 -3.053,-12.79989 -5.6111,-28.4442 -4.6449,-28.40646 -7.8121,-38.88914 -11.7499,-38.88914 -2.5,0 -2.1606,8.55914 0.7666,19.33334 4.5156,16.62006 3.2802,49.01443 -2.9065,76.21523 -3.7568,16.51755 -4.7093,10.80326 -3.7585,-22.54857 0.6632,-23.26387 0.4708,-33.24361 -0.7252,-37.60953 -2.3249,-8.48697 -3.4813,-5.17702 -5.337,15.2762 -3.4363,37.87225 -9.5158,73.81539 -14.9366,88.30799 -3.847,10.2851 -5.7077,10.5116 -4.6685,0.5683 0.472,-4.51529 0.5795,-8.20962 0.239,-8.20962 -0.3405,0 -1.9138,2.55 -3.4962,5.66666 -3.8404,7.56426 -7.1806,11.69237 -11.6691,14.422 -4.2702,2.59686 -5.9171,6.18188 -8.8406,19.24467 -2.0348,9.09171 -10.8541,30 -12.6542,30 -0.4948,0 -1.4502,-2.80531 -2.1231,-6.23402 -2.3772,-12.11265 -6.9847,-6.98655 -9.8876,11.00043 -3.2952,20.41821 -9.3359,27.78108 -9.3359,11.37938 0,-2.73319 -0.8965,-6.13412 -1.9923,-7.55762 -1.9345,-2.5129 -2.109,-2.46153 -6,1.7662 -2.2042,2.3949 -4.0077,5.46117 -4.0077,6.81394 0,4.60747 5.588,11.76232 29.8615,38.2347 7.9905,8.71431 17.0452,19.76358 20.1217,24.55393 9.4697,14.74531 46.2026,47.73432 68.0168,61.08442 8.648,5.29248 19.3796,6.77226 56.6085,7.80577 l 28.7249,0.79743 13.7606,13.51105 c 7.5683,7.43108 14.6183,15.13126 15.6666,17.11151 3.8912,7.3502 0.8635,24.48971 -5.3588,30.33521 -3.0887,2.90169 -4.09,3.06395 -14.7894,2.39644 -11.2386,-0.70115 -11.5567,-0.63747 -15.3524,3.07297 -6.3004,6.15878 -11.3882,7.03449 -41.9534,7.22099 -15.4148,0.0941 -28.7648,0.62708 -29.6667,1.1845 -0.9019,0.55741 -1.6399,2.50787 -1.6399,4.33434 0,12.69729 -17.1308,22.94289 -42,25.11933 -5.8666,0.51342 -13.0666,2.06477 -16,3.44745 -3.8245,1.80275 -47.3597,9.78417 -50.3791,9.23613 -0.1581,-0.0287 -2.1867,-0.87836 -4.5079,-1.88813 z m 29.308,-10.27747 c 5.9642,-3.17655 12.1895,-14.88572 10.8184,-20.34843 -0.8303,-3.30813 -0.7741,-3.332 5.9612,-2.53429 6.5083,0.7708 6.7986,0.66886 6.779,-2.38044 -0.024,-3.72879 -1.2527,-5.8857 -3.8237,-6.71161 -1.0143,-0.32583 -2.5143,-2.6658 -3.3333,-5.19993 l -1.4892,-4.60751 L 1109.7756,908 c -8.1902,-0.36667 -15.3502,-1.12667 -15.9112,-1.68889 -2.0246,-2.02905 1.9497,-3.83721 11.2743,-5.1294 13.7636,-1.90735 18.5007,0.52723 35.4567,18.22275 14.9777,15.63099 19.6905,19.2406 25.1375,19.25342 4.7463,0.0112 10.8385,-3.11924 13.5195,-6.94694 2.5976,-3.70858 2.687,-13.01278 0.1826,-19.00658 -2.5483,-6.09891 -11.961,-16.11883 -19.0383,-20.26639 -8.9292,-5.23285 -16.969,-7.16504 -35.4608,-8.52218 -29.1895,-2.14227 -49.5584,-7.60672 -76.5169,-20.52751 -22.1894,-10.63507 -31.4518,-17.23281 -52.59138,-37.46186 -23.13892,-22.14223 -40.62893,-36.93009 -48.2076,-40.75968 -3.09101,-1.56192 -8.3757,-5.39922 -11.74375,-8.52733 -7.82252,-7.26526 -13.02735,-9.91888 -21.39979,-10.91048 -3.69241,-0.43731 -7.01308,-1.57586 -7.37926,-2.53011 -0.36618,-0.95425 0.93858,-3.83843 2.89947,-6.40929 3.99737,-5.24083 3.68792,-6.75276 -1.65076,-8.06545 -2.02359,-0.49757 -5.06942,-1.80418 -6.76849,-2.90358 -2.48064,-1.60511 -2.77682,-2.37534 -1.50341,-3.9097 2.98398,-3.59548 13.59172,-1.67835 16.32556,2.95051 1.58992,2.69202 5.97243,2.1806 7.61504,-0.88864 0.79298,-1.4817 2.55588,-7.05009 3.91756,-12.37421 1.36168,-5.32411 5.18302,-15.36181 8.49187,-22.306 6.81772,-14.30813 14.05569,-36.35209 18.50905,-56.37113 3.07727,-13.83319 4.3656,-43.4004 1.99439,-45.77161 -1.74027,-1.74027 -3.42955,2.31203 -4.24044,10.17213 -4.56384,44.23808 -12.15983,67.26274 -35.77133,108.42857 l -4.44541,7.75042 -1.47795,-16.66889 c -1.6078,-18.13333 -3.23552,-23.39657 -6.41869,-20.75478 -1.04886,0.87048 -1.90701,2.87571 -1.90701,4.45608 0,3.11663 -3.4331,8.80008 -5.3157,8.80008 -0.64047,0 -1.0971,-5.85 -1.01473,-13 0.0824,-7.15 -0.66644,-17.41016 -1.66401,-22.80036 l -1.81376,-9.80037 -5.58386,11.94456 c -5.30672,11.35173 -7.84902,14.85954 -9.5423,13.16626 -0.41632,-0.41632 0.2236,-8.49377 1.42204,-17.9499 4.02504,-31.75904 2.6398,-42.12305 -4.96419,-37.14073 -2.31878,1.51932 -3.33901,3.68736 -3.84416,8.16897 -1.15626,10.25839 -17.94882,40.74491 -22.44307,40.74491 -1.89462,0 -1.45881,-6.09353 1.4304,-20 4.31286,-20.75877 3.18629,-51.92184 -1.81822,-50.29547 -2.73,0.8872 -5.04439,7.5891 -7.61718,22.0575 -4.14161,23.29082 -5.24425,27.09766 -7.71113,26.62259 -2.8884,-0.55626 -10.44437,-13.31772 -12.93949,-21.85383 -1.09361,-3.74139 -3.47165,-8.19598 -5.28452,-9.89908 -3.11227,-2.92383 -3.29612,-3.90167 -3.29612,-17.5308 0,-8.4574 -0.53668,-14.43425 -1.29609,-14.43425 -3.54732,0 -9.37058,30.65698 -9.37058,49.3321 v 14.43085 l -4.29528,3.61424 c -5.44446,4.58122 -12.69765,8.07396 -14.02131,6.7519 -0.55921,-0.55852 -1.22809,-8.80843 -1.4864,-18.33312 -0.51481,-18.98265 -1.2171,-20.47662 -7.64568,-16.26445 l -3.66411,2.40082 0.79012,-4.86897 c 0.43457,-2.67793 3.7842,-11.98715 7.44363,-20.68716 C 786.85418,590.56961 787.36626,584 779.43674,584 c -4.03051,0 -6.10702,-2.48058 -6.08299,-7.26667 0.0263,-5.23077 1.1378,-6.78339 5.64625,-7.88677 4.46769,-1.09341 4.49333,-1.95363 0.47174,-15.8313 -4.63621,-15.99856 -6.26923,-32.71003 -5.9811,-61.2072 0.13999,-13.8457 -0.18719,-25.61572 -0.72707,-26.1556 -1.50273,-1.50274 -4.66524,3.60534 -6.81911,11.01421 -1.06595,3.66666 -4.28093,16.75806 -7.14439,29.092 -2.86346,12.33393 -5.56122,22.78026 -5.99501,23.21405 -1.53717,1.53717 -5.88841,-3.89059 -9.65461,-12.04322 -3.77014,-8.16114 -3.81578,-8.55821 -3.70852,-32.26283 0.1237,-27.33893 2.55903,-47.99141 8.53902,-72.41407 2.21048,-9.02774 4.01905,-17.57774 4.01905,-19 0,-3.33504 -2.73161,-3.29916 -6.36256,0.0836 -5.709,5.31875 -12.45004,35.70266 -14.31362,64.51586 l -0.93904,14.5187 L 724.19239,458.7416 718,445.11246 l -0.95122,8.44377 c -1.88476,16.73059 -7.84614,25.81763 -15.88273,24.21031 -2.99899,-0.59979 -4.73559,-0.0498 -7.22376,2.28767 l -3.27562,3.07729 v -3.33246 c 0,-3.6697 2.28255,-6.33281 9.33333,-10.88941 3.60313,-2.32854 4.66667,-3.91535 4.66667,-6.96274 0,-3.01269 -0.63118,-3.97906 -2.66667,-4.08281 -1.46667,-0.0748 -3.43007,-0.22476 -4.36312,-0.33333 C 695.237,457.25148 684,446.6637 684,444.68175 c 0,-1.03601 1.23439,-1.40932 3.33333,-1.00808 2.71876,0.51972 3.33334,0.10917 3.33334,-2.22675 0,-4.05221 -2.9871,-4.70939 -10.21362,-2.24707 -9.10326,3.1018 -13.68008,2.73424 -18.04676,-1.4493 -4.14817,-3.9742 -4.74195,-7.91568 -1.78203,-11.82904 1.07668,-1.4235 1.97668,-3.63818 2,-4.92151 0.056,-3.08319 -3.74604,-2.99219 -14.39003,0.34441 -6.23816,1.95549 -9.10057,2.28576 -11,1.26922 -1.41216,-0.75577 -2.56756,-1.87912 -2.56756,-2.49635 0,-1.53745 -11.49193,-6.35671 -19.45942,-8.16052 -17.98315,-4.07131 -37.14042,-5.45666 -91.87392,-6.64381 C 491.8,404.629 457.9,403.3666 448,402.50762 c -36.54701,-3.17102 -65.68366,-1.51144 -82.29927,4.68766 -6.7857,2.53166 -35.62219,6.4485 -43.2818,5.87893 -3.8235,-0.28432 -5.92489,-1.21386 -6.9498,-3.07421 -0.80802,-1.46667 -3.78832,-5.27832 -6.62288,-8.47034 -6.32053,-7.11759 -21.15769,-37.61852 -29.29755,-60.22733 C 269.14807,312.41417 268.6539,308.508 268.75694,256 c 0.10154,-51.74528 1.0823,-60.40146 8.86811,-78.27039 15.46819,-35.50049 54.89145,-82.696714 87.04162,-104.203344 15.47124,-10.34938 46.82609,-21.646911 73.01897,-26.309611 16.01036,-2.85007 46.24462,-2.891513 59.08816,-0.08099 20.99213,4.593654 35.31297,12.065018 48.66233,25.387757 C 560.03531,87.09348 564.81142,100.56925 563.6806,124 c -0.77959,16.15322 -3.91455,23.71358 -13.86954,33.44823 -4.06,3.97014 -7.91445,8.57081 -8.56545,10.22372 C 538.95868,173.47857 544.71587,180 552.12895,180 566.5101,180 581.7495,149.04388 581.66635,120 581.52972,72.269793 540.60031,36.737224 478.47099,30.411691 443.32231,26.83312 396.78601,37.520348 360.56928,57.488242 330.19172,74.23674 301.77802,100.99534 280.96016,132.46013 c -7.09982,10.73089 -25.32803,41.84434 -25.94412,44.28361 -0.17452,0.69094 -1.52187,4.85626 -2.99411,9.25626 -2.96723,8.86794 -11.32159,48.11107 -13.34093,62.66667 -1.98142,14.28223 -1.60742,51.50562 0.66927,66.61093 4.45096,29.53114 13.20016,58.82829 26.82354,89.81998 10.96292,24.93942 13.76643,33.34456 13.79807,41.36758 0.0362,9.17257 -1.90679,13.06239 -13.42062,26.86817 -11.9265,14.3006 -15.98915,22.31883 -21.85349,43.13105 -7.12022,25.26928 -15.96909,49.79162 -27.01642,74.86895 -22.31125,50.64636 -30.38809,75.84033 -31.97302,99.73306 -0.71168,10.72837 -0.52299,12.07841 2.20355,15.76625 2.08432,2.81919 3.56354,7.90515 4.91428,16.89659 1.39196,9.26584 2.7004,13.68088 4.67845,15.78642 l 2.74606,2.92304 -2.70435,1.44732 c -3.17014,1.69661 -26.28025,1.83328 -34.70866,0.20527 -3.20596,-0.61926 -6.34677,-1.94313 -6.97959,-2.94193 -1.61041,-2.54181 -1.47114,-8.33628 0.24154,-10.04896 2.25711,-2.25711 11.49553,0.69988 15.87773,5.08208 4.66997,4.66997 6.01726,4.74941 8.78959,0.5183 2.96826,-4.53013 2.97785,-11.96616 0.0196,-15.23493 -1.9644,-2.17064 -4.02803,-2.6392 -11.2625,-2.55726 -14.51783,0.16445 -27.62728,-7.55399 -35.42263,-20.85575 -4.28867,-7.31806 -9.80347,-9.63156 -15.69579,-6.58452 -3.20427,1.65699 -5.73105,5.64864 -12.4318,19.63902 -11.745328,24.52285 -19.459513,43.01273 -26.002692,62.32498 -6.5651,19.37696 -11.621194,29.97959 -18.742415,39.30285 -11.273851,14.75997 -13.865948,28.65727 -10.059201,53.93151 1.159756,7.7 1.751477,16.19497 1.314936,18.87771 -1.67011,10.26357 12.058635,28.60724 26.86584,35.89681 7.534756,3.70934 9.568791,4.14617 16.852893,3.61928 7.754579,-0.56091 8.603349,-0.95916 13.282949,-6.2324 8.62566,-9.71991 8.16865,-14.36127 -2.71038,-27.5264 -6.20123,-7.50434 -7.025708,-10.62491 -2.44246,-9.24444 5.70454,1.71821 11.84543,9.32993 18.47229,22.89664 9.26444,18.96646 10.29825,19.59645 30.27629,18.45009 8.57161,-0.49185 18.28476,-1.48365 21.58476,-2.20399 3.3,-0.72034 6.75,-1.38502 7.66666,-1.47706 2.86299,-0.28748 1.83848,-5.82432 -2.7027,-14.60641 -4.11387,-7.95573 -4.75709,-8.55468 -11,-10.24285 -3.64685,-0.98616 -9.63063,-2.28851 -13.2973,-2.89411 -3.66666,-0.60561 -9.35096,-2.42764 -12.63178,-4.04897 -3.28081,-1.62132 -8.38081,-3.99389 -11.33333,-5.27238 -10.65735,-4.61479 -24.70155,-23.66559 -24.70155,-33.50738 0,-12.10799 18.45731,-44.88276 28.07761,-49.85761 5.32555,-2.75395 6.87571,-2.50026 12.6209,2.06544 6.66804,5.29909 14.85903,7.52572 36.63482,9.95878 9.9,1.10615 25.34846,3.00386 34.32992,4.21714 14.65258,1.97938 16.85562,1.99946 21.44798,0.19553 2.81494,-1.10574 15.56648,-9.14736 28.33675,-17.87026 27.88595,-19.04787 41.20091,-31.42839 67.2458,-62.5265 12.14306,-14.49904 33.09476,-36.60901 58.14486,-61.35928 53.35059,-52.71201 58.27175,-56.64072 70.94915,-56.64072 14.52197,0 34.98787,8.0312 46.48358,18.24102 3.73941,3.32113 8.51172,6.63549 10.60515,7.36526 2.51631,0.8772 4.0607,2.52432 4.55712,4.86029 1.26848,5.96888 3.30822,10.0017 6.01907,11.90046 2.41547,1.69185 2.40914,4.29964 -0.0104,4.29964 -0.58685,0 -3.70144,-2.09418 -6.92131,-4.65373 -3.21987,-2.55954 -6.86076,-4.65954 -8.09087,-4.66666 -1.2301,-0.007 -3.43227,-1.53305 -4.8937,-3.39095 -1.46142,-1.8579 -2.97427,-2.86488 -3.36187,-2.23773 -0.88137,1.42609 2.47257,8.02731 5.98227,11.7743 3.78454,4.0404 14.27455,9.45397 20.50986,10.58451 5.32383,0.96527 5.32895,0.96206 2.86939,-1.80402 -1.35517,-1.52406 -2.11766,-3.33133 -1.69441,-4.01615 2.40308,-3.88828 22.09167,-2.3851 31.4776,2.40324 5.09378,2.59866 6.68076,4.84334 6.68076,9.44957 0,3.43465 -4.80046,3.37799 -6.65032,-0.0785 -1.58757,-2.9664 -4.25787,-4.57397 -9.8031,-5.90166 -3.75868,-0.89992 -3.78339,-0.86422 -3.33334,4.81556 l 0.45342,5.72221 -8.95395,-0.20283 c -10.06875,-0.22809 -23.21631,-4.03509 -33.49964,-9.70014 -3.78386,-2.08451 -8.59508,-4.18693 -10.69162,-4.67204 C 497.32415,666.29953 484,653.77752 484,650.33182 c 0,-1.43809 1.5,-3.7946 3.33333,-5.2367 3.41906,-2.68943 4.57169,-7.76179 1.76377,-7.76179 -0.86326,0 -3.1917,1.94306 -5.17431,4.3179 -3.59866,4.31062 -3.61457,4.31486 -9.43043,2.50855 -8.80712,-2.73533 -12.81021,-2.19903 -26.68318,3.57474 -6.99659,2.9119 -14.7659,5.72177 -17.26513,6.24414 -6.3326,1.3236 -10.54405,4.27345 -10.54405,7.38541 0,3.22926 3.47997,3.4461 10.20566,0.63593 6.07003,-2.53622 16.52101,-2.56782 22.50383,-0.068 3.87196,1.61781 4.62384,2.60676 4.62384,6.0817 v 4.14973 l 6.20306,-0.9302 c 5.94422,-0.89139 6.17067,-0.80633 5.42676,2.03837 -0.75758,2.89702 -0.58311,2.94616 7.23765,2.03847 7.14557,-0.82933 8.2203,-0.63551 9.9183,1.78873 1.0474,1.49536 3.24908,2.90988 4.89263,3.14338 2.52211,0.3583 2.96455,1.20451 2.83619,5.42453 -0.16778,5.516 0.41043,5.93182 4.23057,3.0424 5.93764,-4.491 9.976,-1.27518 7.46045,5.94091 -0.77012,2.20918 -1.11857,4.01669 -0.77433,4.01669 0.34424,0 3.03311,-1.59302 5.97526,-3.54005 l 5.34937,-3.54004 3.84703,3.6857 c 2.11587,2.02713 4.50116,3.28142 5.30065,2.78731 2.32206,-1.43511 6.0747,0.32168 14.25384,6.67292 4.20311,3.26379 8.73079,5.93416 10.06151,5.93416 1.33073,0 5.68439,2.9567 9.67481,6.57044 9.09631,8.23766 11.86976,9.72005 17.18996,9.18793 4.12824,-0.4129 4.23787,-0.28874 3.83806,4.34677 -0.2741,3.17798 0.31335,5.37344 1.75878,6.57304 1.8792,1.5596 2.56758,1.30304 5.13156,-1.91249 3.50551,-4.39633 5.30109,-3.0909 6.74112,4.90097 0.99063,5.49774 2.04507,5.97991 6.57969,3.00871 12.73578,-8.3448 69.64122,-13.21469 76.96521,-6.58657 2.76964,2.50649 2.83284,2.48898 6.34968,-1.75925 1.95371,-2.36001 5.65219,-4.98126 8.21886,-5.82499 5.64642,-1.85614 12,-7.48322 12,-10.62787 0,-1.26008 -2.1,-4.80459 -4.66667,-7.87669 -2.56666,-3.0721 -4.66666,-6.47503 -4.66666,-7.56205 0,-2.09944 4.10216,-6.32072 13.13192,-13.51324 3.04411,-2.42474 5.53474,-5.20127 5.53474,-6.17007 0,-5.1127 -11.25259,-7.05099 -15.99869,-2.75582 C 690.12043,687.19426 686.6217,705.12162 692,708 c 10.21771,5.46835 -10.0636,4.97988 -27.8327,-0.67034 -6.99994,-2.22584 -12.34067,-4.81802 -14.3143,-6.94761 -2.97661,-3.21181 -3.64657,-3.34793 -12.28777,-2.49644 -11.08283,1.09207 -12.57324,-0.0838 -11.97585,-9.44868 L 626,682 l 9.52948,0.25812 c 5.24122,0.14197 11.64402,1.14163 14.22845,2.22148 4.32525,1.8072 5.09764,1.74967 9.71169,-0.72331 3.63976,-1.95079 6.37957,-2.46808 10.00318,-1.88864 4.08543,0.65328 5.71317,0.18989 8.97549,-2.55517 3.99846,-3.36448 12.87988,-7.67692 24.38843,-11.84198 8.55402,-3.09579 11.02314,-6.28185 11.82498,-15.25851 0.51582,-5.7747 1.21294,-7.62208 3.00497,-7.96327 1.40344,-0.26721 2.33333,0.37306 2.33333,1.6066 0,4.28693 11.45581,6.82115 12.70851,2.81135 2.03141,-6.50239 1.91314,-6.36389 3.97393,-4.65358 1.24415,1.03255 1.98423,3.99522 1.98423,7.94322 0,7.58333 14.07344,51.80795 19.45401,61.13259 1.98176,3.43444 6.25493,9.38649 9.49594,13.22677 7.19699,8.52777 8.58729,13.00156 7.54761,24.28728 -0.56673,6.15199 -0.1279,11.41846 1.48589,17.83216 l 2.29016,9.10177 -3.03589,3.23156 -3.03589,3.23156 3.89908,0.13291 c 2.1445,0.0731 5.25296,0.5231 6.90769,1 2.99884,0.86428 2.99401,0.88759 -1.48922,7.18553 -4.92806,6.92284 -8.33678,16.96163 -6.96937,20.52503 1.196,3.11673 3.42642,0.72996 6.10056,-6.52819 1.46398,-3.97355 2.94714,-5.77313 5.00148,-6.06851 3.06213,-0.44027 3.26656,0.002 5.0172,10.85444 0.68311,4.23472 1.61194,5.4309 5.46817,7.04214 2.5549,1.0675 4.99524,2.85292 5.42298,3.96759 0.55331,1.4419 1.84661,1.79191 4.48221,1.21303 2.93125,-0.64381 4.41103,-0.0517 7.08934,2.83675 l 3.38483,3.65039 6.04515,-5.57222 c 3.32483,-3.06472 7.25856,-5.57222 8.74161,-5.57222 3.9757,0 8.02979,-4.73336 8.02979,-9.37518 0,-4.45468 3.49399,-6.90424 5.44748,-3.81911 0.6481,1.02352 1.18754,4.37554 1.19877,7.44893 0.0242,6.62566 1.66046,8.05805 5.9753,5.23086 3.07449,-2.01448 3.41011,-1.8456 11.03277,5.55174 4.324,4.19618 14.85173,12.72942 23.39496,18.96276 13.9205,10.15672 18.30044,14.66666 14.24388,14.66666 -2.99885,0 -18.49257,-7.23028 -27.71388,-12.93293 -7.57076,-4.68191 -10.59461,-5.864 -13.50926,-5.28107 -4.95315,0.99063 -5.33372,0.39008 -3.73762,-5.89804 0.74229,-2.92438 1.06328,-5.60339 0.71333,-5.95334 -0.34996,-0.34996 -2.96129,0.33516 -5.80295,1.52248 -3.35572,1.40211 -7.42132,1.94213 -11.59926,1.54068 -5.34973,-0.51404 -6.3642,-0.26291 -6.02627,1.49179 0.22348,1.16043 3.02177,3.07602 6.21843,4.25685 3.19666,1.18084 6.37699,3.15637 7.06741,4.39006 0.69041,1.2337 5.40639,4.33355 10.47995,6.88856 5.07356,2.555 10.20693,6.1446 11.40749,7.97688 1.20056,1.83228 3.46382,3.3406 5.02948,3.35183 3.40102,0.0244 5.02467,1.0957 6.95646,4.58995 0.79372,1.4357 3.2855,3.08777 5.5373,3.67127 2.25179,0.58349 8.00212,4.60245 12.77851,8.931 4.77639,4.32856 10.0846,8.2897 11.79603,8.80255 1.71143,0.51284 10.13823,3.86143 18.72623,7.4413 8.58799,3.57987 18.46515,7.14769 21.94924,7.9285 3.48409,0.7808 13.26245,4.67362 21.72968,8.65072 19.30203,9.06625 26.52929,11.26502 37.08754,11.2832 7.3081,0.0126 8.7589,0.44892 11.3333,3.4086 9.0245,10.375 13.3633,13.90131 20.2954,16.49494 11.4335,4.27784 26.8979,8.00484 41.4776,9.99632 17.1216,2.33871 22.7088,2.45855 26.267,0.56345 z m -45.0876,-16.04214 c -5.4666,-3.09991 -6.294,-8.77942 -1.9167,-13.15674 3.3326,-3.3326 5.5864,-2.81514 6.6007,1.51552 0.6052,2.58369 1.8198,3.3723 6.0368,3.91947 5.6558,0.73385 6.2645,2.58103 2.3008,6.98168 -2.3746,2.63646 -9.0122,3.0137 -13.0216,0.74007 z m 102.2666,-2.67341 c -0.88,-0.88 -1.6,-2.38 -1.6,-3.33333 0,-2.44747 3.9194,-2.16165 4.8856,0.35629 1.102,2.87174 -1.2551,5.0075 -3.2856,2.97704 z m -140.8384,-24.2241 c -5.3054,-5.00367 -6.1829,-9.54509 -2.0949,-10.84256 4.4116,-1.40019 7.8908,0.54561 9.0918,5.08471 1.2038,4.54961 2.3806,4.87343 10.9082,3.00146 l 4.6667,-1.02443 -5.3334,4.0987 c -7.0166,5.39229 -11.2669,5.31392 -17.2384,-0.31788 z M 1064,894.92151 c 0,-0.59318 0.8596,-2.24318 1.9102,-3.66667 2.2551,-3.05537 5.3746,-1.08383 3.9909,2.5222 -0.8501,2.21525 -5.9011,3.19485 -5.9011,1.14447 z m -67.33333,-19.82252 c -2.93334,-1.12554 -8.19945,-2.23105 -11.70248,-2.4567 -4.3092,-0.27757 -8.40894,-1.71919 -12.67601,-4.45737 -3.46879,-2.22591 -12.30268,-6.81882 -19.63086,-10.20647 -35.92936,-16.60929 -37.02819,-17.26827 -46.56786,-27.92717 -4.93816,-5.51752 -10.64712,-11.01755 -12.68658,-12.22229 -5.758,-3.40134 -8.06955,-8.509 -8.06955,-17.83071 v -8.25693 l 4.52074,3.79599 c 2.4864,2.0878 10.11337,8.74599 16.94882,14.79599 6.83545,6.05 13.20112,11 14.14593,11 1.09618,0 1.71785,1.80945 1.71785,5 0,4.9866 0.0152,5.00012 5.66666,5.04375 4.68642,0.0362 7.28121,1.22995 15,6.90094 10.44009,7.67032 22.3287,14.56655 31.33334,18.17555 16.43051,6.58523 32.00003,16.14271 32.00003,19.6435 0,1.75762 -3.8091,1.37745 -10.00003,-0.99808 z M 64.431102,859.66667 c -3.870941,-4.30041 -4.48316,-6.91507 -2.715611,-11.59785 1.20408,-3.18997 1.186133,-4.71973 -0.07914,-6.74575 -3.6524,-5.84843 -0.612904,-17.37264 6.942679,-26.32307 2.011911,-2.38333 4.74049,-4.33333 6.06351,-4.33333 5.600454,0 3.978552,7.89749 -3.837894,18.68778 -3.870012,5.3424 -4.009833,5.91051 -2.000996,8.13025 2.769151,3.05988 4.122663,18.29311 1.980962,22.29492 -1.948742,3.64125 -2.990897,3.62273 -6.35351,-0.11295 z M 208.74227,793.03666 c -1.14158,-1.62984 -2.0756,-3.98077 -2.0756,-5.22429 0,-2.98954 1.38081,-6.47904 2.56379,-6.47904 1.72731,0 7.02083,10.7553 6.26411,12.7273 -1.09662,2.85772 -4.38247,2.35943 -6.7523,-1.02397 z m 661.15536,-2.82265 c -1.00109,-2.60879 0.32448,-4.88068 2.84773,-4.88068 2.50618,0 2.46811,3.21968 -0.0629,5.32024 -1.60369,1.33095 -2.13775,1.24665 -2.78481,-0.43956 z m -650.2915,-3.88068 c -1.23028,-0.91666 -2.61996,-3.61666 -3.08817,-6 C 215.74459,776.39664 215.96419,776 218.91721,776 c 4.05062,0 11.08422,7.00247 9.9645,9.9204 -0.95825,2.49717 -6.16705,2.72905 -9.27558,0.41293 z m 633.05698,-6.33908 c -1.11681,-1.80703 2.99408,-6.66092 5.64131,-6.66092 2.71789,0 1.5343,4.01308 -1.84403,6.2523 -2.0573,1.36362 -3.13536,1.47963 -3.79728,0.40862 z M 229.33333,776.42337 C 226.13321,775.25512 224,771.78403 224,767.74516 c 0,-4.759 2.50286,-4.83276 7.96723,-0.23479 6.18943,5.20805 4.342,11.45964 -2.6339,8.913 z M 104,769.45186 c 0,-3.16551 7.19934,-9.39706 11.1023,-9.60984 6.47904,-0.35322 12.8977,1.09331 12.8977,2.90667 0,1.97048 -15.99921,9.24901 -20.33333,9.25026 C 104.94537,771.99973 104,771.34302 104,769.45186 Z m 82.61091,-0.22271 c -1.7628,-3.29382 -0.80446,-6.56248 1.92406,-6.56248 2.32938,0 3.86266,4.07902 2.68594,7.14549 -1.13758,2.9645 -2.82569,2.75101 -4.61,-0.58301 z m 668.05576,-6.35583 c 0,-1.35301 1.2,-3.546 2.66666,-4.87332 2.92276,-2.64505 3.37133,-1.36033 1.36634,3.9132 -1.50593,3.96088 -4.033,4.56249 -4.033,0.96012 z m -620.92516,-6.39946 c -0.94627,-2.46596 2.73726,-5.80719 6.40212,-5.80719 1.26534,0 3.44241,-1.56743 4.83793,-3.48316 l 2.5373,-3.48317 5.835,2.9768 c 5.52254,2.81739 5.69709,3.07764 3.25955,4.86002 -2.40884,1.76138 -18.06685,7.12951 -20.7957,7.12951 -0.67911,0 -1.61339,-0.98677 -2.0762,-2.19281 z M 108.33333,747.0838 c -2.82143,-1.08234 -1.86185,-4.45015 2.52591,-8.86518 2.30592,-2.32024 6.05592,-7.51862 8.33334,-11.55195 6.78026,-12.00794 16.61222,-14.98308 24.25558,-7.33972 5.01839,5.01839 4.2623,8.26231 -2.17945,9.35063 -3.99166,0.67439 -7.04674,2.56076 -11.72669,7.24072 -9.2218,9.2218 -16.41026,13.00623 -21.20869,11.1655 z M 599.46381,721.94 c -2.31225,-2.31225 -5.40562,-12.44263 -4.17516,-13.6731 1.20259,-1.20258 27.80388,2.04347 31.8486,3.88636 6.82725,3.11071 3.80461,5.22975 -13.07342,9.16519 -13.71911,3.19888 -12.09196,3.12961 -14.60002,0.62155 z m -19.38392,-3.60667 c -0.65795,-1.65 -1.49352,-3.96468 -1.85682,-5.14374 -0.3633,-1.17906 -2.49611,-2.51086 -4.73959,-2.95956 -4.69163,-0.93833 -6.63291,-5.59094 -4.21661,-10.10584 2.11246,-3.94718 4.41189,-3.42006 6.73313,1.54349 1.21795,2.60436 3.29874,4.5706 5.32137,5.02843 4.28679,0.97033 6.41429,6.56381 4.27904,11.25017 -1.9076,4.18673 -3.94832,4.32981 -5.52052,0.38705 z m 192.51117,-2.63 c 1.14158,-1.62984 2.07561,-5.49582 2.07561,-8.59107 0,-6.76395 3.35078,-9.77893 10.8681,-9.77893 5.3251,0 9.1319,2.74387 9.1319,6.5821 0,5.8802 -12.32614,14.75124 -20.49657,14.75124 -3.51032,0 -3.57268,-0.11703 -1.57904,-2.96334 z m -456.12849,-0.42106 c -1.2125,-3.15973 0.63773,-12.26506 3.71999,-18.30679 1.52823,-2.99557 5.76484,-8.604 9.4147,-12.46319 3.64986,-3.85919 8.27626,-10.19079 10.28088,-14.07023 3.05171,-5.90581 4.42935,-7.23907 8.46658,-8.19385 3.36758,-0.79642 5.94789,-0.60062 8.55557,0.64921 4.90918,2.35291 5.56024,5.86392 1.28629,6.93661 -4.33211,1.08729 -21.6569,19.87921 -27.39471,29.71461 -10.69881,18.33921 -12.54962,20.3714 -14.3293,15.73363 z m -104.4619,-20.94894 c 3.7e-4,-0.18333 1.18736,-3.45553 2.63776,-7.27155 1.4504,-3.81603 4.45517,-16.64899 6.67727,-28.51771 4.748,-25.36012 7.09264,-34.83174 10.71332,-43.27844 1.46077,-3.40783 3.30689,-10.48671 4.1025,-15.73084 1.87792,-12.378 3.49513,-16.44719 8.92536,-22.4578 2.45593,-2.71842 5.91181,-8.93053 7.67974,-13.8047 5.86967,-16.18258 19.80848,-38.14653 33.25371,-52.39918 4.66951,-4.94993 8.91468,-10.77135 9.4337,-12.93649 1.19905,-5.00197 2.7658,-6.95489 7.57464,-9.44164 2.97444,-1.53814 4.28983,-1.63876 5.73576,-0.43874 2.33241,1.93573 1.19505,4.27922 -6.90062,14.21852 -3.2086,3.93929 -5.83381,7.9668 -5.83381,8.95003 0,0.98323 -2.68791,5.24919 -5.97314,9.47991 -7.56192,9.73826 -7.96719,11.15223 -5.38036,18.77157 4.98634,14.68691 -5.95531,41.21603 -18.09917,43.88327 -5.77273,1.26791 -8.56424,6.09454 -6.66906,11.53106 0.81861,2.34826 2.47721,5.36221 3.68577,6.69766 2.60921,2.88315 2.58599,2.90784 -4.23071,4.49965 -4.94968,1.15583 -5.33333,1.57599 -5.33333,5.84078 0,3.79727 -0.57891,4.73573 -3.33333,5.40367 l -3.33334,0.80832 3.66667,2.41634 c 4.78098,3.15067 4.60514,4.81389 -0.88473,8.36886 -3.32983,2.15622 -5.13334,4.78672 -6.85617,10 -6.10184,18.46417 -20.31479,48.80272 -24.83654,53.01537 -2.39714,2.23328 -6.42459,3.73346 -6.42189,2.39208 z M 797.6,693.06667 c -2.26806,-2.26807 -1.98299,-6.33673 0.51104,-7.29378 1.22504,-0.47009 3.26137,0.34026 4.85192,1.93081 1.59055,1.59055 2.40091,3.62689 1.93081,4.85193 -0.95705,2.49403 -5.02571,2.7791 -7.29377,0.51104 z m -187.37778,-3.28889 c -1.74001,-1.74001 -0.85269,-7.2087 1.30392,-8.03627 3.12738,-1.20008 6.11283,3.19604 4.37529,6.44268 -1.33495,2.49436 -4.02391,3.24889 -5.67921,1.59359 z m -16.4812,-21.06898 c -3.70338,-3.25808 -3.70996,-3.29162 -0.65336,-3.33333 4.14221,-0.0565 8.24567,2.26822 8.24567,4.67144 0,2.94819 -3.40165,2.34867 -7.59231,-1.33811 z M 717.56575,634.2474 C 714.47739,630.95999 713.76426,628 716.06061,628 c 1.80992,0 7.93939,6.12947 7.93939,7.93939 0,2.41566 -3.42026,1.51625 -6.43425,-1.69199 z m -196.43047,-6.76897 c -2.6756,-0.95582 -8.0756,-3.5353 -12,-5.73219 -7.26,-4.06416 -16.20856,-7.60247 -22.7777,-9.00642 -4.91483,-1.05039 -8.52665,-7.84501 -6.51598,-12.25797 1.8198,-3.99402 6.94331,-4.12194 18.61053,-0.46465 4.64867,1.45721 10.19315,2.64947 12.32107,2.64947 2.93866,0 4.59325,1.10495 6.88121,4.59532 1.66671,2.54264 5.13435,5.42892 7.76297,6.46148 5.01818,1.97123 10.14542,10.01807 8.73131,13.70319 -0.89981,2.34486 -6.53171,2.36727 -13.01341,0.0518 z m 21.08663,-1.38095 c -1.1748,-3.06146 2.47468,-4.95874 8.67955,-4.51229 L 556.66667,622 552,624.99502 c -5.37074,3.44688 -8.73299,3.82597 -9.77809,1.10246 z m 189.34291,-2.28427 c -0.64531,-2.46768 -1.41271,-2.74529 -5.67629,-2.0534 -2.71155,0.44002 -6.00172,0.22653 -7.31148,-0.47444 -2.24982,-1.20406 -8.63857,-15.66829 -7.44693,-16.85994 0.30648,-0.30648 2.81131,0.97242 5.56629,2.842 2.75498,1.86958 6.47147,3.39924 8.25888,3.39924 4.70469,0 11.04471,6.82951 11.04471,11.89743 0,4.77271 -3.2727,5.69443 -4.43518,1.24911 z M 464.55719,607.52884 c -1.48191,-3.86181 -0.0139,-8.19551 2.77614,-8.19551 2.15674,0 2.66667,0.88889 2.66667,4.64841 0,3.37004 -0.64281,4.7722 -2.33737,5.09854 -1.28555,0.24758 -2.683,-0.45057 -3.10544,-1.55144 z m 214.10948,-6.11506 c -9.12502,-4.71758 -13.14202,-8.80509 -10.87808,-11.06903 1.2341,-1.23411 2.61749,-1.04011 6.15036,0.86246 3.18714,1.71639 5.92007,2.19921 9.08619,1.60524 3.41268,-0.64022 5.03289,-0.27015 6.57748,1.50238 2.89402,3.32108 3.55948,5.98414 2.1703,8.68517 -1.64533,3.19905 -4.52425,2.85062 -13.10625,-1.58622 z M 468,517.88716 c 0,-3.52726 10.43165,-27.32732 14.06629,-32.09258 5.12363,-6.71744 10.26872,-8.85397 19.68197,-8.17308 6.65711,0.48154 8.50901,1.18421 11.11955,4.21915 3.62406,4.21322 4.12416,11.04019 1.22011,16.65601 -3.24815,6.28122 -5.31407,7.30533 -9.92593,4.92044 -6.5155,-3.36929 -9.96934,-2.61001 -16.29788,3.5829 C 475.44126,519.15659 468,523.23501 468,517.88716 Z M 607.35123,499.1705 c -2.68193,-6.41876 -2.54818,-7.62019 0.75221,-6.75712 2.17087,0.5677 3.06651,-0.12583 4.14025,-3.20597 1.54206,-4.42354 5.18785,-6.93101 8.32639,-5.72664 2.67202,1.02535 2.65571,2.39534 -0.0553,4.64527 -1.18353,0.98225 -3.9408,4.95571 -6.12728,8.82993 -2.18647,3.87422 -4.21007,7.04403 -4.49689,7.04403 -0.28683,0 -1.42955,-2.17327 -2.53939,-4.8295 z m -24.19566,-5.65975 c -3.76444,-2.07586 -8.86444,-5.21496 -11.33334,-6.97578 l -4.4889,-3.2015 6,-0.90124 c 9.77993,-1.469 18.24216,-1.22439 19.64153,0.56777 1.70202,2.17977 4.25355,12.66048 3.31152,13.6025 -1.65002,1.65003 -6.67933,0.46584 -13.13081,-3.09175 z M 628,494.06786 c 0,-6.83394 14.57058,-13.68718 21.36691,-10.04989 l 3.06599,1.64087 -4.29745,1.80693 c -2.36359,0.99382 -6.4977,3.62058 -9.1869,5.83725 C 632.80038,498.37086 628,498.7062 628,494.06786 Z m 34.7479,-0.68432 c -2.54682,-1.57403 -1.11373,-6.05021 1.93703,-6.05021 1.68372,0 2.7955,1.03093 3.05223,2.8303 0.44045,3.08691 -2.32094,4.86902 -4.98926,3.21991 z m -127.63346,-12.8065 c -0.44102,-1.14929 -0.16252,-2.72896 0.61889,-3.51037 2.07394,-2.07394 5.6,-0.2533 5.6,2.89148 0,3.28829 -5.00347,3.78623 -6.21889,0.61889 z m -87.76656,-33.06819 c -2.41627,-1.76682 -2.40602,-1.87218 0.32417,-3.33334 3.00055,-1.60584 14.99986,-2.00701 19.99462,-0.66846 1.65,0.44218 3,1.56401 3,2.49295 0,0.92894 -1.35,2.05077 -3,2.49295 -5.49884,1.47363 -17.77047,0.87928 -20.31879,-0.9841 z m 8.98545,-13.78316 c -1.87553,-0.36124 -3,-1.54259 -3,-3.15176 0,-1.96715 0.93661,-2.57393 3.97302,-2.57393 4.6396,0 14.69365,3.74836 14.69365,5.47811 0,1.18562 -9.97782,1.3433 -15.66667,0.24758 z m 42.33334,-0.69459 c 0,-2.04996 2.58313,-5.0311 4.3594,-5.0311 0.63767,0 0.96767,1.34387 0.73333,2.98638 -0.46004,3.22449 -5.09273,5.08451 -5.09273,2.04472 z M 278.34769,417.66667 c -1.13609,-1.28334 -4.80807,-9.38074 -8.15996,-17.99422 -6.50723,-16.72189 -8.8976,-27.99766 -6.27843,-29.61639 2.70307,-1.6706 5.07085,1.7992 5.70067,8.35391 0.35948,3.74114 3.44879,12.59162 7.50063,21.48833 3.78917,8.31996 6.8894,16.24646 6.8894,17.61445 0,3.13279 -2.94426,3.21296 -5.65231,0.15392 z M 1241.7933,909.1849 c 1.8797,-0.85645 4.1857,-3.81049 5.4643,-7 l 2.2121,-5.51823 1.7275,4.00051 c 0.9502,2.20029 2.6776,4.78903 3.8388,5.75276 1.795,1.48971 2.3471,1.31185 3.6844,-1.18709 2.5181,-4.70494 1.0074,-17.93144 -2.4708,-21.63386 -3.9986,-4.2563 -3.9504,-9.26466 0.084,-8.69172 2.2996,0.32659 4.335,3.16168 8.7179,12.14347 6.4313,13.17939 11.3678,17.59989 18.218,16.31383 4.9051,-0.92088 9.8389,-5.36237 12.2539,-11.03124 2.7053,-6.35026 0.4127,-10.61527 -14.3181,-26.63724 l -12.5383,-13.63725 -36.4043,-0.0294 L 1195.858,852 1173.0699,836.44818 c -36.2071,-24.70955 -47.0229,-34.31553 -68.8212,-61.12282 -11.6728,-14.35513 -50.7151,-56.65869 -52.2908,-56.65869 -0.6113,0 -1.4734,1.14014 -1.9157,2.53364 -1.6176,5.09676 -11.3763,18.79969 -13.3883,18.79969 -3.4512,0 -3.7439,-3.66702 -0.6873,-8.61262 4.9924,-8.07784 0.8548,-12.92571 -6.6699,-7.81498 -5.886,3.9977 -18.63,15.32539 -18.63,16.55953 0,0.66077 1.5,1.2014 3.3333,1.2014 3.996,0 4.6701,4.42223 1,6.55987 -2.8046,1.63356 -2.4782,1.67742 10.7673,1.44694 7.7449,-0.13477 11.3115,0.39335 13.8385,2.04909 3.1419,2.05869 3.347,2.78656 2.6601,9.44214 -0.7412,7.18084 -0.7252,7.21948 3.7497,9.08921 2.9614,1.23734 5.4394,3.73096 7.2663,7.3119 1.5248,2.9888 3.2101,5.51076 3.7452,5.60435 0.5351,0.0936 2.2766,0.30945 3.87,0.47969 5.3832,0.57511 14.6667,7.18437 28.3013,20.14863 13.2329,12.5823 17.6484,17.86818 14.9261,17.86818 -0.7165,0 -4.7269,-2.99645 -8.912,-6.65879 -4.1852,-3.66233 -9.6382,-7.21897 -12.1179,-7.90364 -2.4797,-0.68467 -8.5403,-4.21414 -13.4682,-7.84327 -4.9279,-3.62914 -10.2571,-6.99622 -11.8427,-7.48241 -1.5857,-0.48619 -5.1857,-2.71439 -8,-4.95155 -2.8144,-2.23716 -8.725,-6.08563 -13.1347,-8.55216 -4.4097,-2.46652 -13.1097,-8.70169 -19.3333,-13.85593 -6.2236,-5.15425 -12.9765,-10.30304 -15.0063,-11.44176 -3.34964,-1.87911 -3.76579,-1.87456 -4.50401,0.0492 -0.44735,1.16579 0.31342,4.23572 1.69062,6.82208 3.49519,6.564 17.10629,20.25061 21.14749,21.26489 2.4499,0.61489 3.3565,1.72943 3.3565,4.12646 0,2.98548 0.1905,3.09355 2.0952,1.18879 2.5538,-2.55376 2.4867,-2.55228 7.1188,-0.15694 2.4278,1.25544 5.2799,5.01834 8.0958,10.68096 3.3269,6.6904 5.4471,9.26449 9.032,10.96563 2.71,1.28599 6.2947,4.76195 8.5047,8.24674 5.5815,8.80114 4.6488,9.76441 -2.231,2.304 l -6.0227,-6.53104 -3.2545,3.0574 -3.2544,3.0574 -5.5486,-5.01281 c -8.166,-7.3775 -18.7817,-11.83349 -29.7415,-12.48421 l -9.20626,-0.5466 3.01076,4.22826 c 4.9412,6.93917 17.6668,16.67172 31.6205,24.18323 21.9047,11.79171 41.0635,23.49559 52.2085,31.89363 16.1123,12.14096 24.6737,15.02508 57.5727,19.39488 9.1667,1.21756 19.2875,3.35371 22.4908,4.747 3.2549,1.41573 10.6134,7.20794 16.6807,13.13009 5.9711,5.82826 12.3503,11.19262 14.1759,11.92081 4.6309,1.84714 40.3967,1.85618 44.4459,0.0112 z m 41.359,-15.17598 c -0.4619,-1.20349 -0.2004,-2.82751 0.581,-3.60892 2.0315,-2.03148 5.8806,-0.17478 5.3499,2.58066 -0.591,3.06917 -4.8635,3.8099 -5.9309,1.02826 z m -67.4856,-20.10489 C 1213.65,872.80997 1212,870.94739 1212,869.76497 c 0,-1.84826 1.3562,-2.04561 9.6667,-1.40668 5.3166,0.40875 12.6666,1.51544 16.3333,2.4593 l 6.6667,1.71612 -10,1.63163 c -13.0371,2.12716 -14.638,2.10515 -19,-0.26131 z m -68.7316,-16.23736 c -2.5923,-2.75 -6.5631,-5.6 -8.8241,-6.33334 -2.7652,-0.89682 -4.111,-2.20036 -4.111,-3.98174 0,-4.40563 3.8623,-3.75482 11.4206,1.92445 3.9459,2.96484 7.8976,5.39063 8.7816,5.39063 0.884,0 2.5709,0.96356 3.7486,2.14126 1.6532,1.65323 1.7897,2.5649 0.5986,4 -2.6305,3.16957 -6.7041,2.0678 -11.6143,-3.14126 z m -65.6018,14.6 c 0,-1.64886 -3.0059,-4.26667 -4.8992,-4.26667 -0.9346,0 -6.6646,-4.01041 -12.7334,-8.91202 -15.2667,-12.33064 -36.5388,-26.06388 -39.3652,-25.41407 -3.7578,0.86395 10.5922,13.92557 23.7094,21.58062 6.2086,3.62333 11.4884,7.07333 11.7329,7.66667 0.2444,0.59334 1.2484,1.0788 2.231,1.0788 0.9826,0 3.5692,1.5 5.748,3.33333 2.1788,1.83334 4.6249,3.33334 5.4357,3.33334 0.8108,0 1.4742,0.6 1.4742,1.33333 0,0.73333 1.5,1.33333 3.3333,1.33333 1.8333,0 3.3333,-0.48 3.3333,-1.06666 z m -725.45819,-3.34193 c 15.31508,-5.3663 10.05895,-20.76803 -9.35954,-27.42568 l -7.18224,-2.46244 10.35594,-2.32385 c 12.08818,-2.71255 15.19781,-2.20934 20.62027,3.33689 4.0132,4.1048 8.35713,14.87645 8.35713,20.72321 0,4.81288 4.05724,6.26485 12.92514,4.62553 4.14392,-0.76605 8.93101,-2.3079 10.63797,-3.42635 6.69656,-4.38775 3.48138,-15.0542 -10.63541,-35.28333 l -3.24123,-4.64462 -19.84323,0.38696 c -22.16007,0.43214 -31.1976,-0.85343 -41.5779,-5.91437 -8.98989,-4.38304 -13.02762,-10.3821 -14.88191,-22.11076 -1.65921,-10.49476 -2.51834,-13.0726 -4.35676,-13.0726 -2.30565,0 -17.2186,11.23005 -27.22516,20.50162 -6.247,5.78816 -10.63512,8.83172 -12.73334,8.83172 -7.54752,0 -8.26196,6.38304 -2.31371,20.67138 5.75484,13.82373 12.42041,20.87432 25.90484,27.40116 21.09041,10.20834 51.01011,14.92952 64.54914,10.18553 z M 953.7602,756.33333 c 4.56049,-7.29215 6.59782,-13.84478 4.84489,-15.5825 -1.01325,-1.00444 -3.44667,0.82734 -8.35084,6.28615 -3.8065,4.23701 -7.37092,7.68701 -7.92092,7.66667 -2.02109,-0.0747 -0.91164,-8.21084 2.27358,-16.67321 1.80047,-4.78341 2.97618,-8.69711 2.61268,-8.69711 -0.3635,0 -2.47491,1.34116 -4.69203,2.98034 -9.00358,6.65664 -12.02134,17.99441 -6.19423,23.27182 8.10737,7.34255 13.16678,7.55967 17.42687,0.74784 z m 78.7342,-49.0635 c 2.1053,-3.33231 3.4073,-6.4792 2.8934,-6.9931 -1.2359,-1.23598 -10.0545,8.44429 -10.0545,11.03702 0,3.8702 3.3599,1.97288 7.1611,-4.04392 z M 735.91426,693.41454 c 1.58646,-1.00387 1.61558,-1.57119 0.17008,-3.31292 -2.04024,-2.45833 -6.18112,-2.76907 -7.54268,-0.56601 -0.52199,0.84458 0.15728,2.34458 1.50948,3.33333 2.88348,2.10845 3.32791,2.14981 5.86312,0.5456 z m 236.9102,-16.71791 c 7.44553,-16.2632 14.74584,-54.29782 12.99358,-67.69663 -0.45554,-3.48333 -0.46479,-6.33333 -0.0205,-6.33333 2.57605,0 5.48629,8.74218 8.24196,24.75833 1.72117,10.00356 3.49903,18.55792 3.9508,19.0097 1.46477,1.46476 3.2159,-2.92074 3.8958,-9.75655 0.3654,-3.67298 1.1566,-16.09433 1.7584,-27.603 0.6018,-11.50866 1.538,-21.36866 2.0803,-21.91111 2.9263,-2.92623 5.0968,7.71703 8.83,43.29842 1.6057,15.30408 2.4212,17.78375 4.6182,14.04209 2.1438,-3.65113 2.7984,-57.95858 0.8627,-71.55021 -0.8779,-6.16304 -3.4941,-15.61223 -5.9814,-21.60367 l -4.4211,-10.64933 -1.956,4.64933 c -6.1821,14.69481 -8.11732,18.6536 -8.78992,17.981 -0.41222,-0.41221 -1.17485,-13.18047 -1.69473,-28.37391 -1.14359,-33.42063 -2.11467,-37.15438 -13.70723,-52.70361 -5.85994,-7.86001 -9.01688,-13.52271 -10.13328,-18.17636 -0.89187,-3.71774 -4.25753,-10.77284 -7.47924,-15.67798 -7.22902,-11.00639 -8.05736,-13.4533 -5.44023,-16.07043 1.83102,-1.83102 2.43753,-1.60462 5.9223,2.21071 3.17393,3.47502 4.1579,3.91864 5.39238,2.43119 1.15245,-1.38862 0.83716,-3.06088 -1.33147,-7.06204 -1.56282,-2.88341 -3.60676,-10.04257 -4.54209,-15.90924 -1.3574,-8.514 -3.38757,-13.95276 -10.05974,-26.9496 -4.59752,-8.95562 -7.90428,-16.7378 -7.34833,-17.29374 0.55594,-0.55594 3.07861,-0.83265 5.60595,-0.61491 2.52733,0.21774 4.59515,-0.19331 4.59515,-0.91344 0,-0.72014 -2.10403,-3.8277 -4.67562,-6.90569 -4.8544,-5.81034 -5.06299,-6.35695 -7.24112,-18.9756 -1.75209,-10.15042 -7.6302,-21.86574 -13.04222,-25.99369 -7.62789,-5.81808 -4.98636,-13.47343 3.19012,-9.24521 4.65094,2.4051 16.08272,14.39476 20.30447,21.29535 1.70603,2.78857 3.37287,4.79913 3.70409,4.46792 1.81682,-1.81682 -3.52484,-13.27826 -12.2854,-26.36042 -10.39324,-15.52024 -12.26881,-21.17764 -7.02091,-21.17764 1.93639,0 6.17304,3.46793 12.46505,10.2033 9.78841,10.47816 13.38969,11.86057 11.22377,4.30845 -2.83419,-9.88224 -17.02488,-22.56347 -29.07041,-25.97818 -11.69065,-3.31411 -13.55182,-4.92568 -13.55182,-11.73438 0,-3.1933 0.75,-6.41018 1.66666,-7.14863 4.96801,-4.00211 22.44889,-2.69542 29,2.16775 2.60473,1.9336 3.33334,3.66126 3.33334,7.90392 0,4.18944 0.89438,6.36373 3.91612,9.52028 2.15387,2.24995 4.7227,4.09083 5.70851,4.09083 1.8705,0 2.24393,-0.73879 3.706,-7.33173 0.84719,-3.82027 0.97094,-3.88316 2.77803,-1.41182 2.2855,3.12562 2.48932,13.15555 0.33734,16.6014 -1.22046,1.95428 -1.03491,4.31128 0.86454,10.98191 2.00379,7.03708 2.44184,13.86665 2.55445,39.8269 0.12366,28.50405 0.37668,31.81492 2.80214,36.66667 3.60437,7.21001 7.01935,7.50714 12.15323,1.05744 6.00036,-7.53825 6.12997,-8.81715 1.7293,-17.06382 l -3.98453,-7.46684 4.49429,0.84314 c 3.85621,0.72343 4.81982,0.34631 6.78716,-2.65624 4.5863,-6.9996 15.4867,-7.85003 15.4867,-1.20825 0,5.91773 -7.9361,18.70102 -18.85556,30.372 -5.76275,6.15936 -10.47772,11.87152 -10.47772,12.6937 0,0.82218 1.5,2.06517 3.33333,2.7622 2.87252,1.09213 4.02482,3.35762 3.51863,6.9178 -0.0718,0.50479 -0.23848,3.96871 -0.37046,7.69758 -0.1846,5.21551 0.32257,7.19112 2.19812,8.56256 1.97528,1.44435 2.38127,3.35721 2.13878,10.0769 -0.17445,4.83447 0.35433,9.0817 1.26771,10.18226 0.87393,1.05301 2.03327,9.409 2.62127,18.89218 1.075,17.33827 1.7047,20.4548 6.2641,31.00406 3.9957,9.24499 5.8221,18.03721 6.9844,33.62222 0.9317,12.49415 1.4908,14.79428 4.4512,18.31254 4.024,4.78216 7.9523,14.77706 12.6027,32.06524 2.6378,9.80578 3.4825,16.43098 3.7401,29.33333 0.183,9.16667 0.3891,17.1305 0.4581,17.6974 0.069,0.56691 1.5406,0.10339 3.2704,-1.03004 2.806,-1.83852 3.3259,-1.84316 4.8198,-0.0429 0.9211,1.1098 1.4015,3.8789 1.0677,6.15354 -0.7989,5.44328 1.6295,6.26643 7.6003,2.57629 5.4556,-3.37175 5.6199,-3.05024 2.0338,3.97908 -3.6451,7.14507 -3.5097,9.59573 0.475,8.59564 1.9702,-0.4945 3.9233,-0.007 5.2381,1.30793 2.8394,2.83934 3.962,2.65711 7.6202,-1.2369 2.44,-2.59715 4.4557,-3.33333 9.1275,-3.33333 7.6212,0 11.0463,2.79799 9.976,8.14943 -0.6643,3.32175 -0.3628,3.85057 2.1951,3.85057 5.3397,0 11.2455,-3.84252 24.7403,-16.09684 22.0462,-20.01992 21.6663,-23.03393 -3.0525,-24.20555 -9.8641,-0.46753 -16.1077,-1.43794 -19.4468,-3.02249 -10.4478,-4.95781 -22.1858,-22.48223 -26.798,-40.00846 -3.5786,-13.59851 -23.1086,-107.36282 -24.8026,-119.07801 -2.6096,-18.04748 -1.1453,-38.61477 3.7829,-53.13216 5.2718,-15.53035 18.1614,-42.72889 25.8807,-54.61153 7.9109,-12.17751 27.277,-33.54588 44.1068,-48.66682 23.0994,-20.75387 29.5364,-24.02286 57.6239,-29.26329 26.6584,-4.97377 24.9003,-5.08489 32.008,2.02288 3.4097,3.40975 7.7886,9.61866 9.7307,13.79757 3.0668,6.59887 3.5353,9.3514 3.5629,20.93136 0.031,12.8975 -0.1473,13.70763 -5.447,24.78385 -6.8328,14.27997 -18.1955,34.12064 -35.822,62.54949 -18.1943,29.3444 -31.1293,52.99466 -32.0972,58.68596 l -0.7903,4.64737 6.1811,-6.55832 c 7.3915,-7.8426 23.0719,-31.23575 32.6938,-48.77501 3.8218,-6.96667 10.9958,-18.36667 15.9421,-25.33334 4.9464,-6.96666 12.7587,-19.25489 17.3608,-27.30717 4.6021,-8.05228 11.2371,-18.85228 14.7446,-24 7.9494,-11.66699 11.6064,-20.82135 13.3629,-33.45003 1.6377,-11.77406 -0.063,-23.29925 -4.8233,-32.69392 -4.5067,-8.89366 -8.1801,-11.33223 -18.5255,-12.2983 -11.2959,-1.05482 -14.0815,-2.57744 -14.0815,-7.69703 v -4.0193 l 7.9375,0.89802 c 7.6024,0.86012 8.1088,0.72658 12,-3.16456 8.2602,-8.26029 4.2724,-18.82891 -9.5206,-25.23127 -11.0224,-5.11631 -19.4743,-6.37256 -42.4169,-6.30462 -17.978,0.0532 -24.6813,0.64407 -36.6666,3.23181 -8.0843,1.74547 -19.1547,3.16764 -24.6667,3.16884 -9.1645,0.002 -10.8819,-0.46297 -20.5558,-5.56515 -13.7402,-7.2468 -17.8959,-7.30646 -14.0939,-0.20231 2.0565,3.84268 -1.3992,4.98777 -22.2208,7.36304 -10.1545,1.15841 -22.301,2.98031 -26.9921,4.04867 -4.6911,1.06836 -8.7697,1.70208 -9.0635,1.40827 -0.2938,-0.29381 0.4311,-1.49956 1.611,-2.67944 2.7963,-2.79627 13.2248,-5.69273 27.1074,-7.5289 17.4828,-2.31235 20.1951,-3.98923 14.9447,-9.23965 -4.3975,-4.39745 -12.914,-5.98497 -31.4037,-5.85379 -13.1644,0.0934 -19.8699,0.80369 -27.8799,2.95322 -14.41501,3.86833 -17.45461,3.73578 -19.18133,-0.83643 -0.76161,-2.01666 -1.74016,-6.64242 -2.17456,-10.27946 -0.4344,-3.63704 -1.30845,-7.13143 -1.94233,-7.76531 -0.64778,-0.64778 -4.54484,-0.52539 -8.89875,0.27947 -12.10827,2.23834 -13.68144,1.99147 -14.16792,-2.2233 -0.23278,-2.01677 -1.3184,-3.76999 -2.42189,-3.91121 -12.03457,-1.54011 -20,-5.94937 -20,-11.071 0,-1.32024 -1.23388,-3.8169 -2.74195,-5.54814 l -2.74195,-3.14771 1.51664,3.11419 c 0.83415,1.71281 1.22014,3.4107 0.85775,3.77309 -0.57008,0.57008 -15.05589,-1.23983 -24.75457,-3.09293 -3.14729,-0.60134 -3.11609,-0.6942 1.99049,-5.92381 4.30143,-4.40507 4.84778,-5.53381 3.19741,-6.60574 -1.09477,-0.71107 -3.79049,-1.13654 -5.99049,-0.9455 -3.57543,0.31049 -4.07851,0.91346 -4.7397,5.6807 -1.10772,7.98684 -3.49963,11.29354 -10.37433,14.342 -8.97265,3.97875 -21.98459,3.62111 -34.88597,-0.95886 -10.81466,-3.8392 -30.47038,-6.30161 -28.8061,-3.60875 0.51804,0.8382 7.96133,3.71679 16.54066,6.39687 18.58261,5.805 24.40594,8.55835 28.13941,13.30468 3.55817,4.52348 3.56209,8.01184 0.0101,8.94071 -1.80741,0.47265 -2.61612,1.57856 -2.30752,3.15551 0.38643,1.97461 1.76444,2.42784 7.38167,2.42784 6.73357,0 12.44104,2.60647 8.26477,3.77433 -8.57068,2.39672 -9.92056,3.16135 -10.30495,5.83719 -0.52238,3.63638 -2.49575,4.07346 -14.98436,3.3189 -11.43655,-0.69099 -22.54351,1.87684 -28.54814,6.60008 -4.45312,3.50283 -11.73263,14.64377 -13.89098,21.2595 -2.45675,7.53034 -0.043,29.7447 3.66034,33.6867 4.32329,4.60193 3.62475,7.21058 -2.36256,8.8228 -10.92204,2.941 -39.38555,25.36716 -32.19625,25.36716 0.69449,0 5.23054,-3.00323 10.08009,-6.67384 16.45679,-12.45611 20.05184,-13.118 32.06895,-5.90428 4.35686,2.61537 8.40753,5.23133 9.00149,5.81326 0.59396,0.58193 -5.10604,4.0944 -12.66666,7.80549 -16.92388,8.30699 -28.81788,18.00318 -39.54232,32.23559 -13.14259,17.44154 -10.58384,17.45657 8.53547,0.0501 28.74442,-26.16929 32.82573,-28.19992 55.90278,-27.81407 15.98878,0.26734 16.84291,0.14302 20.11092,-2.92712 1.87714,-1.76347 4.64397,-5.19811 6.14852,-7.63252 1.50455,-2.43442 3.10543,-4.05633 3.55751,-3.60425 0.45208,0.45208 1.13364,8.13364 1.51458,17.07013 L 882,310 l 3.6797,-0.38584 c 4.46941,-0.46865 5.37285,1.47376 8.18859,17.60545 2.41629,13.84324 3.85516,16.78039 8.22047,16.78039 1.83055,0 3.64675,0.82996 4.03601,1.84436 1.11915,2.91644 -2.89979,11.06167 -6.68007,13.53861 -4.37575,2.8671 -4.39217,4.61703 -0.0433,4.61703 4.88884,0 6.58053,5.09731 9.8457,29.66661 3.50269,26.35659 4.13232,28.16134 9.4196,27.00006 4.98049,-1.0939 5.39775,-0.12566 10.59472,24.58471 2.0916,9.94507 4.44859,19.73195 5.23776,21.74862 1.5893,4.06136 4.29845,4.72204 6.83418,1.66667 3.09047,-3.72378 5.13936,-2.23911 5.98012,4.33333 1.90824,14.91717 3.85061,25.11884 9.32947,49 6.90385,30.09232 7.62698,36.38058 4.42103,38.44462 -1.24816,0.80358 -2.67968,1.05076 -3.18116,0.54929 -0.50147,-0.50148 -0.9888,-6.48026 -1.08294,-13.28618 -0.29481,-21.31307 -6.12139,-25.04037 -7.19412,-4.60214 -0.4541,8.65183 -0.0774,12.23555 1.67385,15.92615 2.73813,5.77017 10.42558,10.09276 13.46429,7.57086 2.38649,-1.98062 2.35701,-2.22636 2.00732,16.73073 -0.22205,12.03809 0.25125,16.21992 2.64087,23.33334 4.47866,13.33209 4.05667,54.70606 -0.75135,73.66666 -1.52806,6.02595 0.61148,4.16616 4.18375,-3.6367 z m 12.48246,-131.58552 c -0.0242,-18.717 -1.31406,-34.15378 -3.39102,-40.58254 -0.60539,-1.87383 0.0605,-1.57856 2.57152,1.14029 4.77261,5.16758 6.22654,11.32837 7.00075,29.66447 0.69997,16.57804 -1.11332,28.56728 -4.48817,29.67512 -1.28391,0.42146 -1.67273,-4.14809 -1.69308,-19.89734 z m 38.98838,-93.66213 c -0.8063,-1.76973 -2.672,-3.60042 -4.1458,-4.0682 -3.3228,-1.05461 -4.6229,-4.85683 -3.4644,-10.1316 0.5923,-2.69671 0.1853,-5.09047 -1.2339,-7.25646 -2.6991,-4.11927 -2.7087,-9.21136 -0.023,-11.89748 3.7923,-3.79231 4.5952,-2.96252 6.5474,6.7665 0.463,2.3073 2.0078,5.25029 3.4329,6.53999 2.1464,1.9425 2.5911,4.13992 2.5911,12.80492 0,10.72365 -1.1205,12.91408 -3.7047,7.24233 z m -85.62863,-30.60161 c -3.3,-2.43092 -10.40384,-8.56604 -15.7863,-13.63361 L 913.09407,398 l 1.36031,-27.84067 c 0.74816,-15.31237 1.92822,-28.4086 2.62235,-29.10273 3.87465,-3.87465 13.06347,20.27065 14.99919,39.41309 0.75251,7.44167 2.01591,16.53031 2.80754,20.19698 1.65225,7.65285 7.25573,18.84561 9.95292,19.88062 1.89122,0.72573 2.60498,4.81165 0.83029,4.75299 -0.55,-0.0182 -3.7,-2.02199 -7,-4.45291 z m 82.96713,-12.55166 c -5.037,-0.81344 -7.4413,-5.97794 -6.4083,-13.76511 1.8261,-13.76571 8.941,-26.89986 13.1595,-24.29265 1.864,1.152 0.2674,13.6369 -2.481,19.40026 -2.3159,4.8566 -2.01,8.07373 1.5723,16.53085 0.7814,1.84474 -1.7907,2.78099 -5.8425,2.12665 z m 27.068,-108.23893 c -0.9262,-1.4986 7.1322,-6.00231 8.4221,-4.70699 0.9167,0.92051 -4.6056,5.98354 -6.5263,5.98354 -0.6088,0 -1.4619,-0.57444 -1.8958,-1.27655 z m 15.9493,-13.34117 c 0.6608,-2.08177 -0.1398,-3.02329 -3.9101,-4.59863 -6.2073,-2.59355 -6.2604,-6.71276 -0.1805,-13.98995 6.959,-8.32937 7.93,-17.61194 2.038,-19.48201 -1.4292,-0.4536 -2.5985,-1.4149 -2.5985,-2.13624 0,-2.11666 8.7734,-5.17259 14.9572,-5.20987 3.1402,-0.0189 9.9095,-1.55732 15.0428,-3.41863 14.125,-5.12165 21.8945,-7.17042 24.0521,-6.34244 3.2868,1.26124 2.2255,2.543 -4.8494,5.85668 -7.8739,3.68795 -11.9169,8.13564 -10.9068,11.99851 0.9307,3.55865 -2.8569,7.60172 -8.6093,9.19001 -5.1564,1.42378 -10.3804,-0.003 -13.3074,-3.63546 -1.6378,-2.0323 -1.7562,-1.84492 -1.0859,1.71909 0.4996,2.65625 -0.1521,5.67969 -1.9398,9 l -2.692,5 h 3.0811 c 1.6946,0 4.1717,0.7975 5.5047,1.77222 3.1528,2.30534 1.4945,5.57709 -6.1379,12.11015 -6.2812,5.37646 -9.7599,6.26751 -8.4583,2.16657 z m -78.68957,-2.29477 c -1.32532,-2.02271 -2.65014,-6.69487 -2.94404,-10.38258 -0.49737,-6.24083 -0.4105,-6.4742 1.25497,-3.37159 1.08048,2.01281 3.19101,3.49674 5.32753,3.74581 5.51166,0.64255 6.67547,3.03208 4.02156,8.25705 -2.97421,5.85556 -4.71067,6.25257 -7.66002,1.75131 z m 23.36027,-5.77581 c -1.2738,-2.37994 -0.9611,-2.78384 2.7257,-3.5212 2.2905,-0.4581 4.8612,-1.94837 5.7126,-3.3117 1.935,-3.09851 4.9066,-3.23079 4.9066,-0.21842 0,3.03003 -6.5693,9.73962 -9.5359,9.73962 -1.3037,0 -3.0177,-1.20973 -3.809,-2.6883 z M 847.42533,266.65448 c -9.82674,-9.43612 -11.43763,-13.60267 -11.39605,-29.47584 0.0361,-13.78789 2.66145,-20.31798 10.29548,-25.60836 5.59192,-3.87521 15.87,-7.57028 21.05722,-7.57028 1.62699,0 3.70916,0.90489 4.62704,2.01087 1.39405,1.67972 0.68352,3.06431 -4.3145,8.40759 -7.05522,7.54261 -9.73163,14.22352 -7.76754,19.38948 0.82178,2.16145 2.35439,3.52539 3.96133,3.52539 4.62437,0 4.14657,2.15602 -1.13572,5.12484 -6.5127,3.66034 -7.71591,6.49342 -3.56163,8.38623 2.28762,1.04231 3.93796,1.00203 6.08791,-0.14859 1.62224,-0.86819 3.23557,-1.29248 3.58519,-0.94286 0.75133,0.75133 -11.20313,24.91372 -12.32618,24.91372 -0.42278,0 -4.52343,-3.60549 -9.11255,-8.01219 z m 195.24137,-19.8475 c -4.2339,-1.17771 -4.3392,-4.66474 -0.1587,-5.25594 8.6435,-1.22235 16.5595,3.62524 9.1587,5.60858 -3.4959,0.93687 -4.5066,0.89727 -9,-0.35264 z M 931.33333,236 c -1.24451,-2.01367 0.49337,-4 3.49968,-4 3.32757,0 7.83366,2.32787 7.83366,4.04691 0,1.70612 -10.27619,1.66359 -11.33334,-0.0469 z M 1058,226.47635 c -11.0832,-4.88061 -11.3324,-5.08567 -13.3652,-10.99879 -2.5148,-7.31499 -1.1599,-8.0902 15.0083,-8.5874 16.2447,-0.49956 18.5034,0.55808 19.8135,9.2778 0.574,3.82085 -0.05,5.2521 -4.141,9.49871 -2.6493,2.75 -5.5291,4.98193 -6.3996,4.95986 -0.8705,-0.0221 -5.7827,-1.88966 -10.916,-4.15018 z m 5.6296,-10.00737 c 0.8963,-1.93062 1.3109,-4.02594 0.9213,-4.65627 -0.3895,-0.63032 -4.2729,-1.14604 -8.6296,-1.14604 -6.8609,0 -7.9213,0.3352 -7.9213,2.50403 0,3.30112 4.9984,6.67452 10,6.74896 3.0497,0.0454 4.3871,-0.77439 5.6296,-3.45068 z m 38.2369,8.64842 c -0.9344,-1.51193 3.8746,-6.45073 6.2812,-6.45073 2.2719,0 1.1669,5.24954 -1.3934,6.61975 -3.2594,1.74438 -3.7149,1.72862 -4.8878,-0.16902 z m 16.8002,-7.09494 c 0,-1.61128 13.9349,-7.47567 18.3778,-7.73415 4.1627,-0.24219 4.9555,0.13831 4.9555,2.37836 0,1.8556 -1.4194,3.15069 -4.6667,4.25807 -4.5505,1.5518 -18.6666,2.38192 -18.6666,1.09772 z m 80.5193,-0.37621 c -0.8143,-0.53877 -2.4427,-2.85811 -3.6187,-5.1541 -1.176,-2.29598 -4.0953,-5.82135 -6.4874,-7.83415 l -4.3493,-3.65965 9.3014,0.55975 c 9.8777,0.59444 16.128,2.90768 18.5117,6.85124 1.2043,1.99249 0.7029,3.08822 -2.8981,6.33333 -4.3119,3.88573 -7.5968,4.79761 -10.4596,2.90358 z M 944.0664,210.57342 C 947.20144,206.17066 959.3988,196 961.54386,196 c 2.06793,0 -3.69148,7.31648 -10.42532,13.24385 -7.55037,6.6461 -11.34762,7.36201 -7.05214,1.32957 z m -14.48247,-7.229 c 0.30965,-3.96094 1.05833,-5.4441 2.92707,-5.79865 2.14513,-0.40698 2.37519,0.0771 1.57893,3.32225 -0.51264,2.08925 -1.82983,4.69865 -2.92707,5.79865 -1.77183,1.77626 -1.94846,1.40462 -1.57893,-3.32225 z m -10.19728,0.7145 c -1.7948,-1.98323 -3.86483,-2.54204 -8.64363,-2.33334 -5.10703,0.22303 -7.21758,-0.4379 -11.2712,-3.52966 -5.0163,-3.82601 -8.63012,-9.48206 -7.06097,-11.05122 0.46422,-0.46421 2.60241,1.03832 4.75154,3.33897 4.52786,4.84709 6.21057,5.17932 8.12403,1.60399 3.40948,-6.37068 0.20913,-16.29243 -7.55554,-23.42377 l -5.06421,-4.65115 4.66666,0.0517 c 7.43557,0.0824 16.08945,2.12025 18.27202,4.30282 1.70044,1.70044 5.41933,17.47714 8.00649,33.96607 0.77159,4.91764 -0.76755,5.54623 -4.22519,1.72559 z m 51.28002,-1.34534 c 0,-1.68196 4.50093,-4.05895 7.57901,-4.00255 2.10247,0.0385 2.00686,0.38935 -0.72673,2.66666 -3.34525,2.78688 -6.85228,3.47059 -6.85228,1.33589 z m -32.07834,-5.52661 c -1.16829,-2.18297 -1.03071,-4.05623 0.61425,-8.36349 2.468,-6.46236 9.04315,-14.15681 12.09744,-14.15681 4.67448,0 4.12518,9.80861 -0.61877,11.04918 -1.97238,0.51579 -2.68125,1.81486 -2.68125,4.91365 0,8.51762 -6.09129,12.76165 -9.41167,6.55747 z m -8.37768,-6.08743 c -1.28814,-1.28814 -1.07122,-12.43287 0.242,-12.43287 1.29147,0 4.21402,5.94087 4.21402,8.56614 0,2.21275 -3.27131,5.05144 -4.45602,3.86673 z m -3.94428,-23.43287 c -1.09137,-3.11667 -2.41196,-6.71667 -2.93465,-8 -0.75161,-1.84536 -0.26818,-2.33334 2.31161,-2.33334 4.75989,0 7.87984,7.81258 5.54735,13.89095 -1.34043,3.49311 -2.83293,2.41483 -4.92431,-3.55761 z m -94.31317,450 c 0.77654,-2.75 1.73562,-9.5 2.13129,-15 l 0.71939,-10 -2.66636,4.66666 c -1.46649,2.56667 -3.3785,7.75257 -4.2489,11.52423 -2.60058,11.26893 1.10327,19.29623 4.06458,8.80911 z m 62.69305,-9.33334 c -0.0143,-6.30296 -0.40774,-8.40066 -1.31292,-7 -1.45932,2.25814 -1.69636,8.50947 -0.49295,13 1.34577,5.02174 1.82724,3.42205 1.80587,-6 z m 43.40722,-0.41984 c 1.55614,-2.5179 -0.73062,-10.38801 -4.22505,-14.54091 C 930.16278,589.01622 924,587.76439 924,591.37616 c 0,3.56683 3.73472,11.14644 7.19936,14.61108 3.62367,3.62367 5.48223,4.14599 6.85411,1.92625 z m 181.94823,-15.82211 c 14.7528,-8.76446 23.1394,-19.65143 26.6615,-34.61042 3.6706,-15.58945 -0.8744,-60.55137 -9.3758,-92.75288 -5.9979,-22.71849 -13.9592,-33.56201 -30.8474,-42.01483 -5.9118,-2.95895 -11.7593,-5.37992 -12.9944,-5.37992 -6.4292,0 -7.193,8.10122 -1.4456,15.33334 7.6196,9.58801 3.7998,10.18074 -5.5238,0.85714 -4.2481,-4.24805 -6.4762,-7.6086 -6.4762,-9.76758 0,-6.72688 -13.1786,-14.34388 -24.9032,-14.39361 -5.8881,-0.025 -7.3096,0.48735 -9.6667,3.48386 -3.6545,4.64592 -3.4567,8.39402 1.1162,21.15352 2.1026,5.86667 5.9961,16.73385 8.6523,24.1493 7.2021,20.10634 13.6351,50.37276 14.5632,68.51737 0.8772,17.15111 4.9854,33.71518 11.5069,46.39544 4.585,8.91485 7.9451,13.05313 15.8575,19.52962 7.6086,6.22792 11.7008,6.13842 22.8755,-0.50035 z M 875.64294,577 c -0.28071,-3.11667 -0.51039,-0.56667 -0.51039,5.66667 0,6.23333 0.22968,8.78333 0.51039,5.66666 0.28071,-3.11666 0.28071,-8.21666 0,-11.33333 z m 22.76703,-14.00704 c 0.40665,-16.13111 0.16398,-20.64385 -1.0478,-19.48554 -1.01838,0.97344 -1.83327,9.00265 -2.30045,22.66666 -0.60051,17.56374 -0.42247,20.87485 1.04779,19.48554 1.27869,-1.20828 1.91841,-7.51145 2.30046,-22.66666 z m -90.47621,3.61382 c 1.96595,-5.46706 6.92304,-17.74011 11.01576,-27.27345 10.81014,-25.18052 13.82433,-34.74199 9.93447,-31.5137 -5.97437,4.95829 -27.55066,57.65426 -27.55066,67.28724 0,5.12889 3.16527,1.05264 6.60043,-8.50009 z m 126.61638,-11.72237 c 4.24243,-7.92706 10.11036,-53.49478 7.12622,-55.33907 -1.56459,-0.96698 -3.04923,2.45621 -7.00786,16.15831 -1.5419,5.33701 -3.28753,9.40448 -3.87918,9.03882 -0.59165,-0.36566 -1.39626,-11.6323 -1.78803,-25.03699 -0.72087,-24.66531 -2.47141,-34.84528 -5.16448,-30.03313 -0.71995,1.28645 -1.86456,12.55123 -2.54357,25.03283 -1.15934,21.31115 -2.40807,27.96149 -5.2503,27.96149 -0.65812,0 -1.57744,-1.2 -2.04294,-2.66667 -0.4655,-1.46667 -2.00593,-2.66667 -3.42318,-2.66667 -3.22064,0 -3.31342,3.07779 -0.47205,15.65976 2.38093,10.54311 7.22917,17.531 15.01794,21.64575 6.15945,3.25399 7.79457,3.29658 9.42743,0.24557 z m -141.30783,-5.635 c 6.77643,-15.75223 15.24518,-56.20712 14.50431,-69.28652 l -0.41329,-7.29622 -2.30296,4.20839 C 797.39171,490.83381 784.16586,556 788.97152,556 c 0.75172,0 2.67357,-3.03777 4.27079,-6.75059 z M 890.63709,491 c -0.0679,-14.5406 -2.64702,-62.04156 -4.08913,-75.31144 -1.70082,-15.65042 -3.59975,-19.39269 -7.11672,-14.02511 -3.52027,5.37261 -7.41857,23.49239 -8.08672,37.58813 -0.68329,14.41512 -0.87456,14.78447 4.79107,-9.25158 1.55571,-6.6 3.19646,-12.6 3.64612,-13.33333 1.43097,-2.33376 2.72876,8.84676 2.80812,24.19206 0.12675,24.5104 3.99703,56.4746 6.83803,56.4746 0.68135,0 1.2255,-2.85 1.20923,-6.33333 z m 295.48961,-13.66667 0.7953,-4.66666 2.748,5.33333 2.748,5.33333 1.6895,-4.66666 c 2.5656,-7.08622 2.2098,-12.46815 -1.1544,-17.46026 -4.1244,-6.12023 -7.6198,-6.74112 -7.6198,-1.35354 0,2.22663 -1.2469,7.21192 -2.7709,11.07842 -2.9043,7.36829 -2.7264,14.92358 0.5247,22.28021 1.4069,3.18354 1.5551,2.87865 1.8857,-3.87817 0.1973,-4.03333 0.7166,-9.43333 1.1539,-12 z M 995.46765,466.80498 c -1.00494,-7.33188 -4.23241,-12.6418 -7.03113,-11.56783 -1.14474,0.43928 -3.76996,-0.68308 -6.01365,-2.57102 -2.1901,-1.84284 -4.54346,-3.00362 -5.2297,-2.57951 -1.53353,0.94778 5.46985,14.35048 11.01186,21.0739 3.39823,4.12264 4.40104,4.66301 6.07515,3.27362 1.49382,-1.23976 1.7966,-3.18508 1.18747,-7.62916 z m 218.73355,-5.81128 c -0.8987,-3.58063 -6.6502,-10.32703 -8.8042,-10.32703 -2.0261,0 -1.7124,4.85576 0.603,9.33327 3.7138,7.18176 9.9438,7.93665 8.2012,0.99376 z M 861.33333,445.92131 c 0,-4.60182 -0.50552,-7.09959 -1.33333,-6.58798 -2.34565,1.44969 -1.54881,14 0.88889,14 0.24444,0 0.44444,-3.33541 0.44444,-7.41202 z m -30.57924,-28.15124 c 1.53191,-4.02925 0.55785,-8.28201 -1.43947,-6.28469 -0.69554,0.69554 -1.65087,3.19587 -2.12295,5.55629 -1.06787,5.33934 1.6018,5.88521 3.56242,0.7284 z M 864.56444,413 c 0.33839,-1.65 0.95276,-5.12075 1.36527,-7.71277 0.48678,-3.0587 2.43147,-6.29875 5.54082,-9.23157 l 4.7908,-4.5188 -0.476,-10.10176 c -0.38248,-8.11698 -1.35219,-11.90982 -4.9354,-19.30403 -3.61651,-7.4629 -4.3033,-10.17848 -3.63351,-14.36706 0.60971,-3.81296 0.3291,-5.35544 -1.07211,-5.89313 -2.77078,-1.06325 -7.59685,-13.15902 -8.41566,-21.09251 -0.5482,-5.31155 -0.22142,-7.26284 1.44838,-8.64865 3.3453,-2.77635 2.63894,-6.67889 -1.49323,-8.24994 -2.00725,-0.76315 -8.59044,-1.73624 -14.62932,-2.16241 -14.05244,-0.99169 -20.26654,1.25171 -32.22327,11.63316 -22.1051,19.19279 -29.4655,27.9828 -23.43166,27.9828 3.06232,0 9.92714,-3.81755 15.66133,-8.70932 11.70291,-9.98361 29.01303,-16.5206 36.67457,-13.84977 4.98099,1.73638 5.48373,3.65876 4.61181,17.63466 -0.82967,13.29861 0.25896,14.715 7.46937,9.71818 9.31979,-6.45863 11.11343,-4.00813 5.67169,7.74877 -4.6865,10.12522 -11.21216,30.17808 -10.16229,31.22796 0.40316,0.40315 4.55158,-3.3578 9.21872,-8.35768 12.98484,-13.91058 14.18844,-10.30096 6.05432,18.15703 C 857.85726,411.49284 857.58142,416 861.30793,416 c 1.6679,0 2.868,-1.10556 3.25651,-3 z m -95.22676,-9.64778 c 3.82958,-8.88588 16.06465,-24.46286 42.22105,-53.75341 5.2573,-5.88724 10.22841,-11.9554 11.04691,-13.48478 3.46661,-6.47742 -5.55328,-1.46631 -21.05184,11.6956 -14.71994,12.50067 -30.97299,36.98216 -38.25559,57.62326 -3.25861,9.23588 1.93318,7.44725 6.03947,-2.08067 z m 136.71657,4.98111 c -1.37814,-5.60523 -4.49493,-9.66666 -7.41832,-9.66666 -1.993,0 -2.63593,0.90328 -2.63593,3.70332 0,5.20768 3.46874,9.63001 7.55348,9.63001 3.04123,0 3.30661,-0.3891 2.50077,-3.66667 z m -98.2845,-14.78793 c 20.70021,-32.33475 16.82839,-37.97936 -7.91312,-11.5363 C 791.94745,390.46222 784,400.93971 784,402.91363 c 0,1.95443 4.20239,-0.9254 13,-8.90871 4.58333,-4.1591 8.33333,-7.19454 8.33333,-6.74544 0,0.44911 -1.8,4.38234 -4,8.74052 -7.63065,15.11624 -3.9018,13.6942 6.43642,-2.4546 z m 27.24857,0.98867 c -0.36015,-1.37724 -1.18661,-2.17542 -1.83657,-1.77372 -1.39483,0.86205 -1.57497,5.06865 -0.27282,6.3708 1.3919,1.3919 2.84653,-1.77825 2.10939,-4.59708 z M 694.79819,357.63304 c 11.15757,-10.99945 13.90221,-14.96637 10.35496,-14.96637 -1.97479,0 -25.15315,23.17836 -25.15315,25.15315 0,3.3653 3.48434,0.96675 14.79819,-10.18678 z m 59.07312,-12.29971 c 1.99565,-3.66666 3.05316,-6.66666 2.35003,-6.66666 -1.89862,0 -9.55467,9.11844 -9.55467,11.37972 0,4.11406 3.72746,1.67566 7.20464,-4.71306 z m -20.66523,-5.66666 c 6.14631,-10.02206 11.84075,-17.79786 35.31486,-48.22265 4.31985,-5.59896 7.48575,-10.54844 7.03534,-10.99885 -0.45041,-0.45041 -4.06742,1.63371 -8.0378,4.63137 -8.48651,6.40738 -21.62624,22.41756 -30.47426,37.13153 -6.6391,11.04062 -13.86293,28.4586 -11.80275,28.4586 0.6702,0 4.25428,-4.95 7.96461,-11 z m -17.5049,-26.55596 c 1.57072,-3.17756 3.16948,-7.33782 3.55279,-9.24503 0.38332,-1.9072 5.28035,-10.0072 10.8823,-18 5.60195,-7.99279 10.46007,-15.43235 10.79581,-16.53235 1.3448,-4.406 -17.1516,16.77018 -25.30857,28.97532 -8.79551,13.16056 -17.2797,28.90208 -18.87723,35.02468 -1.27006,4.86758 15.28106,-12.7905 18.9549,-20.22262 z m 484.27642,9.59081 c 5.231,-8.15179 10.6231,-23.05871 10.6609,-29.47293 0.031,-5.24872 -5.446,-14.61384 -12.914,-22.08182 -6.1509,-6.15097 -13.075,-7.71569 -27.034,-6.10918 -6.2465,0.71888 -12.8572,1.35054 -14.6905,1.40368 -5.5637,0.16127 -12.7344,9.173 -16.0903,20.2214 -2.3496,7.73578 -2.7414,11.32095 -2.0134,18.42653 0.4971,4.85213 1.2064,9.12464 1.5763,9.49448 0.9634,0.9634 3.1486,-2.91194 2.3607,-4.18669 -0.3615,-0.58501 -0.04,-1.06366 0.7141,-1.06366 0.7543,0 1.3069,-1.95 1.228,-4.33333 -0.2904,-8.77241 2.9142,-19.25854 7.8032,-25.53378 4.5362,-5.82231 5.1132,-6.13289 11.3939,-6.13289 4.4716,0 7.8258,-0.86154 10.3489,-2.65819 3.2836,-2.33809 3.8302,-2.40524 4.5392,-0.55762 0.4433,1.15532 0.8061,3.25151 0.8061,4.6582 0,3.22884 0.6807,3.20393 5.4608,-0.19985 4.1087,-2.92563 4.6743,-2.19173 2.5722,3.33733 -1.5626,4.10999 -0.2309,4.34168 4.3308,0.75347 1.8646,-1.46667 3.625,-2.66667 3.9121,-2.66667 0.287,0 0.2775,2.09391 -0.021,4.65314 -0.3965,3.39628 0.036,4.8754 1.6011,5.47599 3.001,1.15161 2.8119,11.67121 -0.5184,28.82359 -3.1273,16.10721 -2.95,14.38061 -1.4763,14.38061 0.6569,0 3.1093,-2.98431 5.4499,-6.63181 z M 788.63081,301.89569 c 8.78029,-7.01968 17.61147,-13.73614 19.62486,-14.92548 3.56968,-2.10866 5.78202,-5.37697 4.50448,-6.65451 -2.18389,-2.18389 -16.65238,6.25576 -26.96481,15.7289 -6.24333,5.73522 -15.12867,16.03015 -15.12867,17.52873 0,2.31124 2.49697,0.68808 17.96414,-11.67764 z m -42.89098,-18.1714 c 9.37572,-6.36655 49.32316,-35.74741 54.0178,-39.72944 5.78363,-4.90572 0.27914,-7.05064 -8.58707,-3.3461 -5.81042,2.42775 -13.96502,8.83793 -33.50828,26.34026 -13.51733,12.10569 -23.13552,22.34432 -20.99031,22.34432 0.44423,0 4.52476,-2.52406 9.06786,-5.60904 z m 19.20858,-74.32734 c 7.2544,-3.63168 14.35871,-7.91142 15.78737,-9.51054 l 2.59755,-2.90748 L 780,197.90189 c -5.74147,1.58974 -24.48185,11.17823 -28.66667,14.66727 -6.52115,5.43692 -1.02309,4.15591 13.61508,-3.17221 z M 1133.519,172.09464 c 2.4224,-1.97937 2.7861,-2.94001 1.5786,-4.16904 -2.2652,-2.30561 -8.4309,-0.44494 -8.4309,2.54425 0,4.77279 2.325,5.32409 6.8523,1.62479 z M 1125,161.65448 c 3.9922,-2.60982 3.8528,-5.65448 -0.259,-5.65448 -4.0656,0 -10.881,5.61609 -9.5091,7.83585 1.105,1.78797 5.0406,0.90909 9.7681,-2.18137 z m -103.2573,-5.9337 c 3.986,-5.33875 2.172,-6.95686 -2.9786,-2.65697 -2.8566,2.38482 -4.1704,4.40613 -3.5335,5.4366 1.3732,2.22187 3.435,1.34179 6.5121,-2.77963 z M 894.66667,128.04691 c 0,-1.79926 -5.03233,-4.30042 -7.64134,-3.79789 -1.95952,0.37744 -1.94363,0.64226 0.16512,2.75098 2.48957,2.48954 7.47622,3.18783 7.47622,1.04691 z"
       id="path1" />
  </g>
</svg>
