<?xml version="1.0" encoding="UTF-8" standalone="no"?>
<!-- Created with Inkscape (http://www.inkscape.org/) -->

<svg
   version="1.1"
   id="svg1"
   width="661.86206"
   height="740.60956"
   viewBox="0 0 661.86206 740.60956"
   sodipodi:docname="41b.svg"
   inkscape:version="1.3.2 (091e20ef0f, 2023-11-25)"
   xmlns:inkscape="http://www.inkscape.org/namespaces/inkscape"
   xmlns:sodipodi="http://sodipodi.sourceforge.net/DTD/sodipodi-0.dtd"
   xmlns="http://www.w3.org/2000/svg"
   xmlns:svg="http://www.w3.org/2000/svg">
  <defs
     id="defs1" />
  <sodipodi:namedview
     id="namedview1"
     pagecolor="#ffffff"
     bordercolor="#000000"
     borderopacity="0.25"
     inkscape:showpageshadow="2"
     inkscape:pageopacity="0.0"
     inkscape:pagecheckerboard="0"
     inkscape:deskcolor="#d1d1d1"
     showgrid="false"
     inkscape:zoom="0.98901497"
     inkscape:cx="249.74344"
     inkscape:cy="405.95948"
     inkscape:window-width="1920"
     inkscape:window-height="1011"
     inkscape:window-x="0"
     inkscape:window-y="0"
     inkscape:window-maximized="1"
     inkscape:current-layer="layer1" />
  <g
     inkscape:groupmode="layer"
     id="layer1"
     inkscape:label="Layer 1"
     transform="translate(-24.439943,-30.625626)"
     style="fill:#803300">
    <path
       id="path1"
       style="fill:#000000"
       d="M 490.08838 30.80922 C 489.43574 29.753234 485.08855 33.271618 477.24268 41.207657 C 458.81034 59.851809 433.15093 75.781013 398.00049 90.399063 C 373.87962 100.43023 376.00049 100.51675 376.00049 89.502579 C 376.00049 84.363112 375.43215 79.806114 374.73877 79.377579 C 374.04539 78.949044 371.10407 82.095793 368.20166 86.369767 C 356.73039 103.26196 340.77801 114.53605 307.54541 129.23891 C 281.53757 140.74537 267.33438 148.14447 256.31494 155.92445 C 241.25194 166.55928 232.95285 181.56263 235.2251 194.05141 C 236.51089 201.11842 248.13175 212.0971 263.39697 220.66469 C 269.6626 224.18127 275.66277 228.30259 276.72901 229.82484 C 280.26302 234.87036 279.07069 240.37791 272.18408 250.82875 C 263.94875 263.32635 248.5066 281.33266 246.02393 281.33266 C 243.52051 281.33266 237.33252 278.48499 237.33252 277.33266 C 237.33252 276.83475 238.80027 275.75941 240.59424 274.94203 C 245.3596 272.77078 254.66651 264.01287 254.66651 261.69984 C 254.66651 260.14458 253.86701 259.95717 251.00049 260.84047 C 248.98383 261.4619 244.03383 261.977 240.00049 261.985 C 233.71221 261.99759 230.96676 261.06664 220.73486 255.4518 L 208.80127 248.90492 L 213.37354 245.4518 C 218.68662 241.44018 224.00049 236.03603 224.00049 234.6432 C 224.00049 234.11118 219.34983 233.37667 213.66651 233.01039 C 205.70148 232.49706 200.7853 231.23424 192.21533 227.50453 C 186.10035 224.84326 179.6497 222.66664 177.88135 222.66664 C 173.61106 222.66664 173.82731 221.28708 178.83447 216.58266 C 183.50997 212.18984 187.92689 203.61544 187.97119 198.84438 C 188.00475 195.228 187.19139 195.29908 174.00049 200.0475 C 164.92255 203.31536 146.09747 203.80384 122.00049 201.39906 C 99.230292 199.1267 92.253946 199.55712 84.711427 203.69789 C 81.069233 205.69743 76.269878 209.7851 74.045412 212.78188 L 70.00049 218.23109 L 54.686037 219.08266 C 40.817745 219.85474 38.867649 220.28666 34.020021 223.65883 C 26.940709 228.58341 23.479271 235.63408 24.672365 242.69594 C 25.332182 246.60136 27.919823 250.80453 34.31299 258.35024 C 39.120165 264.02403 43.763499 268.84044 44.631349 269.05336 C 45.499199 269.26628 47.821702 268.82767 49.791505 268.07875 C 53.06374 266.83465 53.300763 266.26975 52.543459 261.53383 C 51.834875 257.10259 52.165792 256.03409 54.820802 254.17445 C 61.165333 249.73057 76.209439 252.50157 84.611818 259.66078 C 86.982599 261.68079 90.061606 263.99757 91.455568 264.80922 C 93.457332 265.97477 90.559217 266.48871 77.662599 267.25844 L 61.332521 268.23305 L 61.332521 273.21156 C 61.332521 283.02216 77.864947 295.36589 98.043459 300.62172 C 102.36067 301.74621 107.16376 302.66664 108.71729 302.66664 C 113.08509 302.66664 123.01114 309.91901 127.83447 316.63539 C 138.26043 331.15328 146.24787 354.79205 152.62549 390.00063 C 156.89973 413.59714 159.65835 422.50282 166.87354 436.00063 C 178.97433 458.63819 197.5694 478.16839 227.33252 499.50063 C 238.57747 507.56027 265.06813 523.08707 278.17822 529.30336 L 287.68994 533.81313 L 290.57861 555.90688 C 292.16794 568.058 294.37094 583.01987 295.47315 589.15492 C 296.57539 595.28998 297.06601 602.18302 296.56299 604.47328 C 295.10345 611.1185 267.44359 670.52869 263.52002 675.44594 C 258.88174 681.25892 249.72783 683.99072 234.7583 684.02992 C 224.83127 684.05587 222.28381 684.5769 215.33252 688.00063 C 210.93253 690.16776 206.72023 691.95298 205.97119 691.96938 C 205.22215 691.98582 200.84683 695.44998 196.24854 699.66664 C 190.17372 705.23727 187.20597 709.16852 185.39307 714.04359 L 182.89893 720.75258 L 189.30713 734.04359 C 192.83229 741.35342 197.23019 748.74067 199.07861 750.45961 C 202.41205 753.55952 202.44971 753.56188 203.88526 750.87953 C 204.68127 749.39215 205.33252 744.71516 205.33252 740.48695 C 205.33252 731.88148 206.04079 732.08063 211.22901 742.13539 C 213.15917 745.87606 216.17321 750.2834 217.92627 751.93031 L 221.11377 754.92445 L 222.92432 751.46742 L 224.73486 748.01039 L 229.00049 756.40883 C 231.34668 761.02747 234.73113 766.18139 236.52002 767.86195 C 239.75194 770.89819 239.78109 770.90072 241.21924 768.21352 C 242.01527 766.72613 242.66651 762.04914 242.66651 757.82094 C 242.66651 749.43463 243.31121 749.53508 248.09424 758.66664 C 249.82275 761.96664 252.74686 766.34341 254.59229 768.3932 C 257.69736 771.84214 258.07455 771.94773 259.64111 769.80531 C 260.57216 768.53202 261.34281 764.15526 261.35401 760.07875 C 261.38417 749.13 262.85879 748.18126 267.03369 756.42641 C 271.45497 765.15813 276.54215 770.33954 278.16651 767.76625 C 278.77995 766.79443 279.6473 761.64318 280.09229 756.31703 C 281.11122 744.12147 283.8235 740.70914 293.40088 739.57484 C 300.24185 738.76463 308.00065 734.3509 317.67041 725.77211 C 320.42252 723.3305 323.20004 721.33266 323.84229 721.33266 C 325.24805 721.33266 328.64911 713.53793 327.67041 712.55922 C 326.72558 711.6144 331.75225 702.1363 351.29736 668.00063 C 365.10769 643.88082 372.02511 632.88511 374.19776 631.60024 C 375.18939 631.0138 376.00049 629.79124 376.00049 628.88344 C 376.00049 627.97565 379.07067 624.25496 382.82471 620.61586 C 386.57874 616.97676 390.77489 611.59997 392.14893 608.66664 C 395.3917 601.74385 400.36881 596.2381 408.83057 590.21547 C 413.86304 586.63363 416.41973 583.59501 418.53565 578.67641 C 420.11541 575.00414 422.15207 572.00063 423.06104 572.00063 C 423.97001 572.00063 426.13756 575.74933 427.8794 580.33266 C 452.3321 644.67555 472.56022 681.93145 495.49463 704.86586 C 508.44205 717.81328 509.87245 718.18201 522.54346 711.85024 C 532.30378 706.97294 533.79605 704.20623 532.65869 693.09047 C 532.22219 688.82437 532.28452 685.33266 532.79736 685.33266 C 533.31021 685.33266 537.00396 688.02756 541.0044 691.32094 L 548.27783 697.30922 L 556.14502 691.78969 C 560.47272 688.75398 566.11711 684.40973 568.68799 682.13539 L 573.36377 678.00063 L 566.75635 664.33266 C 563.12293 656.816 560.70553 650.66664 561.3833 650.66664 C 562.06107 650.66664 567.66619 653.0673 573.84033 656.00063 C 580.01448 658.93395 585.86026 661.33266 586.83057 661.33266 C 589.08087 661.33266 605.33252 645.29719 605.33252 643.0768 C 605.33252 640.19181 598.81609 626.52635 593.19971 617.63344 C 590.23105 612.9329 588.11026 608.77758 588.48682 608.40102 C 588.86339 608.02446 595.76483 610.7815 603.82276 614.52602 C 611.88067 618.27053 619.11336 621.33266 619.89502 621.33266 C 620.67667 621.33266 624.713 616.22709 628.86572 609.98695 C 637.61266 596.8433 637.63486 597.11785 626.72315 583.40492 C 611.73146 564.56461 580.05396 541.72026 528.66651 512.69008 C 483.14327 486.97276 475.41212 482.39041 469.33252 477.52602 C 464.55487 473.70333 445.39884 456.4567 413.54932 427.30336 C 412.10095 425.9776 412.56759 425.55174 416.02979 425.04359 C 419.76069 424.49602 422.49091 426.04009 437.86768 437.38149 C 459.61323 453.42027 467.55793 458.52561 482.36768 465.98305 C 513.18518 481.50121 541.50849 482.05111 569.95361 467.68422 C 574.37946 465.44885 580.09984 463.37337 582.66651 463.07094 C 594.92933 461.62601 614.66992 450.24 625.66651 438.27016 C 629.14983 434.47854 632.00049 430.91611 632.00049 430.35414 C 632.00049 429.33982 629.16962 428.78794 625.33252 429.05141 C 607.31001 430.28893 603.55869 430.27796 606.66651 429.00258 C 620.69818 423.24425 625.3958 420.15172 635.36377 410.11 C 646.58108 398.80971 655.32301 385.33266 651.43604 385.33266 C 650.30135 385.33266 644.41508 386.76279 638.35401 388.51039 C 632.29293 390.258 624.03383 392.04588 620.00049 392.48305 L 612.66651 393.27797 L 619.33252 391.47133 C 630.16233 388.53662 637.486 385.51389 644.19971 381.2057 C 652.59019 375.82155 666.42177 360.94501 671.08252 352.29359 C 675.51819 344.05998 674.96376 343.81065 661.54736 348.01625 C 650.28124 351.54782 649.30343 351.36621 655.46729 346.88734 C 667.62849 338.05058 683.66972 316.46869 680.46143 313.26039 C 679.7841 312.58306 674.90038 313.4785 668.92627 315.37563 C 655.74448 319.56162 654.23208 319.4976 660.00049 314.99281 C 673.10035 304.76259 682.7006 289.96095 685.93994 275.00063 C 687.13825 269.46648 685.59632 269.43969 677.71533 274.86195 C 671.82766 278.91278 656.1836 285.24761 651.92432 285.30531 C 650.67172 285.32228 652.66388 282.42745 656.94971 278.00258 C 660.85543 273.97014 666.93594 266.25075 670.46143 260.85024 C 676.79788 251.14377 683.72953 235.28435 682.27197 233.8268 C 681.85799 233.41281 677.45358 235.50927 672.48486 238.485 C 667.51615 241.46072 663.16827 243.61176 662.82276 243.26625 C 662.47725 242.92074 663.7041 240.99597 665.54932 238.98695 C 672.78983 231.10372 678.27918 220.41241 680.60596 209.66664 C 681.79499 204.17533 680.25878 204.1105 672.67432 209.32875 C 666.56744 213.5304 662.96469 215.19099 653.6626 218.10024 L 647.99268 219.87367 L 652.81104 214.93813 C 662.11137 205.40733 668.70692 193.52189 671.27393 181.66664 C 672.46129 176.18304 670.92397 176.11086 663.39111 181.29359 C 660.2258 183.47139 654.61967 186.44166 650.93213 187.89516 C 644.35083 190.48926 621.57559 195.35307 620.59619 194.37367 C 620.32192 194.0994 622.73394 188.79814 625.95557 182.59242 C 632.52723 169.93364 636.54341 156.8369 638.71143 141.00258 C 640.40147 128.65923 638.95682 124.93171 635.29151 132.18031 C 630.8111 141.04087 622.33563 150.8975 612.42627 158.77211 C 606.87963 163.17982 602.07308 166.51658 601.74463 166.18813 C 601.41618 165.85968 602.3693 163.19565 603.86377 160.26625 C 607.5301 153.07964 611.59958 138.00167 613.3794 125.00258 C 615.13653 112.1692 613.60703 108.9575 609.5376 116.93422 C 605.2255 125.38664 596.9612 135.00668 587.63916 142.42445 C 582.86329 146.22473 578.58206 149.33266 578.12549 149.33266 C 577.66891 149.33266 579.08779 145.78046 581.27979 141.43813 C 586.13619 131.81765 590.09063 117.9455 592.04541 103.66859 C 593.9523 89.74146 592.35032 88.13077 586.65283 98.244767 C 580.44479 109.26509 556.56342 131.67487 553.8833 128.99477 C 553.47876 128.59022 554.3693 125.86167 555.86377 122.93227 C 559.53011 115.74566 563.59958 100.66769 565.3794 87.668595 C 567.13653 74.835218 565.60703 71.623509 561.5376 79.600235 C 557.7764 86.9728 549.26727 97.440395 542.99658 102.40688 L 537.68408 106.61391 L 541.01221 97.639298 C 543.45327 91.058532 544.52008 85.023382 545.01221 75.000626 C 545.38129 67.483967 545.21151 61.332657 544.63526 61.332657 C 544.05901 61.332657 537.96334 67.294948 531.09033 74.580704 C 520.34471 85.971639 511.64965 93.332657 508.93994 93.332657 C 508.52962 93.332657 509.94376 89.883303 512.08252 85.666642 C 517.40858 75.166071 520.00049 64.052706 520.00049 51.719376 C 520.00049 46.006788 519.68154 41.332657 519.29151 41.332657 C 518.90148 41.332657 511.83414 48.233316 503.58643 56.666642 C 495.33871 65.099966 487.92072 72.000626 487.10205 72.000626 C 486.12676 72.000626 486.51549 69.12674 488.23096 63.666642 C 490.89146 55.198618 492.08762 34.044059 490.08838 30.80922 z M 334.29541 617.33266 C 337.78337 617.33266 306.54391 686.33163 299.73486 693.66664 C 291.32211 702.72923 287.42167 698.79476 293.45557 687.33266 C 305.06438 665.28033 333.03814 617.33266 334.29541 617.33266 z " />
    <path
       id="path2"
       style="fill:#808000"
       d="M 202.15674 702.68617 C 199.44404 702.67177 196.95955 704.10326 193.70752 707.55141 C 185.71151 716.02966 185.69537 717.28437 193.37549 733.00844 C 197.11636 740.66738 200.38055 746.72413 200.62744 746.46742 C 200.87433 746.21072 201.44291 739.70062 201.89307 732.00063 C 202.53623 720.99945 203.40888 716.58141 205.96338 711.37563 C 209.54233 704.08217 208.94638 702.72225 202.15674 702.68617 z M 221.15674 704.00063 C 215.80757 704.00063 208.47424 711.44828 207.21533 718.15883 C 206.46309 722.16864 207.33212 724.90657 212.80322 735.78578 L 219.27979 748.66664 L 220.23682 738.00063 C 220.76324 732.13396 220.88566 725.52564 220.5083 723.31703 C 220.08663 720.84907 220.88515 716.82436 222.57861 712.87367 C 226.17228 704.48999 226.09238 704.00063 221.15674 704.00063 z M 237.06494 706.58656 C 234.26538 706.61276 230.24734 707.58628 228.94971 709.02016 C 226.64978 711.56153 223.81829 722.04108 225.08838 723.31117 C 225.8932 724.11599 239.8298 709.43335 239.93799 707.66664 C 239.98516 706.89638 238.74468 706.57084 237.06494 706.58656 z M 278.63916 719.7643 C 278.20931 719.75189 277.76272 719.75403 277.30127 719.77211 C 272.58371 719.95696 270.85032 720.79158 267.81885 724.33266 C 261.30345 731.94336 261.44906 735.8314 268.80518 750.4518 L 275.2876 763.33266 L 276.06885 754.66664 C 276.49906 749.89998 277.60505 744.60311 278.52783 742.89516 C 279.45062 741.1872 281.96082 739.17743 284.10401 738.43031 C 287.59432 737.21358 288.00049 736.47538 288.00049 731.35024 C 288.00049 723.58841 285.08697 719.95037 278.63916 719.7643 z M 239.56494 720.02016 C 235.41419 719.99766 228.00049 726.32942 228.00049 729.89711 C 228.00049 731.05352 227.46396 732.00063 226.80908 732.00063 C 223.2781 732.00063 224.45682 737.54072 230.71338 750.35024 C 234.45175 758.00407 237.71258 764.05615 237.95947 763.79945 C 238.20637 763.54274 238.77689 757.03265 239.22705 749.33266 C 239.87022 738.33149 240.74286 733.91343 243.29736 728.70766 C 246.8678 721.43151 246.2769 720.05651 239.56494 720.02016 z M 258.49072 721.33266 C 253.14156 721.33266 245.80823 728.78031 244.54932 735.49086 C 243.79723 739.49982 244.66589 742.24287 250.13135 753.11977 L 256.60401 766.00063 L 257.54541 755.0182 C 258.06371 748.97778 258.84885 743.45198 259.28955 742.73891 C 259.73025 742.02585 259.42293 740.36652 258.60791 739.05336 C 257.45684 737.19873 257.74528 735.22878 259.89697 730.22328 C 263.50714 721.82495 263.42911 721.33266 258.49072 721.33266 z " />
    <path
       id="path3"
       style="display:inline;fill:#d38d5f"
       d="M 330.13916 594.75649 C 329.12221 594.67854 326.7443 594.84239 323.99072 595.20766 C 315.54433 596.32812 300.00049 603.40919 300.00049 606.13539 C 300.00049 607.24958 293.41765 622.55856 285.37158 640.15688 C 272.0908 669.20455 266.36788 679.71902 263.72705 679.92641 C 263.21038 679.96701 261.2269 681.56134 259.31885 683.46938 C 257.07744 685.71079 254.92184 686.69577 253.22705 686.25258 C 251.61056 685.82985 250.74429 686.17732 250.96924 687.15688 C 251.17 688.03113 250.86911 688.85097 250.30127 688.97914 C 249.73342 689.10731 245.67884 691.12509 241.29151 693.46352 C 236.90416 695.80194 231.51281 697.78686 229.31104 697.87563 C 224.48995 698.07001 224.04583 699.76165 228.24854 701.92445 C 231.51251 703.60417 232.7265 703.13669 242.00049 696.62367 C 246.19656 693.67683 261.78013 689.961 264.05322 691.36586 C 265.74243 692.40984 264.30427 694.83429 262.23291 694.43422 C 256.85187 693.3949 239.1453 700.20551 240.69776 702.71742 C 241.94598 704.7371 244.96455 704.21514 245.8833 701.82094 C 246.61983 699.90158 249.01542 699.72005 266.02588 700.28969 L 285.33252 700.93617 L 285.37549 696.80141 C 285.42719 691.80753 289.08365 684.57497 304.15283 659.65883 C 310.47044 649.21299 319.63493 633.83006 324.51807 625.47328 L 333.39697 610.27797 L 332.03174 602.89516 C 331.28098 598.83394 330.66651 595.2431 330.66651 594.91664 C 330.66651 594.83503 330.47814 594.78247 330.13916 594.75649 z M 368.44776 612.09242 C 361.79158 612.25123 353.37447 614.00162 346.33252 617.2682 C 341.00233 619.74075 337.33252 622.26765 337.33252 623.46742 C 337.33252 624.58162 330.74968 639.89255 322.70361 657.49086 C 309.29451 686.81919 303.69942 697.06354 300.98096 697.26039 C 300.42062 697.30099 298.21919 699.2833 296.08838 701.66664 L 292.21338 706.00063 L 272.43994 706.00063 C 261.56443 706.00063 251.91831 706.48328 251.0044 707.07484 C 250.09049 707.66642 248.04759 708.40061 246.46338 708.7057 C 243.72453 709.23316 237.33247 714.26863 237.33252 715.89906 C 237.33254 716.32123 240.09037 716.77296 243.45947 716.90297 C 248.39778 717.09353 250.97004 716.25295 256.72901 712.56899 C 263.22444 708.41391 264.75426 708.00396 273.60205 708.05141 C 283.31071 708.10351 283.32244 708.10801 278.84619 710.05141 C 276.37868 711.12271 272.29867 712.00063 269.77979 712.00063 C 267.2609 712.00063 263.281 713.01202 260.93408 714.24867 L 256.66651 716.49672 L 261.73096 717.72914 C 265.6553 718.68424 267.30744 718.51327 269.06494 716.97133 C 272.25874 714.16925 277.12252 712.83132 283.33252 713.04359 C 289.5617 713.25652 301.61162 710.08607 306.33252 706.99281 C 309.45352 704.94787 309.59908 704.97098 309.14502 707.41859 C 308.5207 710.78401 299.87937 714.94094 291.92041 715.7057 L 285.62549 716.31117 L 288.81299 721.00844 C 290.84001 723.99541 292.00049 727.619 292.00049 730.95961 C 292.00049 736.10577 292.08196 736.19349 296.01026 735.3307 C 298.21575 734.84629 303.63312 732.03754 308.04932 729.08852 C 318.62263 722.02793 324.23897 715.25325 324.61182 709.11195 C 324.772 706.47373 326.05007 702.48569 327.45166 700.24867 C 332.16544 692.72519 352.89069 658.13907 362.35596 642.00063 C 367.5172 633.20063 373.59823 624.23848 375.86963 622.08461 C 378.14102 619.93074 380.00049 617.40052 380.00049 616.46352 C 380.00049 613.36494 375.10393 611.93361 368.44776 612.09242 z M 245.84815 687.29555 C 244.99034 687.27506 243.51046 687.35373 241.33252 687.5143 C 230.43056 688.31806 222.49432 690.18746 213.96924 693.95766 C 209.77008 695.81473 205.35858 697.37843 204.16651 697.43422 C 202.97443 697.49002 203.90612 698.24131 206.23682 699.10219 C 208.56753 699.96306 210.89302 701.08976 211.40283 701.60805 C 211.91263 702.12633 214.21904 701.11124 216.52783 699.35024 C 218.83663 697.58923 223.53263 695.51795 226.96533 694.74867 C 230.39804 693.97938 235.18603 692.5077 237.60401 691.47719 C 240.02198 690.44668 243.49918 689.0108 245.33252 688.28774 C 246.98247 687.63699 247.27782 687.32969 245.84815 687.29555 z " />
    <path
       id="path4"
       style="fill:#803300"
       d="M 487.88916 35.332657 L 483.61182 40.135392 C 465.81586 60.112589 432.06276 81.102197 392.66651 96.690079 C 383.86651 100.17196 376.47198 103.18439 376.23486 103.38539 C 375.99776 103.58639 374.91632 108.15654 373.83057 113.54164 C 372.74483 118.92675 369.80635 127.70706 367.30127 133.05336 C 364.7962 138.39966 363.34507 142.40395 364.07666 141.9518 C 364.80825 141.49966 371.66647 140.022 379.3169 138.66859 C 390.88088 136.62285 396.27088 134.74444 411.27783 127.52797 C 450.08318 108.86742 470.11233 92.93228 480.10596 72.764298 C 485.28162 62.31937 487.98596 50.978253 487.91846 40.000626 L 487.88916 35.332657 z M 517.24854 47.332657 L 515.2583 50.000626 C 510.44392 56.451038 496.01582 69.988902 488.86963 74.762345 C 484.58156 77.626644 479.83369 81.626231 478.31885 83.651017 C 465.78785 100.40042 445.13476 115.51198 414.33252 130.46547 C 409.38253 132.86853 405.33252 135.09593 405.33252 135.41664 C 405.33252 136.97397 413.82531 135.67202 422.1001 132.84633 C 453.75753 122.0359 497.26779 101.6559 502.03565 95.404923 C 509.55541 85.546006 517.22512 62.649592 517.24463 50.000626 L 517.24854 47.332657 z M 542.15479 68.574845 C 541.89186 68.524658 541.41839 69.066257 540.68018 70.000626 C 535.57237 76.465665 524.05184 87.549665 517.05127 92.735001 C 505.99124 100.92718 472.48094 117.20067 443.33252 128.53578 L 418.00049 138.38734 L 413.6333 145.52602 C 403.35376 162.33633 397.98893 169.91479 391.06885 177.3893 C 382.99354 186.1116 383.67988 187.01995 394.94971 182.51625 C 398.82685 180.96684 414.89986 175.33339 430.66651 169.99672 C 463.71819 158.80942 479.43107 152.2774 494.18018 143.59242 C 524.44224 125.77266 538.53616 105.44475 541.96924 74.666642 C 542.44693 70.384117 542.593 68.65849 542.15479 68.574845 z M 372.34619 87.332657 L 368.33057 92.666642 C 362.67693 100.17607 354.03185 108.10004 344.48877 114.52016 C 336.40044 119.96159 327.48919 124.3732 294.24854 139.3893 C 263.38841 153.33001 248.39094 164.12436 242.45557 176.66664 C 237.86205 186.37338 237.50287 194.16233 241.42236 199.14516 C 245.38135 204.17819 258.06295 213.65163 268.56885 219.42641 C 278.36248 224.80966 282.65446 230.08348 282.6626 236.74477 C 282.6706 243.1478 271.04231 261.05624 256.03565 277.75258 L 250.0708 284.38734 L 253.35791 286.52797 C 255.16609 287.70455 262.00107 292.67527 268.54736 297.57484 L 280.44971 306.48305 L 286.95361 303.18813 C 290.53023 301.37571 296.8782 296.40342 301.06104 292.1393 C 305.24387 287.87516 310.73774 280.48033 313.27002 275.7057 L 317.87549 267.02406 L 312.43604 260.84633 C 305.4982 252.96454 298.15633 238.97199 295.44776 228.47328 C 292.40383 216.67468 292.69744 214.47246 298.0044 209.32875 L 302.67432 204.80141 L 298.83057 200.735 C 294.86939 196.54342 292.00049 191.83369 292.00049 189.52602 C 292.00049 188.80269 299.3492 184.47083 308.33252 179.89906 C 331.65347 168.03066 340.22233 162.28664 349.1626 152.52992 C 363.00061 137.42818 370.11546 120.5155 371.53955 99.332657 L 372.34619 87.332657 z M 561.03565 89.518204 C 560.43045 89.318226 558.87129 90.874404 556.08057 94.404923 C 553.19164 98.059694 547.3865 103.66364 543.18018 106.85805 C 538.97386 110.05245 534.28752 113.93949 532.76611 115.49477 C 531.24472 117.05006 526.14531 122.32343 521.43408 127.21352 C 503.70839 145.61215 482.48607 156.56397 430.66651 174.05727 C 417.09986 178.63711 404.20049 183.15229 402.00049 184.09047 L 398.00049 185.79555 L 402.66651 186.72328 C 405.23316 187.23271 407.4615 187.7283 407.61768 187.82484 C 407.77387 187.92134 410.77322 186.87494 414.28369 185.50063 C 417.79417 184.12632 434.76717 178.34912 452.00049 172.66078 C 490.31751 160.01317 515.07017 150.50004 532.73291 141.63539 L 546.13135 134.91078 L 550.99658 124.4557 C 555.64487 114.46584 561.33252 95.666595 561.33252 90.295548 C 561.33252 89.846549 561.23738 89.584864 561.03565 89.518204 z M 588.40479 103.33266 L 583.09229 110.00063 C 573.81651 121.64213 557.82249 133.1546 535.05908 144.57289 C 515.02752 154.62086 505.05106 158.50588 459.33252 174.07289 L 419.33252 187.69399 L 427.1919 188.69008 C 441.68533 190.5302 485.2072 186.98105 507.68799 182.12563 C 512.28275 181.13325 516.35044 180.82364 516.72901 181.43617 C 517.10757 182.04871 516.49882 184.74963 515.37549 187.43813 C 513.32545 192.34458 512.85035 194.66664 513.89502 194.66664 C 514.20362 194.66664 519.17301 192.67694 524.93994 190.24477 C 530.70688 187.81258 539.30625 183.2002 544.04736 179.99477 C 553.3368 173.71425 568.00049 159.28183 568.00049 156.42055 C 568.00049 155.45544 568.53246 154.66664 569.18408 154.66664 C 569.83569 154.66664 572.7772 150.01599 575.71924 144.33266 C 581.2108 133.72425 585.84396 119.93293 587.47901 109.33266 L 588.40479 103.33266 z M 608.67627 127.03383 C 607.94339 127.09752 606.4822 128.69438 604.22315 131.5475 C 598.87046 138.30779 591.75734 144.50651 580.80518 151.9557 C 577.21498 154.3976 568.51627 162.17858 561.47315 169.24672 C 553.25819 177.49087 545.33757 183.99149 539.3794 187.38149 L 530.09033 192.66664 L 542.04541 193.41469 C 548.62034 193.82611 558.76369 194.27611 564.58643 194.41469 L 575.17432 194.66664 L 582.11768 187.14516 C 592.79676 175.5786 602.24059 157.68666 606.60596 140.74867 C 609.09861 131.07698 609.89774 126.92768 608.67627 127.03383 z M 398.59815 141.37563 C 391.88385 141.46537 383.80868 141.95916 378.36768 142.80336 C 363.59114 145.09602 360.1497 146.87765 348.6626 158.17445 C 339.33812 167.34447 335.42942 169.99696 317.6626 179.22133 C 306.481 185.0267 297.33252 190.556 297.33252 191.50844 C 297.33252 192.46087 299.17106 195.33381 301.41651 197.89125 L 305.49854 202.53969 L 311.74854 198.69984 C 315.1864 196.58807 322.5005 193.36231 328.00049 191.52992 C 339.63205 187.65475 354.82122 185.33266 368.55127 185.33266 L 378.24463 185.33266 L 386.37744 176.86391 C 393.58807 169.35479 410.66651 145.10182 410.66651 142.37172 C 410.66651 141.60025 405.31245 141.28588 398.59815 141.37563 z M 634.01026 143.03383 C 633.27737 143.09752 631.81618 144.69438 629.55713 147.5475 C 623.93711 154.64544 616.90709 160.67736 604.55127 169.00258 C 600.08764 172.01014 595.33558 176.14927 593.99072 178.2018 C 592.64586 180.25433 588.86551 184.79803 585.59033 188.29945 L 579.63526 194.66664 L 597.06104 194.66664 L 614.48486 194.66664 L 617.2583 190.77211 C 622.09076 183.98555 629.11372 167.70707 631.93799 156.74867 C 634.43065 147.07698 635.23173 142.92768 634.01026 143.03383 z M 665.29541 185.61 C 664.14797 185.57601 661.69835 186.75767 657.80322 188.71742 C 640.01295 197.66822 636.88648 198.00063 570.24072 198.00063 C 511.86156 198.00063 510.44556 198.06157 509.0044 200.66664 C 508.19301 202.1333 503.98793 207.034 499.65869 211.55727 C 491.9081 219.65523 479.87355 227.13106 468.98682 230.61195 C 460.94148 233.18434 464.49075 234.65738 479.07861 234.79945 C 486.55199 234.87225 497.76716 235.37941 504.00049 235.92641 C 525.26101 237.79214 582.37316 237.46341 596.00049 235.39711 C 629.19352 230.36408 650.15583 218.2529 660.85596 197.92836 C 665.50409 189.09938 667.20781 185.66666 665.29541 185.61 z M 510.65674 185.78578 C 509.01031 185.89013 505.48553 186.45993 501.56885 187.28383 C 473.0376 193.28556 430.0527 194.64236 398.00049 190.55336 C 382.79264 188.61324 348.89799 189.75062 337.55713 192.5807 C 318.44528 197.35003 297.33252 210.74367 297.33252 218.10024 C 297.33252 223.45107 303.73556 241.72929 307.92041 248.3268 C 310.12761 251.80648 314.28332 257.20649 317.15674 260.3268 L 322.38135 266.00063 L 318.31299 274.32875 C 306.20274 299.11797 285.94351 312.6592 258.47705 314.32289 L 246.95361 315.02016 L 248.05713 318.86781 C 248.66409 320.98416 249.15657 323.02616 249.15088 323.40492 C 249.14488 323.78367 250.41356 326.72258 251.96924 329.93617 C 254.89684 335.98378 259.2612 339.70567 265.21729 341.23109 C 267.48049 341.81072 269.58245 343.97107 271.33252 347.5182 C 272.79918 350.49092 274.7267 352.6737 275.61572 352.36781 C 276.50476 352.06192 278.30477 352.46553 279.61572 353.2643 C 283.23644 355.47043 291.58798 353.71619 302.54346 348.44789 C 309.93504 344.8934 315.16845 340.96663 323.33838 332.84828 C 345.82664 310.50201 357.06216 282.26086 355.68604 251.53969 C 355.35247 244.09296 354.59933 236.889 354.01221 235.53188 C 352.98897 233.1667 353.7411 233.11271 372.13916 234.19984 C 440.93576 238.26503 477.10393 230.51877 498.88721 207.05531 C 504.65978 200.83749 512.89617 187.11895 511.62158 185.84438 C 511.54492 185.76771 511.20555 185.751 510.65674 185.78578 z M 182.90283 201.47524 C 182.61848 201.48162 182.21944 201.58267 181.6958 201.74672 C 163.95389 207.30487 157.87497 207.62972 118.48682 205.12758 C 97.660526 203.80459 92.914411 203.85086 89.162599 205.40492 C 84.535326 207.3216 74.666505 215.48265 74.666505 217.3932 C 74.666505 217.98903 87.417169 218.6885 103.00049 218.94789 C 126.27991 219.33537 132.52298 219.85543 138.00049 221.85609 C 145.74541 224.68494 148.55209 226.64824 147.02979 228.17055 C 146.43433 228.76601 142.45804 227.96793 138.19385 226.39711 C 129.72184 223.27625 128.06257 223.93944 128.02002 230.46547 C 127.98852 235.30137 123.92216 242.75903 120.45557 244.33852 C 114.45725 247.07152 106.11179 239.84871 102.20752 228.54555 L 100.40674 223.33266 L 89.86963 223.03383 C 79.658143 222.74306 79.436036 222.80147 82.666505 224.93813 C 89.914119 229.73177 102.3326 243.99357 107.01026 252.89516 C 113.49625 265.23803 116.08622 275.53982 116.16651 289.31117 L 116.23291 300.62172 L 123.91455 307.57289 C 138.92155 321.15344 148.03591 344.48956 156.62744 391.33266 C 158.51046 401.59932 161.02318 412.99998 162.21143 416.66664 C 171.33244 444.81179 194.72596 472.21802 231.33252 497.64125 C 244.53144 506.80789 273.27023 523.24979 281.33252 526.24672 C 284.63252 527.4734 288.83318 529.49556 290.66651 530.74086 C 293.69851 532.80035 321.49081 545.33266 323.02588 545.33266 C 323.38365 545.33266 323.36148 532.13394 322.97705 516.00063 C 322.34264 489.37828 322.48171 486.66664 324.47315 486.66664 C 326.39018 486.66664 326.66762 488.73063 326.67236 503.00063 C 326.67936 523.89573 328.79421 551.78551 332.10791 574.66664 C 333.54165 584.56663 335.03301 595.55158 335.42041 599.0768 C 335.80782 602.602 336.70028 607.00115 337.40479 608.85414 C 338.10929 610.70713 338.37264 612.73107 337.98877 613.35219 C 336.73616 615.37896 340.06242 616.27404 342.21338 614.48891 C 344.34252 612.72188 350.26698 610.29935 358.61377 607.77992 C 361.15113 607.01404 366.76858 606.64267 371.09619 606.9557 C 377.48403 607.41775 379.42429 608.13402 381.41455 610.76234 C 383.8432 613.96963 383.88575 613.97442 385.89111 611.33266 C 387.00446 609.866 387.9342 608.00324 387.95752 607.19203 C 388.04452 604.16683 397.28561 593.69872 403.7876 589.26039 C 407.4892 586.73364 411.13975 583.46729 411.89893 582.00063 C 413.51054 578.88713 416.39344 571.73082 416.55518 570.44399 C 416.61658 569.95511 417.01437 569.20745 417.43994 568.78188 C 417.86551 568.35631 417.32686 563.95673 416.24268 559.00453 C 413.94032 548.48801 413.23704 510.89948 415.33252 510.35024 C 416.12158 510.14341 416.79036 514.3542 416.96924 520.66664 C 417.38945 535.49497 419.84036 559.40718 421.34619 563.36781 C 422.10287 565.35804 423.65637 566.66664 425.26221 566.66664 C 427.36056 566.66664 428.38931 568.2903 430.11572 574.33266 C 437.65367 600.71504 461.86125 652.96059 477.56299 676.735 C 488.32464 693.02959 506.00531 712.00063 510.43018 712.00063 C 511.98515 712.00063 516.49717 710.56654 520.45752 708.81508 C 524.41789 707.06361 528.09471 704.92511 528.62744 704.06313 C 529.16017 703.20115 529.17048 697.69428 528.65088 691.82484 L 527.70557 681.15297 L 518.73486 670.24281 C 508.36753 657.63434 499.92341 645.85024 488.46729 628.00063 C 478.26098 612.09833 437.33252 542.52257 437.33252 541.07484 C 437.33252 540.48391 438.08382 540.00247 439.00049 540.00453 C 439.91715 540.00653 447.73274 552.15662 456.36963 567.00453 C 487.09413 619.82386 506.70768 650.17179 520.77979 666.66664 C 527.80022 674.89575 546.61752 691.96404 548.66651 691.96156 C 551.22438 691.95856 568.00049 678.66326 568.00049 676.6393 C 568.00049 671.35981 552.02577 643.58259 541.06104 629.79359 C 537.06965 624.77413 525.34544 609.56728 515.00635 596.00063 C 491.9356 565.72788 482.36287 554.1428 465.09619 535.60219 C 452.309 521.87154 449.82868 518.03007 455.8208 521.23695 C 460.6639 523.8289 488.98019 555.86978 506.37549 578.44203 C 515.70254 590.54487 530.56599 609.79647 539.40674 621.22328 L 555.48096 642.00063 L 571.01416 650.00063 L 586.54736 658.00063 L 593.93994 650.71156 C 598.0063 646.70329 601.33252 642.79239 601.33252 642.02016 C 601.33252 638.94658 590.69126 619.69308 584.01416 610.68617 C 578.55125 603.31711 574.15754 599.27467 564.79932 593.00649 C 558.12643 588.53697 547.22591 580.52042 540.57666 575.19203 C 512.20169 552.45369 462.52602 503.60596 465.1294 501.00258 C 466.10849 500.02349 471.38005 504.64847 482.63135 516.35805 C 511.00926 545.89185 545.27155 575.60354 568.66651 590.96547 C 579.04941 597.78323 616.15485 617.33266 618.71143 617.33266 C 619.67448 617.33266 632.00049 599.26409 632.00049 597.85219 C 632.00049 597.38653 629.33612 593.27187 626.08057 588.70961 C 612.08903 569.10222 582.45865 547.4839 524.39111 514.51625 C 465.00436 480.79962 472.32554 486.01518 430.10401 447.35805 L 403.91846 423.38344 L 392.29346 420.49281 C 358.46985 412.08689 329.64361 397.0138 299.79541 372.12367 C 286.41905 360.96925 280.5301 357.33266 275.83838 357.33266 C 272.18768 357.33266 268.00049 353.72478 268.00049 350.57875 C 268.00049 349.13858 265.78802 347.16725 262.25244 345.4557 C 251.11963 340.0664 243.01696 327.92287 243.21729 316.93031 L 243.33252 310.52797 L 257.74072 310.12367 C 265.6645 309.9012 272.75618 309.11017 273.50049 308.36586 C 275.32706 306.53929 251.93969 289.3475 238.27979 282.47524 C 232.5673 279.60129 228.21121 276.73534 228.6001 276.10609 C 228.989 275.47685 230.96322 274.54866 232.98682 274.04359 C 235.01041 273.53853 238.76585 271.82603 241.33252 270.23695 L 246.00049 267.34633 L 239.26026 266.5182 C 232.47081 265.6826 226.81099 263.39782 213.33252 256.05336 C 209.29919 253.85558 204.04983 252.04382 201.66651 252.02797 C 195.5459 251.98727 196.28684 249.8484 203.66651 246.25453 C 211.48188 242.44848 216.00049 239.62014 216.00049 238.53188 C 216.00049 238.07709 213.01511 237.35057 209.36768 236.91859 C 205.72025 236.48661 197.89261 234.00451 191.97119 231.40102 C 184.91744 228.29967 179.1568 226.66664 175.26807 226.66664 C 167.27397 226.66664 167.69501 222.86653 176.74463 213.33266 C 179.18093 210.766 181.82279 206.94292 182.61572 204.83656 C 183.57444 202.28985 183.7559 201.45609 182.90283 201.47524 z M 674.62549 213.61 C 673.47542 213.58062 671.02811 214.7598 667.13721 216.71742 C 662.19874 219.2021 654.17299 222.14106 649.30322 223.24867 C 644.43346 224.35627 636.59816 227.06563 631.89111 229.2682 C 621.98538 233.90341 607.40179 237.85833 592.47315 239.95961 C 579.47663 241.78894 531.17905 241.83654 505.33252 240.04555 C 480.89103 238.35192 475.11039 238.32219 476.73291 239.89516 C 479.32808 242.41107 547.6442 255.5654 570.00049 257.85414 C 572.93383 258.15444 585.83319 258.19766 598.66651 257.94984 C 616.52237 257.60501 624.57968 256.85907 632.99072 254.77211 C 650.27262 250.48411 662.10579 241.28855 670.24854 225.81899 C 674.85626 217.06524 676.54228 213.65898 674.62549 213.61 z M 359.33252 237.02992 L 359.7876 252.18227 C 360.0378 260.51561 360.35238 267.44833 360.48682 267.58852 C 361.44338 268.58605 395.08069 276.25508 405.33252 277.81313 C 425.52785 280.88235 464.2145 280.58425 484.16651 277.2057 C 493.24174 275.66896 500.95877 274.12713 501.31494 273.77992 C 502.43495 272.68812 489.15381 261.61129 476.79541 253.32875 C 456.55698 239.76505 455.93048 239.62612 413.33252 239.36586 C 393.16588 239.24265 372.76716 238.66739 368.00049 238.08656 L 359.33252 237.02992 z M 675.77588 241.99867 C 675.51607 241.73886 669.57792 244.33197 662.58057 247.76234 C 655.58322 251.19272 645.69068 255.73486 640.59619 257.85414 L 631.33252 261.7057 L 599.33252 261.84438 C 563.05597 262.00135 557.15939 261.29957 504.51221 250.55922 C 486.82731 246.95139 471.85519 244.00063 471.24072 244.00063 C 470.62626 244.00063 474.595 246.95212 480.06104 250.56117 C 485.52708 254.17023 494.1992 261.04926 499.33252 265.84633 C 506.96757 272.98124 508.30259 274.81242 506.66651 275.91469 C 504.08717 277.65246 493.83303 279.82264 474.66651 282.68617 C 464.39386 284.22094 460.43333 285.24825 462.66651 285.79945 C 480.28274 290.14748 539.56912 300.33936 556.00049 301.84438 C 570.27775 303.15208 600.71332 301.4189 611.33252 298.69399 C 632.42948 293.28044 649.13497 282.98969 660.68408 268.29164 C 666.42792 260.98174 676.75948 242.98227 675.77588 241.99867 z M 360.05127 272.00063 C 359.52301 272.00063 358.32383 275.44998 357.38526 279.66664 C 356.44669 283.8833 354.55048 290.20499 353.17236 293.71547 C 351.79425 297.22595 350.66651 300.71803 350.66651 301.47524 C 350.66651 303.56048 375.95888 315.0385 394.00049 321.14125 C 407.75386 325.79348 419.31426 328.71346 433.33252 331.07484 C 440.56903 332.29384 467.32733 331.91625 476.07666 330.47133 C 481.16792 329.63052 485.32955 328.57987 485.32471 328.13734 C 485.28691 324.67365 472.09824 309.64629 461.85596 301.39711 C 452.07941 293.52304 431.62689 284.00063 424.49463 284.00063 C 417.29925 284.00063 392.11039 279.73862 376.83838 275.93813 C 368.13334 273.77184 360.57953 272.00063 360.05127 272.00063 z M 679.89111 278.985 C 678.69498 278.9762 676.16806 280.19301 672.14502 282.19984 C 667.03244 284.75018 657.55708 287.94913 651.09033 289.30727 C 644.6236 290.66541 636.33317 293.24112 632.66651 295.03188 C 615.47784 303.42661 601.40418 306.02455 574.00049 305.86195 C 549.01782 305.71371 532.50583 303.59225 488.00049 294.81313 C 473.7005 291.99232 461.43416 290.01206 460.74268 290.41274 C 456.96324 292.60276 500.61964 305.34308 534.00049 311.79164 C 551.96959 315.26294 579.37957 319.50746 598.66651 321.80336 C 601.23317 322.1089 611.73384 322.27682 622.00049 322.17836 L 640.66651 322.00063 L 649.67041 316.93227 C 660.99503 310.55871 670.15022 301.46951 675.52393 291.26234 C 680.17897 282.42024 681.88467 278.99968 679.89111 278.985 z M 464.66651 297.8893 L 474.10596 307.31899 C 484.12625 317.32973 491.82035 328.73678 489.84424 330.65102 C 488.17292 332.27001 469.21214 335.99136 462.38916 336.03969 C 458.57913 336.06669 457.335 336.45634 458.66651 337.20375 C 462.16585 339.16802 512.14248 353.09047 526.00049 355.96156 C 558.25688 362.64441 591.59864 363.97935 614.66651 359.51234 C 635.01915 355.57113 652.09046 346.95872 663.84229 334.7018 C 671.29177 326.93213 677.7083 316.39122 674.16065 317.75258 C 661.00641 322.80033 637.7548 326.66664 620.54346 326.66664 C 588.20773 326.66664 522.33822 315.17719 477.33252 301.68617 L 464.66651 297.8893 z M 347.43213 307.47914 C 347.18359 307.4922 347.03603 307.55611 346.99658 307.67445 C 345.83825 311.14944 335.39562 326.35718 331.08838 330.84047 L 326.43799 335.67836 L 337.55322 343.04359 C 364.383 360.82046 391.50772 371.37786 418.66651 374.61586 C 430.776 376.05961 454.66651 376.23093 454.66651 374.87367 C 454.66651 371.92579 443.41085 357.03973 434.91455 348.75063 C 421.82349 335.97881 416.77833 332.91136 399.59424 327.27992 C 391.3841 324.58936 376.30474 318.7367 366.08447 314.27406 C 355.92027 309.8359 349.17194 307.38776 347.43213 307.47914 z M 441.47315 338.29555 C 441.05393 338.34005 440.80266 338.44733 440.69971 338.61391 C 438.72004 341.81707 534.30974 379.43984 560.00049 385.56899 C 582.43166 390.92047 603.55793 391.4691 620.5708 387.14516 C 636.89834 382.99539 651.32108 373.47539 661.5044 360.12172 C 665.08856 355.42171 667.82679 351.38161 667.59033 351.14516 C 667.0644 350.61922 647.60487 355.01677 631.33252 359.33852 C 611.33627 364.64928 602.87491 365.75835 582.00049 365.80531 C 551.7949 365.87321 528.67802 361.81786 480.89893 348.06703 C 455.52534 340.76451 444.40765 337.98401 441.47315 338.29555 z M 324.01807 338.67055 L 317.79346 343.4225 C 311.17203 348.47676 300.99199 354.00151 293.55908 356.57484 L 289.03955 358.1393 L 302.64502 369.40297 C 325.40492 388.24677 344.22324 399.55581 368.28955 408.85024 C 386.75043 415.97983 412.00049 421.9855 412.00049 419.24672 C 412.00049 417.24602 402.42592 398.11982 398.57861 392.43422 C 388.82952 378.02686 380.97062 369.41983 376.1294 367.85024 C 367.63682 365.09682 347.65899 354.55423 335.67627 346.50258 L 324.01807 338.67055 z M 436.22119 343.33461 C 435.89457 343.66123 439.19322 347.74029 443.55127 352.39906 C 451.87146 361.29337 457.88181 370.40895 459.39111 376.4225 L 460.28955 380.00063 L 449.81104 380.02992 C 439.60636 380.05882 439.41158 380.1192 442.33252 382.36781 C 448.57559 387.1738 477.25423 402.76435 491.65869 409.18227 C 515.43516 419.77587 542.83095 427.8085 562.00049 429.80727 C 570.78204 430.72291 590.79317 429.29167 599.23877 427.14516 C 615.5663 422.99539 629.98709 413.47539 640.17041 400.12172 C 643.75458 395.42171 646.48194 391.37076 646.23096 391.11977 C 645.97997 390.86879 641.02575 391.90699 635.22119 393.42836 C 621.49261 397.02662 600.80616 398.148 586.56104 396.06508 C 563.67252 392.71833 514.95024 376.03959 461.40674 353.22133 C 447.88085 347.45709 436.54782 343.00798 436.22119 343.33461 z M 389.58643 372.78774 C 389.42163 372.78919 389.33252 372.81257 389.33252 372.86195 C 389.33252 373.04354 392.36219 377.19454 396.06494 382.08656 C 399.7677 386.97859 405.41112 396.16073 408.60401 402.49086 C 415.13223 415.43357 416.22845 416.58868 436.66651 432.0475 C 462.56462 451.63615 484.26619 464.43696 500.71338 469.82484 C 517.64385 475.37106 537.3232 475.4261 554.37354 469.97328 C 563.62514 467.01457 584.89669 456.43501 583.77979 455.34828 C 583.53375 455.10888 577.36047 454.20278 570.06104 453.33461 C 533.08713 448.93707 488.54758 428.81419 436.00049 392.7682 C 426.83383 386.4801 417.53252 380.48739 415.33252 379.44984 C 411.93863 377.84924 392.05841 372.76588 389.58643 372.78774 z M 427.55322 380.27602 C 425.40053 380.59748 430.08656 384.29315 446.00049 394.82484 C 471.85628 411.93598 483.5459 418.70799 505.33252 429.19399 C 533.38307 442.69484 555.06837 448.84418 579.66651 450.27406 C 587.18317 450.711 593.33252 451.45804 593.33252 451.93422 C 593.33252 452.41039 592.61291 453.51906 591.73291 454.39906 C 589.58438 456.54759 590.78456 456.41478 596.17041 453.90492 C 605.46163 449.57514 609.26703 447.17282 615.87354 441.46352 C 622.88458 435.40461 624.51078 432.56808 620.18799 433.94008 C 612.85928 436.26613 560.562 434.04128 544.20361 430.70766 C 516.42372 425.04647 480.14854 409.83143 447.55322 390.16859 C 436.96936 383.78397 429.33787 380.00952 427.55322 380.27602 z M 292.55322 537.05141 C 292.19776 537.02489 292.00049 537.08042 292.00049 537.22914 C 292.00049 540.25719 300.23571 596.63568 300.81494 597.57289 C 301.75633 599.09609 303.19575 598.93819 305.02393 597.11 C 307.0417 595.09223 314.9181 592.12106 323.35986 590.19399 L 330.05127 588.66664 L 327.35986 569.49672 L 324.66651 550.3268 L 315.33252 546.30531 C 310.1992 544.09338 302.85049 540.90293 299.00049 539.21547 C 296.11299 537.94988 293.61963 537.13095 292.55322 537.05141 z " />
    <path
       style="fill:#ffb380"
       d="m 111.70753,285.66667 c -0.40321,-8.6984 -1.55681,-15.62988 -3.48631,-20.94782 -5.31894,-14.65966 -16.533418,-28.707 -30.221222,-37.85535 l -6.666667,-4.45571 -14.901366,0.61576 c -17.035812,0.70397 -22.116651,2.71939 -26.297715,10.43152 -3.856343,7.11317 -2.203482,12.2632 7.344011,22.88267 4.452505,4.95242 8.641375,8.66701 9.3086,8.25464 0.667226,-0.41237 1.213138,-2.48089 1.213138,-4.59672 0,-9.78298 11.350499,-14.32509 25.471357,-10.19284 13.823656,4.04528 30.342654,18.61768 30.452334,26.86385 0.0815,6.12428 -1.62527,6.7151 -12.19801,4.22257 -10.329676,-2.43522 -21.852589,-3.21965 -23.444428,-1.59599 -0.521356,0.53178 1.152079,2.73324 3.718746,4.89214 8.704401,7.32151 25.586799,14.09019 35.821742,14.36205 l 4.48841,0.11923 z"
       id="path5" />
    <path
       style="fill:#ff0000"
       d="m 99.999997,276.16326 c 0,-4.2779 -2.80505,-4.8626 -19.999999,-4.16894 -17.280492,0.69711 -20.482342,2.17011 -5.333333,2.45358 4.766666,0.0892 11.666666,1.02126 15.333332,2.07125 9.016669,2.58202 10,2.54702 10,-0.35589 z"
       id="path6" />
    <path
       style="fill:#ffcc00"
       d="M 119.46706,240.31292 C 122.06126,238.58072 124,233.63712 124,228.75432 124,224.88889 123.50142,224 121.33333,224 c -1.53124,0 -2.66667,0.88889 -2.66667,2.08766 0,1.14821 -0.64775,3.29798 -1.43944,4.77728 -1.3466,2.51615 -1.59687,2.54716 -3.88009,0.48088 -1.34235,-1.21481 -2.80603,-3.66459 -3.25262,-5.44395 -0.78246,-3.11758 -4.76118,-4.6711 -4.76118,-1.85905 0,2.73297 4.18917,11.32001 6.96272,14.27232 2.96264,3.15358 4.71069,3.64057 7.17101,1.99778 z"
       id="path7" />
  </g>
</svg>
