<?xml version="1.0" encoding="UTF-8"?>
<!DOCTYPE svg PUBLIC "-//W3C//DTD SVG 1.1//EN" "http://www.w3.org/Graphics/SVG/1.1/DTD/svg11.dtd">
<svg xmlns="http://www.w3.org/2000/svg" version="1.1" width="500px" height="500px" style="shape-rendering:geometricPrecision; text-rendering:geometricPrecision; image-rendering:optimizeQuality; fill-rule:evenodd; clip-rule:evenodd" xmlns:xlink="http://www.w3.org/1999/xlink">
<g><path style="opacity:0.96" fill="#040402" d="M 416.5,499.5 C 414.167,499.5 411.833,499.5 409.5,499.5C 400.165,485.324 388.831,472.824 375.5,462C 369.355,457.356 363.355,452.523 357.5,447.5C 306.388,459.103 254.388,463.936 201.5,462C 188.566,460.096 175.566,458.93 162.5,458.5C 143.267,456.687 124.267,452.853 105.5,447C 94.7499,441.626 83.7499,436.792 72.5,432.5C 69.8745,434.227 67.2078,434.561 64.5,433.5C 41.0739,432.977 19.4072,438.644 -0.5,450.5C -0.5,448.5 -0.5,446.5 -0.5,444.5C 20.2144,432.739 42.5478,427.406 66.5,428.5C 56.4596,415.225 50.6263,400.225 49,383.5C 47.1602,359.572 48.8269,335.905 54,312.5C 56.8248,301.534 59.4915,290.534 62,279.5C 74.5995,246.034 86.5995,212.367 98,178.5C 101.574,170.347 105.907,162.68 111,155.5C 116.946,141.664 123.28,127.997 130,114.5C 136.281,105.218 142.948,96.2183 150,87.5C 159.824,79.342 169.324,70.842 178.5,62C 184.722,57.7233 187.555,59.2233 187,66.5C 174.115,93.4791 169.115,121.812 172,151.5C 172.414,151.957 172.914,152.291 173.5,152.5C 185.769,145.216 199.102,141.883 213.5,142.5C 227.901,142.079 240.901,146.079 252.5,154.5C 260.707,128.909 274.374,106.743 293.5,88C 304.76,79.7277 316.26,71.8944 328,64.5C 329.833,65 331,66.1667 331.5,68C 321.477,94.9472 316.81,122.781 317.5,151.5C 343.238,151.45 363.405,161.783 378,182.5C 381.382,188.597 384.216,194.93 386.5,201.5C 396.66,205.295 406.327,210.128 415.5,216C 428.207,228.589 438.04,243.089 445,259.5C 448.831,269.159 446.498,276.825 438,282.5C 436.519,291.841 431.019,297.008 421.5,298C 418.694,302.306 415.694,306.473 412.5,310.5C 407.63,313.43 402.964,316.596 398.5,320C 410.592,334.355 418.259,350.855 421.5,369.5C 427.731,370.475 430.398,374.142 429.5,380.5C 429.545,386.202 427.545,391.035 423.5,395C 419.912,397.377 416.412,399.877 413,402.5C 416.037,414.263 411.87,422.096 400.5,426C 394.71,428.281 388.71,429.614 382.5,430C 380.787,431.378 379.453,433.045 378.5,435C 373.038,437.792 368.038,441.292 363.5,445.5C 379.033,456.527 393.199,469.193 406,483.5C 410.116,488.445 413.616,493.779 416.5,499.5 Z"/></g>
<g><path style="opacity:1" fill="#444444" d="M 168.5,155.5 C 168.64,157.124 167.973,158.29 166.5,159C 156.152,161.388 146.486,165.221 137.5,170.5C 140.826,143.017 149.326,117.017 163,92.5C 166.262,86.9671 169.762,81.6338 173.5,76.5C 174.387,74.2648 175.387,73.7648 176.5,75C 166.66,98.5395 162.827,123.04 165,148.5C 165.959,150.953 167.126,153.286 168.5,155.5 Z"/></g>
<g><path style="opacity:1" fill="#242424" d="M 173.5,76.5 C 169.762,81.6338 166.262,86.9671 163,92.5C 149.326,117.017 140.826,143.017 137.5,170.5C 146.486,165.221 156.152,161.388 166.5,159C 167.973,158.29 168.64,157.124 168.5,155.5C 169.421,156.981 170.588,158.314 172,159.5C 177.698,155.568 183.865,152.568 190.5,150.5C 190.5,151.5 190.5,152.5 190.5,153.5C 191.552,153.351 192.552,153.517 193.5,154C 191.508,154.574 190.008,155.741 189,157.5C 186.337,170.614 187.171,183.447 191.5,196C 165.535,229.551 152.035,267.718 151,310.5C 151.949,322.866 156.116,333.866 163.5,343.5C 159.86,344.15 156.527,345.65 153.5,348C 140.268,359.629 132.101,374.129 129,391.5C 127.452,400.473 126.285,409.473 125.5,418.5C 127.647,420.737 129.98,422.737 132.5,424.5C 142.136,428.266 151.803,431.6 161.5,434.5C 167.177,441.859 173.844,448.859 181.5,455.5C 143.516,453.753 107.183,445.253 72.5,430C 57.8776,409.957 51.211,387.457 52.5,362.5C 52.4164,352.753 53.2497,343.086 55,333.5C 60.2993,314.305 65.2993,294.972 70,275.5C 72.8936,266.145 76.5603,257.145 81,248.5C 88.282,217.936 98.9487,188.603 113,160.5C 119.521,152.134 124.521,142.8 128,132.5C 138.252,109.757 153.418,91.0906 173.5,76.5 Z"/></g>
<g><path style="opacity:1" fill="#242424" d="M 319.5,82.5 C 319.565,82.0618 319.399,81.7284 319,81.5C 310.832,89.8358 305.832,99.8358 304,111.5C 302.176,120.245 301.01,129.079 300.5,138C 300.622,144.033 301.622,149.867 303.5,155.5C 291.373,158.61 280.206,163.943 270,171.5C 266.126,168.132 262.46,164.465 259,160.5C 266.009,133.668 279.843,110.835 300.5,92C 307.064,86.4689 313.898,81.3022 321,76.5C 321.121,78.6843 320.621,80.6843 319.5,82.5 Z"/></g>
<g><path style="opacity:1" fill="#444444" d="M 319.5,82.5 C 312.737,104.346 310.237,126.679 312,149.5C 313.368,150.993 313.535,152.493 312.5,154C 309.568,154.953 306.568,155.453 303.5,155.5C 301.622,149.867 300.622,144.033 300.5,138C 301.01,129.079 302.176,120.245 304,111.5C 305.832,99.8358 310.832,89.8358 319,81.5C 319.399,81.7284 319.565,82.0618 319.5,82.5 Z"/></g>
<g><path style="opacity:1" fill="#444444" d="M 284.5,220.5 C 290.68,229.528 296.347,238.862 301.5,248.5C 290.126,244.882 278.46,242.882 266.5,242.5C 248.524,243.33 230.857,246.163 213.5,251C 206.076,254.288 199.909,259.121 195,265.5C 193.748,268.014 193.248,270.68 193.5,273.5C 191.974,274.492 191.307,275.992 191.5,278C 192.342,283.851 194.676,289.017 198.5,293.5C 197.757,294.182 197.091,294.849 196.5,295.5C 196.557,296.609 196.89,297.609 197.5,298.5C 197.393,300.903 198.393,302.736 200.5,304C 209.952,309.928 220.285,313.261 231.5,314C 243.419,314.816 255.252,315.983 267,317.5C 279.313,317.404 291.146,315.071 302.5,310.5C 309.139,316.795 316.806,321.462 325.5,324.5C 329.36,338.948 333.36,353.281 337.5,367.5C 325.411,363.715 313.077,360.881 300.5,359C 266.57,354.946 232.57,351.612 198.5,349C 186.746,347.573 175.08,345.74 163.5,343.5C 156.116,333.866 151.949,322.866 151,310.5C 152.035,267.718 165.535,229.551 191.5,196C 187.171,183.447 186.337,170.614 189,157.5C 190.008,155.741 191.508,154.574 193.5,154C 192.552,153.517 191.552,153.351 190.5,153.5C 190.5,152.5 190.5,151.5 190.5,150.5C 223.906,142.469 250.072,152.802 269,181.5C 276.072,191.051 279.739,201.717 280,213.5C 270.011,211.218 259.845,210.218 249.5,210.5C 234.658,210.398 219.991,211.898 205.5,215C 201.24,216.132 197.24,217.799 193.5,220C 219.614,215.329 245.947,214.329 272.5,217C 276.826,217.278 280.826,218.445 284.5,220.5 Z"/></g>
<g><path style="opacity:1" fill="#444444" d="M 345.5,249.5 C 335.589,235.918 324.923,222.918 313.5,210.5C 331.06,208.72 348.726,207.554 366.5,207C 364.715,205.837 362.715,205.17 360.5,205C 343.475,202.963 326.475,203.129 309.5,205.5C 305.678,199.194 301.845,192.861 298,186.5C 294.53,179.894 291.363,173.227 288.5,166.5C 319.745,150.715 347.245,155.715 371,181.5C 375.642,189.952 380.142,198.452 384.5,207C 395.072,211.286 405.072,216.619 414.5,223C 424.876,232.943 432.876,244.443 438.5,257.5C 437.448,257.649 436.448,257.483 435.5,257C 432.113,253.947 428.447,251.28 424.5,249C 398.146,240.5 371.813,240.666 345.5,249.5 Z"/></g>
<g><path style="opacity:1" fill="#242424" d="M 288.5,166.5 C 291.363,173.227 294.53,179.894 298,186.5C 301.845,192.861 305.678,199.194 309.5,205.5C 300.634,207.176 292.468,210.509 285,215.5C 284.886,200.492 280.386,186.992 271.5,175C 276.631,171.101 282.298,168.268 288.5,166.5 Z"/></g>
<g><path style="opacity:1" fill="#242424" d="M 313.5,210.5 C 324.923,222.918 335.589,235.918 345.5,249.5C 336.242,252.545 327.409,256.545 319,261.5C 316.2,257.422 313.033,253.589 309.5,250C 306.889,248.273 304.223,247.773 301.5,248.5C 296.347,238.862 290.68,229.528 284.5,220.5C 293.336,214.926 303.003,211.592 313.5,210.5 Z"/></g>
<g><path style="opacity:1" fill="#f8f8f8" d="M 423.5,254.5 C 425.858,257.723 427.358,261.39 428,265.5C 428.641,271.528 428.474,277.528 427.5,283.5C 401.424,292.339 374.757,295.006 347.5,291.5C 345.357,283.592 343.523,275.592 342,267.5C 341.081,263.269 341.581,259.269 343.5,255.5C 345.993,254.226 348.659,253.56 351.5,253.5C 347.543,285.387 360.876,296.887 391.5,288C 397.779,283.945 400.779,278.111 400.5,270.5C 400.194,262.081 397.527,254.581 392.5,248C 403.402,247.476 413.735,249.642 423.5,254.5 Z"/></g>
<g><path style="opacity:1" fill="#fafafa" d="M 294.5,251.5 C 295.572,253.882 296.738,256.216 298,258.5C 299.701,268.154 300.201,277.821 299.5,287.5C 291.772,289.602 283.772,290.602 275.5,290.5C 270.968,290.818 266.634,290.485 262.5,289.5C 271.609,282.018 275.109,272.351 273,260.5C 272.254,255.838 270.087,252.005 266.5,249C 270.833,248.333 275.167,248.333 279.5,249C 284.457,250.158 289.457,250.992 294.5,251.5 Z"/></g>
<g><path style="opacity:1" fill="#e9e9e9" d="M 234.5,250.5 C 240.957,252.438 241.124,255.104 235,258.5C 230.579,256.137 230.412,253.471 234.5,250.5 Z"/></g>
<g><path style="opacity:1" fill="#cccccc" d="M 294.5,251.5 C 303.877,251.391 310.044,255.725 313,264.5C 313.936,271.297 313.436,277.964 311.5,284.5C 307.698,286.323 303.698,287.323 299.5,287.5C 300.201,277.821 299.701,268.154 298,258.5C 296.738,256.216 295.572,253.882 294.5,251.5 Z"/></g>
<g><path style="opacity:1" fill="#e3e3e3" d="M 359.5,252.5 C 363.677,251.842 365.177,253.508 364,257.5C 361.045,260.44 358.878,259.94 357.5,256C 357.978,254.697 358.645,253.531 359.5,252.5 Z"/></g>
<g><path style="opacity:1" fill="#f2f2f2" d="M 216.5,285.5 C 215.411,278.883 215.244,272.217 216,265.5C 218.22,262.46 219.72,259.127 220.5,255.5C 221.708,254.218 223.042,254.218 224.5,255.5C 220.721,267.892 223.054,279.058 231.5,289C 226.285,288.612 221.285,287.446 216.5,285.5 Z"/></g>
<g><path style="opacity:1" fill="#cacaca" d="M 220.5,255.5 C 219.72,259.127 218.22,262.46 216,265.5C 215.244,272.217 215.411,278.883 216.5,285.5C 193.255,277.951 192.589,268.451 214.5,257C 216.436,256.187 218.436,255.687 220.5,255.5 Z"/></g>
<g><path style="opacity:1" fill="#c9c9c9" d="M 343.5,255.5 C 341.581,259.269 341.081,263.269 342,267.5C 343.523,275.592 345.357,283.592 347.5,291.5C 337.047,289.304 326.714,286.637 316.5,283.5C 317.609,281.615 318.443,279.615 319,277.5C 319.172,273.129 319.672,268.796 320.5,264.5C 327.954,260.905 335.62,257.905 343.5,255.5 Z"/></g>
<g><path style="opacity:1" fill="#cacaca" d="M 423.5,254.5 C 428.797,256.815 433.797,259.648 438.5,263C 441.888,269.092 440.555,273.926 434.5,277.5C 433.199,280.658 430.866,282.658 427.5,283.5C 428.474,277.528 428.641,271.528 428,265.5C 427.358,261.39 425.858,257.723 423.5,254.5 Z"/></g>
<g><path style="opacity:1" fill="#242424" d="M 193.5,273.5 C 194.022,276.253 194.856,278.92 196,281.5C 205.473,289.107 216.306,293.607 228.5,295C 235.669,295.675 242.669,296.509 249.5,297.5C 248.761,297.369 248.094,297.536 247.5,298C 249.494,300.158 250.828,302.658 251.5,305.5C 232.957,303.191 214.624,299.858 196.5,295.5C 197.091,294.849 197.757,294.182 198.5,293.5C 194.676,289.017 192.342,283.851 191.5,278C 191.307,275.992 191.974,274.492 193.5,273.5 Z"/></g>
<g><path style="opacity:1" fill="#434343" d="M 364.5,316.5 C 361.91,310.469 360.91,304.136 361.5,297.5C 377.613,297.284 393.613,295.784 409.5,293C 417.278,291.296 424.778,288.796 432,285.5C 432.494,287.134 432.66,288.801 432.5,290.5C 428.174,291.661 423.841,292.828 419.5,294C 417.87,297.559 415.87,300.892 413.5,304C 409.796,306.852 405.796,309.185 401.5,311C 389.31,313.813 376.977,315.646 364.5,316.5 Z"/></g>
<g><path style="opacity:1" fill="#242424" d="M 361.5,297.5 C 360.91,304.136 361.91,310.469 364.5,316.5C 350.389,317.961 336.389,317.294 322.5,314.5C 322.323,316.981 323.323,318.814 325.5,320C 344.854,325.827 364.187,325.827 383.5,320C 386.227,319.182 388.894,319.348 391.5,320.5C 397.362,327.055 402.362,334.222 406.5,342C 382.589,349.124 359.589,357.624 337.5,367.5C 333.36,353.281 329.36,338.948 325.5,324.5C 316.806,321.462 309.139,316.795 302.5,310.5C 291.146,315.071 279.313,317.404 267,317.5C 255.252,315.983 243.419,314.816 231.5,314C 220.285,313.261 209.952,309.928 200.5,304C 198.393,302.736 197.393,300.903 197.5,298.5C 230.514,312.153 264.514,315.32 299.5,308C 301.5,307 303.5,306 305.5,305C 310.452,299.73 314.952,294.23 319,288.5C 332.919,292.688 347.085,295.688 361.5,297.5 Z"/></g>
<g><path style="opacity:1" fill="#7b7b7b" d="M 262.5,289.5 C 266.634,290.485 270.968,290.818 275.5,290.5C 270.684,291.65 265.684,291.816 260.5,291C 261.044,290.283 261.711,289.783 262.5,289.5 Z"/></g>
<g><path style="opacity:1" fill="#434343" d="M 251.5,305.5 C 250.828,302.658 249.494,300.158 247.5,298C 248.094,297.536 248.761,297.369 249.5,297.5C 269.371,297.816 289.038,296.316 308.5,293C 304.793,299.205 299.46,303.539 292.5,306C 278.812,306.74 265.145,306.573 251.5,305.5 Z"/></g>
<g><path style="opacity:1" fill="#387117" d="M 409.5,350.5 C 387.304,361.623 364.137,370.289 340,376.5C 323.807,374.205 307.64,371.705 291.5,369C 254.074,365.457 216.741,361.124 179.5,356C 173.939,354.735 168.439,353.235 163,351.5C 155.489,360.509 149.489,370.509 145,381.5C 144.154,390.923 144.654,400.256 146.5,409.5C 145.609,408.739 144.942,407.739 144.5,406.5C 143.675,405.614 142.675,405.281 141.5,405.5C 141.16,409.131 141.994,412.464 144,415.5C 148.998,420.831 154.831,424.997 161.5,428C 151.083,426.695 141.083,423.862 131.5,419.5C 129.943,397.394 135.11,377.06 147,358.5C 151.089,353.738 155.756,349.738 161,346.5C 167.033,348.55 173.2,350.05 179.5,351C 216.475,355.219 253.475,359.219 290.5,363C 306.891,365.08 323.058,367.914 339,371.5C 362.179,363.868 384.845,354.868 407,344.5C 408.663,346.158 409.496,348.158 409.5,350.5 Z"/></g>
<g><path style="opacity:1" fill="#76ba51" d="M 409.5,350.5 C 412.628,356.693 415.294,363.193 417.5,370C 393.021,378.221 367.854,383.388 342,385.5C 294.292,378.851 246.459,373.185 198.5,368.5C 188.408,368.414 179.074,370.914 170.5,376C 164.78,381.936 160.447,388.77 157.5,396.5C 159.901,403.9 164.901,408.567 172.5,410.5C 193.885,412.072 215.219,414.239 236.5,417C 259.021,422.59 281.688,427.59 304.5,432C 327.793,435.08 350.96,434.246 374,429.5C 375.167,429.667 376.333,429.833 377.5,430C 375.884,430.615 374.551,431.615 373.5,433C 320.655,439.292 267.655,441.292 214.5,439C 199.325,437.304 184.325,434.638 169.5,431C 160.997,424.661 153.33,417.495 146.5,409.5C 144.654,400.256 144.154,390.923 145,381.5C 149.489,370.509 155.489,360.509 163,351.5C 168.439,353.235 173.939,354.735 179.5,356C 216.741,361.124 254.074,365.457 291.5,369C 307.64,371.705 323.807,374.205 340,376.5C 364.137,370.289 387.304,361.623 409.5,350.5 Z"/></g>
<g><path style="opacity:1" fill="#d84d3a" d="M 185.5,374.5 C 195.992,373.341 206.659,373.175 217.5,374C 244.881,377.673 272.214,381.673 299.5,386C 324.183,389.186 348.85,389.186 373.5,386C 389.38,382.613 405.047,378.447 420.5,373.5C 421.772,373.57 422.938,373.903 424,374.5C 424.914,382.269 422.414,388.603 416.5,393.5C 400.647,396.816 384.647,399.316 368.5,401C 367.328,401.419 366.328,402.085 365.5,403C 359.667,403.167 353.833,403.333 348,403.5C 331.136,402.849 314.303,401.682 297.5,400C 279.597,396.683 261.597,394.016 243.5,392C 223.417,385.908 203.083,385.241 182.5,390C 179.731,390.835 179.065,392.335 180.5,394.5C 180.696,396.646 181.696,396.812 183.5,395C 198.533,394.145 213.533,394.478 228.5,396C 246.573,399.685 264.573,403.685 282.5,408C 303.373,411.331 324.373,412.331 345.5,411C 357.477,409.961 369.477,409.294 381.5,409C 388.169,407.666 394.836,406.333 401.5,405C 403.519,404.55 405.352,403.717 407,402.5C 410.622,405.923 411.122,409.59 408.5,413.5C 394.045,418.446 379.212,420.446 364,419.5C 348.143,420.855 332.31,422.188 316.5,423.5C 308.512,422.371 300.512,421.204 292.5,420C 278.814,414.059 264.481,410.393 249.5,409C 242.337,406.376 235.004,404.376 227.5,403C 216.993,402.24 206.493,401.407 196,400.5C 190.078,400.553 184.245,401.22 178.5,402.5C 176.888,401.451 175.888,399.951 175.5,398C 176.23,394.206 176.73,390.373 177,386.5C 179.45,381.716 182.95,377.883 187.5,375C 186.906,374.536 186.239,374.369 185.5,374.5 Z"/></g>
<g><path style="opacity:1" fill="#b01601" d="M 185.5,374.5 C 186.239,374.369 186.906,374.536 187.5,375C 182.95,377.883 179.45,381.716 177,386.5C 176.73,390.373 176.23,394.206 175.5,398C 175.888,399.951 176.888,401.451 178.5,402.5C 184.245,401.22 190.078,400.553 196,400.5C 206.493,401.407 216.993,402.24 227.5,403C 235.004,404.376 242.337,406.376 249.5,409C 264.481,410.393 278.814,414.059 292.5,420C 300.512,421.204 308.512,422.371 316.5,423.5C 332.31,422.188 348.143,420.855 364,419.5C 379.212,420.446 394.045,418.446 408.5,413.5C 406.423,416.904 403.423,419.404 399.5,421C 376.645,424.899 353.645,427.399 330.5,428.5C 306.656,427.248 283.323,423.082 260.5,416C 231.534,409.458 202.201,406.458 172.5,407C 167.312,405.075 163.312,401.742 160.5,397C 164.009,389.823 168.675,383.49 174.5,378C 177.893,375.924 181.56,374.758 185.5,374.5 Z"/></g>
<g><path style="opacity:1" fill="#b01702" d="M 416.5,393.5 C 413.829,396.161 410.829,398.494 407.5,400.5C 406.393,399.978 405.226,399.645 404,399.5C 393.55,401.769 383.05,403.769 372.5,405.5C 369.699,404.938 366.865,404.605 364,404.5C 340.844,406.868 317.677,407.035 294.5,405C 275.396,401.462 256.396,397.462 237.5,393C 219.196,389.158 200.863,388.825 182.5,392C 181.619,392.708 180.953,393.542 180.5,394.5C 179.065,392.335 179.731,390.835 182.5,390C 203.083,385.241 223.417,385.908 243.5,392C 261.597,394.016 279.597,396.683 297.5,400C 314.303,401.682 331.136,402.849 348,403.5C 353.833,403.333 359.667,403.167 365.5,403C 366.328,402.085 367.328,401.419 368.5,401C 384.647,399.316 400.647,396.816 416.5,393.5 Z"/></g>
<g><path style="opacity:1" fill="#242424" d="M 162.5,458.5 C 161.127,458.343 159.793,458.51 158.5,459C 160.5,460.333 162.5,461.667 164.5,463C 178.161,467.328 191.827,471.161 205.5,474.5C 182.343,473.076 159.343,470.243 136.5,466C 134.047,463.457 131.047,461.957 127.5,461.5C 111.418,458.827 95.4179,459.327 79.5,463C 93.1738,463.522 106.84,464.189 120.5,465C 123.877,465.452 127.211,466.118 130.5,467C 129.5,467.333 128.5,467.667 127.5,468C 129.5,468.667 131.5,469.333 133.5,470C 120.24,471.838 106.906,472.838 93.5,473C 80.4261,474.769 67.7594,478.102 55.5,483C 66.4951,481.668 77.4951,480.002 88.5,478C 97.1721,476.857 105.839,476.19 114.5,476C 99.2174,482.304 84.8841,490.137 71.5,499.5C 47.5,499.5 23.5,499.5 -0.5,499.5C -0.5,483.167 -0.5,466.833 -0.5,450.5C 19.4072,438.644 41.0739,432.977 64.5,433.5C 67.2078,434.561 69.8745,434.227 72.5,432.5C 83.7499,436.792 94.7499,441.626 105.5,447C 124.267,452.853 143.267,456.687 162.5,458.5 Z"/></g>
<g><path style="opacity:1" fill="#434343" d="M 161.5,434.5 C 201.801,445.047 242.801,448.88 284.5,446C 310.525,444.331 336.525,442.664 362.5,441C 358.983,442.924 355.316,444.591 351.5,446C 295.126,455.8 238.459,458.967 181.5,455.5C 173.844,448.859 167.177,441.859 161.5,434.5 Z"/></g>
<g><path style="opacity:1" fill="#434343" d="M 409.5,499.5 C 394.833,499.5 380.167,499.5 365.5,499.5C 356.086,490.945 345.42,484.112 333.5,479C 338.864,478.829 344.198,478.329 349.5,477.5C 349.376,476.893 349.043,476.56 348.5,476.5C 338.374,473.013 328.04,470.346 317.5,468.5C 323.915,467.153 330.248,465.486 336.5,463.5C 340.1,462.821 339.767,461.987 335.5,461C 321.464,459.142 308.464,461.809 296.5,469C 283.571,472.317 270.571,475.15 257.5,477.5C 240.129,476.981 222.796,475.981 205.5,474.5C 191.827,471.161 178.161,467.328 164.5,463C 162.5,461.667 160.5,460.333 158.5,459C 159.793,458.51 161.127,458.343 162.5,458.5C 175.566,458.93 188.566,460.096 201.5,462C 254.388,463.936 306.388,459.103 357.5,447.5C 363.355,452.523 369.355,457.356 375.5,462C 388.831,472.824 400.165,485.324 409.5,499.5 Z"/></g>
<g><path style="opacity:1" fill="#040404" d="M 205.5,474.5 C 222.796,475.981 240.129,476.981 257.5,477.5C 270.571,475.15 283.571,472.317 296.5,469C 308.464,461.809 321.464,459.142 335.5,461C 339.767,461.987 340.1,462.821 336.5,463.5C 324.759,462.963 313.426,464.796 302.5,469C 301.396,470.131 301.729,470.965 303.5,471.5C 307.796,469.042 312.463,468.042 317.5,468.5C 328.04,470.346 338.374,473.013 348.5,476.5C 348.083,477.124 347.416,477.457 346.5,477.5C 334,474.364 321.333,472.864 308.5,473C 316.924,476.711 325.258,480.711 333.5,485C 339.35,491.079 346.016,495.912 353.5,499.5C 350.5,499.5 347.5,499.5 344.5,499.5C 331.817,491.155 318.483,483.821 304.5,477.5C 303.054,476.06 301.221,475.393 299,475.5C 280.12,480.02 260.953,482.353 241.5,482.5C 208.698,482.026 176.198,478.693 144,472.5C 121.787,478.016 100.954,487.016 81.5,499.5C 78.1667,499.5 74.8333,499.5 71.5,499.5C 84.8841,490.137 99.2174,482.304 114.5,476C 105.839,476.19 97.1721,476.857 88.5,478C 77.4951,480.002 66.4951,481.668 55.5,483C 67.7594,478.102 80.4261,474.769 93.5,473C 106.906,472.838 120.24,471.838 133.5,470C 131.5,469.333 129.5,468.667 127.5,468C 128.5,467.667 129.5,467.333 130.5,467C 127.211,466.118 123.877,465.452 120.5,465C 106.84,464.189 93.1738,463.522 79.5,463C 95.4179,459.327 111.418,458.827 127.5,461.5C 131.047,461.957 134.047,463.457 136.5,466C 159.343,470.243 182.343,473.076 205.5,474.5 Z"/></g>
<g><path style="opacity:1" fill="#232323" d="M 336.5,463.5 C 330.248,465.486 323.915,467.153 317.5,468.5C 312.463,468.042 307.796,469.042 303.5,471.5C 301.729,470.965 301.396,470.131 302.5,469C 313.426,464.796 324.759,462.963 336.5,463.5 Z"/></g>
<g><path style="opacity:1" fill="#252525" d="M 304.5,477.5 C 291.279,481.011 277.946,484.011 264.5,486.5C 261.287,486.19 258.287,486.523 255.5,487.5C 250.317,487.323 244.984,487.323 239.5,487.5C 239.5,486.5 239.5,485.5 239.5,484.5C 234.208,484.729 229.708,486.729 226,490.5C 223.815,489.242 221.648,489.242 219.5,490.5C 216.322,488.161 212.822,486.494 209,485.5C 207.624,485.684 206.791,486.351 206.5,487.5C 200.091,487.559 193.758,486.892 187.5,485.5C 186.584,485.543 185.917,485.876 185.5,486.5C 182.5,486.5 179.5,486.5 176.5,486.5C 178.969,485.683 181.635,485.183 184.5,485C 172.578,483.749 160.744,481.916 149,479.5C 143.89,485.381 140.056,492.048 137.5,499.5C 118.833,499.5 100.167,499.5 81.5,499.5C 100.954,487.016 121.787,478.016 144,472.5C 176.198,478.693 208.698,482.026 241.5,482.5C 260.953,482.353 280.12,480.02 299,475.5C 301.221,475.393 303.054,476.06 304.5,477.5 Z"/></g>
<g><path style="opacity:1" fill="#242424" d="M 348.5,476.5 C 349.043,476.56 349.376,476.893 349.5,477.5C 344.198,478.329 338.864,478.829 333.5,479C 345.42,484.112 356.086,490.945 365.5,499.5C 361.5,499.5 357.5,499.5 353.5,499.5C 346.016,495.912 339.35,491.079 333.5,485C 325.258,480.711 316.924,476.711 308.5,473C 321.333,472.864 334,474.364 346.5,477.5C 347.416,477.457 348.083,477.124 348.5,476.5 Z"/></g>
<g><path style="opacity:1" fill="#434343" d="M 304.5,477.5 C 318.483,483.821 331.817,491.155 344.5,499.5C 327.833,499.5 311.167,499.5 294.5,499.5C 285.761,492.469 275.761,488.135 264.5,486.5C 277.946,484.011 291.279,481.011 304.5,477.5 Z"/></g>
<g><path style="opacity:1" fill="#434343" d="M 176.5,486.5 C 165.013,487.581 155.013,491.914 146.5,499.5C 143.5,499.5 140.5,499.5 137.5,499.5C 140.056,492.048 143.89,485.381 149,479.5C 160.744,481.916 172.578,483.749 184.5,485C 181.635,485.183 178.969,485.683 176.5,486.5 Z"/></g>
<g><path style="opacity:1" fill="#010101" d="M 239.5,487.5 C 238.62,489.137 237.954,490.97 237.5,493C 238.287,495.099 238.62,497.266 238.5,499.5C 228.5,499.5 218.5,499.5 208.5,499.5C 208.921,495.258 208.254,491.258 206.5,487.5C 206.791,486.351 207.624,485.684 209,485.5C 212.822,486.494 216.322,488.161 219.5,490.5C 221.648,489.242 223.815,489.242 226,490.5C 229.708,486.729 234.208,484.729 239.5,484.5C 239.5,485.5 239.5,486.5 239.5,487.5 Z"/></g>
<g><path style="opacity:1" fill="#010101" d="M 176.5,486.5 C 179.5,486.5 182.5,486.5 185.5,486.5C 180.766,489.903 177.099,494.236 174.5,499.5C 165.167,499.5 155.833,499.5 146.5,499.5C 155.013,491.914 165.013,487.581 176.5,486.5 Z"/></g>
<g><path style="opacity:1" fill="#444444" d="M 206.5,487.5 C 208.254,491.258 208.921,495.258 208.5,499.5C 197.167,499.5 185.833,499.5 174.5,499.5C 177.099,494.236 180.766,489.903 185.5,486.5C 185.917,485.876 186.584,485.543 187.5,485.5C 193.758,486.892 200.091,487.559 206.5,487.5 Z"/></g>
<g><path style="opacity:1" fill="#010101" d="M 255.5,487.5 C 258.287,486.523 261.287,486.19 264.5,486.5C 275.761,488.135 285.761,492.469 294.5,499.5C 285.167,499.5 275.833,499.5 266.5,499.5C 264.204,494.238 260.537,490.238 255.5,487.5 Z"/></g>
<g><path style="opacity:1" fill="#434343" d="M 255.5,487.5 C 260.537,490.238 264.204,494.238 266.5,499.5C 257.167,499.5 247.833,499.5 238.5,499.5C 238.62,497.266 238.287,495.099 237.5,493C 237.954,490.97 238.62,489.137 239.5,487.5C 244.984,487.323 250.317,487.323 255.5,487.5 Z"/></g>
</svg>
