<?xml version="1.0" encoding="UTF-8"?>
<!DOCTYPE svg PUBLIC "-//W3C//DTD SVG 1.1//EN" "http://www.w3.org/Graphics/SVG/1.1/DTD/svg11.dtd">
<svg xmlns="http://www.w3.org/2000/svg" version="1.1" width="512px" height="512px" style="shape-rendering:geometricPrecision; text-rendering:geometricPrecision; image-rendering:optimizeQuality; fill-rule:evenodd; clip-rule:evenodd" xmlns:xlink="http://www.w3.org/1999/xlink">
<g><path style="opacity:0.012" fill="#fefffe" d="M 206.5,-0.5 C 206.833,-0.5 207.167,-0.5 207.5,-0.5C 207.5,-0.166667 207.5,0.166667 207.5,0.5C 207.167,0.166667 206.833,-0.166667 206.5,-0.5 Z"/></g>
<g><path style="opacity:0.968" fill="#fcfcfc" d="M 210.5,-0.5 C 214.167,-0.5 217.833,-0.5 221.5,-0.5C 227.316,1.64361 231.983,5.31028 235.5,10.5C 236.376,14.5821 238.043,18.2488 240.5,21.5C 240.707,24.2406 241.707,26.5739 243.5,28.5C 243.402,30.5529 244.069,32.2196 245.5,33.5C 245.402,35.5529 246.069,37.2196 247.5,38.5C 247.595,40.7857 248.262,42.7857 249.5,44.5C 249.402,46.5529 250.069,48.2196 251.5,49.5C 251.263,50.791 251.596,51.791 252.5,52.5C 252.263,53.791 252.596,54.791 253.5,55.5C 253.263,56.791 253.596,57.791 254.5,58.5C 254.41,61.1522 255.076,63.4855 256.5,65.5C 257.387,70.7221 258.721,75.7221 260.5,80.5C 261.008,85.5431 261.842,90.5431 263,95.5C 263.333,93.8333 263.667,92.1667 264,90.5C 264.251,92.433 264.751,94.2663 265.5,96C 283.867,94.9735 302.2,95.4735 320.5,97.5C 324.942,98.9901 329.609,99.9901 334.5,100.5C 338.617,102.204 342.951,103.537 347.5,104.5C 348.93,105.537 350.597,106.204 352.5,106.5C 353.209,107.404 354.209,107.737 355.5,107.5C 356.172,108.267 357.005,108.934 358,109.5C 358.498,106.518 358.665,103.518 358.5,100.5C 359.689,91.6881 360.355,82.6881 360.5,73.5C 365.917,58.626 376.25,53.626 391.5,58.5C 396.948,62.7213 400.948,68.0546 403.5,74.5C 404.734,79.883 406.734,84.883 409.5,89.5C 410.928,95.784 412.928,101.784 415.5,107.5C 415.41,110.152 416.076,112.485 417.5,114.5C 417.41,117.152 418.076,119.485 419.5,121.5C 419.74,126.12 420.74,130.453 422.5,134.5C 422.216,136.415 422.549,138.081 423.5,139.5C 423.872,145.732 424.872,151.732 426.5,157.5C 429.056,184.009 429.056,210.509 426.5,237C 426.613,239.399 427.613,241.232 429.5,242.5C 430.917,245.669 432.583,248.669 434.5,251.5C 434.263,252.791 434.596,253.791 435.5,254.5C 435.232,256.099 435.566,257.432 436.5,258.5C 436.5,263.833 436.5,269.167 436.5,274.5C 435.566,275.568 435.232,276.901 435.5,278.5C 434.596,279.209 434.263,280.209 434.5,281.5C 432.992,283.181 431.992,285.181 431.5,287.5C 430.662,287.842 430.328,288.508 430.5,289.5C 429.094,289.973 428.427,290.973 428.5,292.5C 427.833,292.5 427.5,292.833 427.5,293.5C 426.833,293.5 426.5,293.833 426.5,294.5C 424.5,295.833 422.833,297.5 421.5,299.5C 420.833,299.5 420.5,299.833 420.5,300.5C 419.833,300.5 419.5,300.833 419.5,301.5C 418.833,301.5 418.5,301.833 418.5,302.5C 417.508,302.328 416.842,302.662 416.5,303.5C 415.833,303.5 415.5,303.833 415.5,304.5C 414.508,304.328 413.842,304.662 413.5,305.5C 411.973,305.427 410.973,306.094 410.5,307.5C 408.447,307.402 406.78,308.069 405.5,309.5C 404.508,309.328 403.842,309.662 403.5,310.5C 402.833,310.5 402.5,310.833 402.5,311.5C 401.662,311.842 401.328,312.508 401.5,313.5C 400.833,313.5 400.5,313.833 400.5,314.5C 399.662,314.842 399.328,315.508 399.5,316.5C 398.833,316.5 398.5,316.833 398.5,317.5C 397.662,317.842 397.328,318.508 397.5,319.5C 396.662,319.842 396.328,320.508 396.5,321.5C 395.662,321.842 395.328,322.508 395.5,323.5C 394.662,323.842 394.328,324.508 394.5,325.5C 393.662,325.842 393.328,326.508 393.5,327.5C 392.069,328.78 391.402,330.447 391.5,332.5C 390.069,333.78 389.402,335.447 389.5,337.5C 388.596,338.209 388.263,339.209 388.5,340.5C 387.076,342.515 386.41,344.848 386.5,347.5C 385.566,348.568 385.232,349.901 385.5,351.5C 384.566,352.568 384.232,353.901 384.5,355.5C 383.566,356.568 383.232,357.901 383.5,359.5C 381.656,365.233 380.656,371.233 380.5,377.5C 379.523,380.287 379.19,383.287 379.5,386.5C 378.649,392.34 377.982,398.34 377.5,404.5C 376.662,404.842 376.328,405.508 376.5,406.5C 375.662,406.842 375.328,407.508 375.5,408.5C 373.524,409.427 373.191,410.76 374.5,412.5C 376.739,413.788 379.072,414.788 381.5,415.5C 384.678,418.258 388.345,420.258 392.5,421.5C 395.008,423.924 398.008,425.59 401.5,426.5C 401.842,427.338 402.508,427.672 403.5,427.5C 406.008,429.924 409.008,431.59 412.5,432.5C 415.008,434.924 418.008,436.59 421.5,437.5C 421.842,438.338 422.508,438.672 423.5,438.5C 426.008,440.924 429.008,442.59 432.5,443.5C 435.008,445.924 438.008,447.59 441.5,448.5C 441.842,449.338 442.508,449.672 443.5,449.5C 446.008,451.924 449.008,453.59 452.5,454.5C 452.842,455.338 453.508,455.672 454.5,455.5C 457.008,457.924 460.008,459.59 463.5,460.5C 466.008,462.924 469.008,464.59 472.5,465.5C 472.842,466.338 473.508,466.672 474.5,466.5C 477.008,468.924 480.008,470.59 483.5,471.5C 484.29,472.401 485.29,473.068 486.5,473.5C 487.436,474.974 488.77,475.974 490.5,476.5C 490.427,478.027 491.094,479.027 492.5,479.5C 496.5,487.167 496.5,494.833 492.5,502.5C 490.167,504.167 488.167,506.167 486.5,508.5C 485.508,508.328 484.842,508.662 484.5,509.5C 483.508,509.328 482.842,509.662 482.5,510.5C 481.209,510.263 480.209,510.596 479.5,511.5C 329.833,511.5 180.167,511.5 30.5,511.5C 29.4324,510.566 28.099,510.232 26.5,510.5C 21.1332,507.627 17.2999,503.294 15,497.5C 14.1818,451.471 14.3485,405.471 15.5,359.5C 20.3017,352.932 26.635,348.599 34.5,346.5C 35.791,346.737 36.791,346.404 37.5,345.5C 38.791,345.737 39.791,345.404 40.5,344.5C 46.9559,343.182 53.2892,341.349 59.5,339C 87.9369,305.06 112.604,268.56 133.5,229.5C 136.593,225.653 138.926,221.32 140.5,216.5C 141.338,216.158 141.672,215.492 141.5,214.5C 145.874,208.419 149.207,201.752 151.5,194.5C 156.624,185.246 160.958,175.579 164.5,165.5C 165.931,164.22 166.598,162.553 166.5,160.5C 167.931,159.22 168.598,157.553 168.5,155.5C 170.601,152.203 171.935,148.537 172.5,144.5C 173.404,143.791 173.737,142.791 173.5,141.5C 175.267,139.208 176.267,136.542 176.5,133.5C 177.924,131.485 178.59,129.152 178.5,126.5C 180.61,122.498 181.943,118.165 182.5,113.5C 183.434,112.432 183.768,111.099 183.5,109.5C 185.416,105.837 186.416,101.837 186.5,97.5C 187.434,96.4324 187.768,95.099 187.5,93.5C 189.011,90.4557 189.678,87.1224 189.5,83.5C 190.451,82.0813 190.784,80.4147 190.5,78.5C 192.965,68.7853 194.299,58.7853 194.5,48.5C 195.304,40.9978 195.97,33.3311 196.5,25.5C 195.632,20.4716 195.966,15.4716 197.5,10.5C 200.5,6.83333 203.833,3.5 207.5,0.5C 208.791,0.737305 209.791,0.403972 210.5,-0.5 Z"/></g>
<g><path style="opacity:0.008" fill="#fefffe" d="M 204.5,0.5 C 205.833,1.16667 205.833,1.16667 204.5,0.5 Z"/></g>
<g><path style="opacity:0.012" fill="#fefffe" d="M 197.5,10.5 C 196.833,9.16667 196.833,9.16667 197.5,10.5 Z"/></g>
<g><path style="opacity:0.012" fill="#fefffe" d="M 235.5,9.5 C 236.833,10.1667 236.833,10.1667 235.5,9.5 Z"/></g>
<g><path style="opacity:0.008" fill="#fefffe" d="M 196.5,10.5 C 196.631,11.2389 196.464,11.9056 196,12.5C 195.308,11.5632 195.475,10.8966 196.5,10.5 Z"/></g>
<g><path style="opacity:0.012" fill="#fefffe" d="M 236.5,11.5 C 237.833,12.1667 237.833,12.1667 236.5,11.5 Z"/></g>
<g><path style="opacity:0.007" fill="#fefffe" d="M 194.5,13.5 C 195.598,14.6009 195.765,15.9343 195,17.5C 194.51,16.2068 194.343,14.8734 194.5,13.5 Z"/></g>
<g><path style="opacity:0.012" fill="#fdfefd" d="M 237.5,13.5 C 238.833,14.1667 238.833,14.1667 237.5,13.5 Z"/></g>
<g><path style="opacity:1" fill="#010101" d="M 215.5,18.5 C 216.496,18.4142 217.329,18.7476 218,19.5C 234.102,50.971 243.602,84.3043 246.5,119.5C 281.546,111.075 315.88,113.242 349.5,126C 358.937,130.13 367.437,135.63 375,142.5C 377.044,120.204 378.544,97.8711 379.5,75.5C 380.822,75.33 381.989,75.6634 383,76.5C 406.912,130.198 414.746,186.198 406.5,244.5C 410.549,249.06 414.049,254.06 417,259.5C 418.618,277.226 410.785,288.392 393.5,293C 384.529,302.432 377.696,313.265 373,325.5C 364.354,349.062 359.688,373.395 359,398.5C 354.42,404.04 348.587,407.373 341.5,408.5C 341.02,411.685 341.686,414.519 343.5,417C 386.833,440.667 430.167,464.333 473.5,488C 475.439,488.908 476.439,490.408 476.5,492.5C 328.833,492.5 181.167,492.5 33.5,492.5C 33.3333,450.832 33.5,409.165 34,367.5C 45.711,363.207 57.5443,359.207 69.5,355.5C 128.402,287.748 171.902,210.748 200,124.5C 209.91,89.8888 215.077,54.5555 215.5,18.5 Z"/></g>
<g><path style="opacity:0.008" fill="#fefffe" d="M 241.5,21.5 C 241.167,21.5 240.833,21.5 240.5,21.5C 240.833,18.8333 241.167,18.8333 241.5,21.5 Z"/></g>
<g><path style="opacity:0.008" fill="#fefffe" d="M 241.5,21.5 C 242.525,21.8966 242.692,22.5632 242,23.5C 241.536,22.9056 241.369,22.2389 241.5,21.5 Z"/></g>
<g><path style="opacity:0.008" fill="#fefffe" d="M 243.5,28.5 C 243.369,27.7611 243.536,27.0944 244,26.5C 244.692,27.4368 244.525,28.1034 243.5,28.5 Z"/></g>
<g><path style="opacity:0.01" fill="#fefefe" d="M 245.5,33.5 C 245.369,32.7611 245.536,32.0944 246,31.5C 246.692,32.4368 246.525,33.1034 245.5,33.5 Z"/></g>
<g><path style="opacity:0.009" fill="#fefefe" d="M 194.5,48.5 C 193.349,43.3497 193.183,38.0164 194,32.5C 194.499,37.8229 194.666,43.1563 194.5,48.5 Z"/></g>
<g><path style="opacity:0.008" fill="#fefefe" d="M 247.5,38.5 C 247.369,37.7611 247.536,37.0944 248,36.5C 248.692,37.4368 248.525,38.1034 247.5,38.5 Z"/></g>
<g><path style="opacity:1" fill="#1c1c51" d="M 218.5,28.5 C 220.892,32.9559 223.058,37.6226 225,42.5C 226.221,62.404 224.554,82.0707 220,101.5C 207.221,150.501 188.554,197.168 164,241.5C 140.399,282.76 116.399,323.76 92,364.5C 86.386,378.492 85.0527,392.825 88,407.5C 77.2747,398.723 68.9414,388.057 63,375.5C 61.701,382.921 62.8676,389.921 66.5,396.5C 56.5961,398.245 46.5961,399.245 36.5,399.5C 36.1681,389.478 36.5015,379.478 37.5,369.5C 49.0676,365.366 60.7343,361.533 72.5,358C 123.125,297.968 162.959,231.135 192,157.5C 207.812,115.94 216.645,72.9404 218.5,28.5 Z"/></g>
<g><path style="opacity:0.007" fill="#fefefe" d="M 250.5,44.5 C 250.167,44.5 249.833,44.5 249.5,44.5C 249.833,40.5 250.167,40.5 250.5,44.5 Z"/></g>
<g><path style="opacity:0.01" fill="#fefefe" d="M 250.5,44.5 C 251.525,44.8966 251.692,45.5632 251,46.5C 250.536,45.9056 250.369,45.2389 250.5,44.5 Z"/></g>
<g><path style="opacity:0.01" fill="#fefffe" d="M 251.5,49.5 C 251.369,48.7611 251.536,48.0944 252,47.5C 252.692,48.4368 252.525,49.1034 251.5,49.5 Z"/></g>
<g><path style="opacity:0.009" fill="#fefefe" d="M 192.5,49.5 C 193.634,51.9664 193.801,54.633 193,57.5C 192.503,54.854 192.336,52.1873 192.5,49.5 Z"/></g>
<g><path style="opacity:0.01" fill="#fefefe" d="M 252.5,52.5 C 252.369,51.7611 252.536,51.0944 253,50.5C 253.692,51.4368 253.525,52.1034 252.5,52.5 Z"/></g>
<g><path style="opacity:0.012" fill="#fefffe" d="M 253.5,55.5 C 253.369,54.7611 253.536,54.0944 254,53.5C 254.692,54.4368 254.525,55.1034 253.5,55.5 Z"/></g>
<g><path style="opacity:0.01" fill="#fefefe" d="M 376.5,55.5 C 379.64,54.3592 382.973,54.1925 386.5,55C 383.183,55.4983 379.85,55.665 376.5,55.5 Z"/></g>
<g><path style="opacity:0.01" fill="#fefefe" d="M 254.5,58.5 C 254.369,57.7611 254.536,57.0944 255,56.5C 255.692,57.4368 255.525,58.1034 254.5,58.5 Z"/></g>
<g><path style="opacity:0.012" fill="#fefffe" d="M 391.5,57.5 C 392.833,58.1667 392.833,58.1667 391.5,57.5 Z"/></g>
<g><path style="opacity:0.01" fill="#fefefe" d="M 191.5,59.5 C 192.622,61.2884 192.789,63.2884 192,65.5C 191.505,63.5273 191.338,61.5273 191.5,59.5 Z"/></g>
<g><path style="opacity:0.01" fill="#fefefe" d="M 255.5,59.5 C 256.525,59.8966 256.692,60.5632 256,61.5C 255.536,60.9056 255.369,60.2389 255.5,59.5 Z"/></g>
<g><path style="opacity:0.008" fill="#fefffe" d="M 257.5,65.5 C 257.167,65.5 256.833,65.5 256.5,65.5C 256.833,61.5 257.167,61.5 257.5,65.5 Z"/></g>
<g><path style="opacity:0.009" fill="#fefffe" d="M 257.5,65.5 C 258.573,66.2506 258.74,67.2506 258,68.5C 257.517,67.552 257.351,66.552 257.5,65.5 Z"/></g>
<g><path style="opacity:0.009" fill="#fefefe" d="M 190.5,67.5 C 191.613,68.9464 191.78,70.6131 191,72.5C 190.506,70.8659 190.34,69.1992 190.5,67.5 Z"/></g>
<g><path style="opacity:0.009" fill="#fefffe" d="M 360.5,73.5 C 359.427,72.7494 359.26,71.7494 360,70.5C 360.483,71.448 360.649,72.448 360.5,73.5 Z"/></g>
<g><path style="opacity:0.008" fill="#fefefe" d="M 403.5,74.5 C 403.369,73.7611 403.536,73.0944 404,72.5C 404.692,73.4368 404.525,74.1034 403.5,74.5 Z"/></g>
<g><path style="opacity:0.009" fill="#fefffe" d="M 190.5,78.5 C 189.387,77.0536 189.22,75.3869 190,73.5C 190.494,75.1341 190.66,76.8008 190.5,78.5 Z"/></g>
<g><path style="opacity:0.009" fill="#fefefe" d="M 358.5,74.5 C 359.641,77.6399 359.808,80.9733 359,84.5C 358.502,81.1832 358.335,77.8499 358.5,74.5 Z"/></g>
<g><path style="opacity:0.008" fill="#fefffe" d="M 260.5,80.5 C 260.343,79.1266 260.51,77.7932 261,76.5C 261.765,78.0657 261.598,79.3991 260.5,80.5 Z"/></g>
<g><path style="opacity:0.009" fill="#fefefe" d="M 189.5,83.5 C 188.402,82.3991 188.235,81.0657 189,79.5C 189.49,80.7932 189.657,82.1266 189.5,83.5 Z"/></g>
<g><path style="opacity:0.009" fill="#fefffe" d="M 261.5,81.5 C 262.573,82.2506 262.74,83.2506 262,84.5C 261.517,83.552 261.351,82.552 261.5,81.5 Z"/></g>
<g><path style="opacity:0.009" fill="#fefefe" d="M 187.5,84.5 C 188.598,85.6009 188.765,86.9343 188,88.5C 187.51,87.2068 187.343,85.8734 187.5,84.5 Z"/></g>
<g><path style="opacity:0.009" fill="#fefefe" d="M 262.5,85.5 C 263.598,86.6009 263.765,87.9343 263,89.5C 262.51,88.2068 262.343,86.8734 262.5,85.5 Z"/></g>
<g><path style="opacity:0.009" fill="#fefefe" d="M 358.5,100.5 C 357.352,96.0189 357.185,91.3522 358,86.5C 358.499,91.1548 358.666,95.8215 358.5,100.5 Z"/></g>
<g><path style="opacity:0.01" fill="#fefffe" d="M 409.5,89.5 C 409.369,88.7611 409.536,88.0944 410,87.5C 410.692,88.4368 410.525,89.1034 409.5,89.5 Z"/></g>
<g><path style="opacity:0.009" fill="#fefefe" d="M 187.5,93.5 C 186.402,92.3991 186.235,91.0657 187,89.5C 187.49,90.7932 187.657,92.1266 187.5,93.5 Z"/></g>
<g><path style="opacity:0.008" fill="#fefefe" d="M 279.5,94.5 C 286.655,93.3448 293.988,93.1782 301.5,94C 294.174,94.4997 286.841,94.6663 279.5,94.5 Z"/></g>
<g><path style="opacity:0.01" fill="#fefffe" d="M 186.5,97.5 C 185.427,96.7494 185.26,95.7494 186,94.5C 186.483,95.448 186.649,96.448 186.5,97.5 Z"/></g>
<g><path style="opacity:0.009" fill="#fefefe" d="M 267.5,95.5 C 270.304,94.3622 273.304,94.1955 276.5,95C 273.518,95.498 270.518,95.6646 267.5,95.5 Z"/></g>
<g><path style="opacity:0.009" fill="#fefefe" d="M 304.5,95.5 C 306.966,94.3659 309.633,94.1993 312.5,95C 309.854,95.4974 307.187,95.6641 304.5,95.5 Z"/></g>
<g><path style="opacity:0.008" fill="#fefffe" d="M 320.5,96.5 C 318.473,96.6621 316.473,96.4955 314.5,96C 316.712,95.2109 318.712,95.3775 320.5,96.5 Z"/></g>
<g><path style="opacity:0.008" fill="#fefffe" d="M 320.5,97.5 C 320.5,97.1667 320.5,96.8333 320.5,96.5C 327.167,96.8333 327.167,97.1667 320.5,97.5 Z"/></g>
<g><path style="opacity:0.009" fill="#fefefe" d="M 326.5,98.5 C 327.251,97.4265 328.251,97.2599 329.5,98C 328.552,98.4828 327.552,98.6495 326.5,98.5 Z"/></g>
<g><path style="opacity:0.009" fill="#fefefe" d="M 184.5,98.5 C 185.573,99.2506 185.74,100.251 185,101.5C 184.517,100.552 184.351,99.552 184.5,98.5 Z"/></g>
<g><path style="opacity:0.009" fill="#fefffe" d="M 334.5,100.5 C 335.251,99.4265 336.251,99.2599 337.5,100C 336.552,100.483 335.552,100.649 334.5,100.5 Z"/></g>
<g><path style="opacity:0.009" fill="#fefefe" d="M 183.5,102.5 C 184.573,103.251 184.74,104.251 184,105.5C 183.517,104.552 183.351,103.552 183.5,102.5 Z"/></g>
<g><path style="opacity:0.007" fill="#fefffe" d="M 355.5,107.5 C 356.148,105.914 356.648,104.247 357,102.5C 357.167,103.333 357.333,104.167 357.5,105C 357.316,106.376 356.649,107.209 355.5,107.5 Z"/></g>
<g><path style="opacity:0.01" fill="#fefefe" d="M 347.5,104.5 C 347.897,103.475 348.563,103.308 349.5,104C 348.906,104.464 348.239,104.631 347.5,104.5 Z"/></g>
<g><path style="opacity:0.009" fill="#fefefe" d="M 415.5,107.5 C 415.351,106.448 415.517,105.448 416,104.5C 416.74,105.749 416.573,106.749 415.5,107.5 Z"/></g>
<g><path style="opacity:0.01" fill="#fefefe" d="M 352.5,106.5 C 352.897,105.475 353.563,105.308 354.5,106C 353.906,106.464 353.239,106.631 352.5,106.5 Z"/></g>
<g><path style="opacity:0.01" fill="#fefffe" d="M 183.5,109.5 C 182.427,108.749 182.26,107.749 183,106.5C 183.483,107.448 183.649,108.448 183.5,109.5 Z"/></g>
<g><path style="opacity:0.01" fill="#fefffe" d="M 416.5,108.5 C 417.525,108.897 417.692,109.563 417,110.5C 416.536,109.906 416.369,109.239 416.5,108.5 Z"/></g>
<g><path style="opacity:0.009" fill="#fefffe" d="M 182.5,113.5 C 182.167,113.5 181.833,113.5 181.5,113.5C 181.833,109.5 182.167,109.5 182.5,113.5 Z"/></g>
<g><path style="opacity:0.009" fill="#fefefe" d="M 418.5,114.5 C 418.167,114.5 417.833,114.5 417.5,114.5C 417.833,110.5 418.167,110.5 418.5,114.5 Z"/></g>
<g><path style="opacity:0.009" fill="#fefffe" d="M 181.5,113.5 C 181.649,114.552 181.483,115.552 181,116.5C 180.26,115.251 180.427,114.251 181.5,113.5 Z"/></g>
<g><path style="opacity:0.008" fill="#fefefe" d="M 418.5,114.5 C 419.573,115.251 419.74,116.251 419,117.5C 418.517,116.552 418.351,115.552 418.5,114.5 Z"/></g>
<g><path style="opacity:1" fill="#1c1c51" d="M 272.5,117.5 C 313.675,112.954 349.841,123.954 381,150.5C 387.852,159.86 392.186,170.193 394,181.5C 360.11,151.236 320.943,141.402 276.5,152C 263.996,156.078 253.33,162.912 244.5,172.5C 244.167,170.667 243.833,168.833 243.5,167C 244.327,152.172 244.994,137.339 245.5,122.5C 254.58,120.581 263.58,118.914 272.5,117.5 Z"/></g>
<g><path style="opacity:0.009" fill="#fefffe" d="M 419.5,121.5 C 419.351,120.448 419.517,119.448 420,118.5C 420.74,119.749 420.573,120.749 419.5,121.5 Z"/></g>
<g><path style="opacity:0.009" fill="#fefefe" d="M 420.5,122.5 C 421.573,123.251 421.74,124.251 421,125.5C 420.517,124.552 420.351,123.552 420.5,122.5 Z"/></g>
<g><path style="opacity:0.01" fill="#fefffe" d="M 178.5,126.5 C 177.475,126.103 177.308,125.437 178,124.5C 178.464,125.094 178.631,125.761 178.5,126.5 Z"/></g>
<g><path style="opacity:0.01" fill="#fefffe" d="M 176.5,127.5 C 177.525,127.897 177.692,128.563 177,129.5C 176.536,128.906 176.369,128.239 176.5,127.5 Z"/></g>
<g><path style="opacity:0.008" fill="#fefffe" d="M 176.5,133.5 C 176.167,133.5 175.833,133.5 175.5,133.5C 175.833,129.5 176.167,129.5 176.5,133.5 Z"/></g>
<g><path style="opacity:0.009" fill="#fefffe" d="M 422.5,134.5 C 422.343,133.127 422.51,131.793 423,130.5C 423.765,132.066 423.598,133.399 422.5,134.5 Z"/></g>
<g><path style="opacity:0.01" fill="#fefffe" d="M 175.5,133.5 C 175.631,134.239 175.464,134.906 175,135.5C 174.308,134.563 174.475,133.897 175.5,133.5 Z"/></g>
<g><path style="opacity:0.009" fill="#fefffe" d="M 423.5,139.5 C 423.343,138.127 423.51,136.793 424,135.5C 424.765,137.066 424.598,138.399 423.5,139.5 Z"/></g>
<g><path style="opacity:0.01" fill="#fefefe" d="M 173.5,136.5 C 174.525,136.897 174.692,137.563 174,138.5C 173.536,137.906 173.369,137.239 173.5,136.5 Z"/></g>
<g><path style="opacity:0.01" fill="#fefffe" d="M 173.5,141.5 C 172.475,141.103 172.308,140.437 173,139.5C 173.464,140.094 173.631,140.761 173.5,141.5 Z"/></g>
<g><path style="opacity:0.01" fill="#fefefe" d="M 424.5,140.5 C 425.598,141.601 425.765,142.934 425,144.5C 424.51,143.207 424.343,141.873 424.5,140.5 Z"/></g>
<g><path style="opacity:0.01" fill="#fefefe" d="M 172.5,144.5 C 171.475,144.103 171.308,143.437 172,142.5C 172.464,143.094 172.631,143.761 172.5,144.5 Z"/></g>
<g><path style="opacity:0.008" fill="#fefefe" d="M 426.5,157.5 C 426.338,155.473 426.505,153.473 427,151.5C 427.789,153.712 427.622,155.712 426.5,157.5 Z"/></g>
<g><path style="opacity:0.012" fill="#fefffe" d="M 168.5,155.5 C 168.167,155.5 167.833,155.5 167.5,155.5C 167.833,152.833 168.167,152.833 168.5,155.5 Z"/></g>
<g><path style="opacity:0.008" fill="#fefffe" d="M 167.5,155.5 C 167.631,156.239 167.464,156.906 167,157.5C 166.308,156.563 166.475,155.897 167.5,155.5 Z"/></g>
<g><path style="opacity:0.01" fill="#fefffe" d="M 166.5,160.5 C 166.167,160.5 165.833,160.5 165.5,160.5C 165.833,157.833 166.167,157.833 166.5,160.5 Z"/></g>
<g><path style="opacity:0.008" fill="#fefffe" d="M 427.5,158.5 C 428.629,160.628 428.796,162.961 428,165.5C 427.503,163.19 427.337,160.857 427.5,158.5 Z"/></g>
<g><path style="opacity:0.008" fill="#fefffe" d="M 165.5,160.5 C 165.631,161.239 165.464,161.906 165,162.5C 164.308,161.563 164.475,160.897 165.5,160.5 Z"/></g>
<g><path style="opacity:0.01" fill="#fefffe" d="M 164.5,165.5 C 164.167,165.5 163.833,165.5 163.5,165.5C 163.833,162.833 164.167,162.833 164.5,165.5 Z"/></g>
<g><path style="opacity:0.008" fill="#fefffe" d="M 163.5,165.5 C 163.631,166.239 163.464,166.906 163,167.5C 162.308,166.563 162.475,165.897 163.5,165.5 Z"/></g>
<g><path style="opacity:0.009" fill="#fefefe" d="M 428.5,167.5 C 429.638,170.304 429.805,173.304 429,176.5C 428.502,173.518 428.335,170.518 428.5,167.5 Z"/></g>
<g><path style="opacity:0.012" fill="#fefffe" d="M 159.5,173.5 C 160.833,174.167 160.833,174.167 159.5,173.5 Z"/></g>
<g><path style="opacity:0.01" fill="#fefefe" d="M 429.5,178.5 C 430.661,192.994 430.828,207.661 430,222.5C 429.5,207.837 429.333,193.17 429.5,178.5 Z"/></g>
<g><path style="opacity:0.012" fill="#fefffe" d="M 151.5,194.5 C 150.833,193.167 150.833,193.167 151.5,194.5 Z"/></g>
<g><path style="opacity:0.012" fill="#fefffe" d="M 149.5,195.5 C 150.833,196.167 150.833,196.167 149.5,195.5 Z"/></g>
<g><path style="opacity:0.012" fill="#fefffe" d="M 148.5,197.5 C 149.833,198.167 149.833,198.167 148.5,197.5 Z"/></g>
<g><path style="opacity:0.012" fill="#fefffe" d="M 142.5,209.5 C 143.833,210.167 143.833,210.167 142.5,209.5 Z"/></g>
<g><path style="opacity:0.012" fill="#fefffe" d="M 141.5,211.5 C 142.833,212.167 142.833,212.167 141.5,211.5 Z"/></g>
<g><path style="opacity:0.012" fill="#fefffe" d="M 141.5,214.5 C 140.833,213.167 140.833,213.167 141.5,214.5 Z"/></g>
<g><path style="opacity:0.012" fill="#fefffe" d="M 140.5,216.5 C 139.833,215.167 139.833,215.167 140.5,216.5 Z"/></g>
<g><path style="opacity:0.009" fill="#fefefe" d="M 428.5,224.5 C 429.638,227.304 429.805,230.304 429,233.5C 428.502,230.518 428.335,227.518 428.5,224.5 Z"/></g>
<g><path style="opacity:1" fill="#fafafa" d="M 269.5,224.5 C 285.07,223.697 296.57,230.03 304,243.5C 305.775,261.103 297.941,271.603 280.5,275C 265.893,277.444 254.393,272.61 246,260.5C 240.925,247.806 244.092,237.64 255.5,230C 260.017,227.445 264.684,225.612 269.5,224.5 Z"/></g>
<g><path style="opacity:0.012" fill="#fefffe" d="M 133.5,226.5 C 134.833,227.167 134.833,227.167 133.5,226.5 Z"/></g>
<g><path style="opacity:0.012" fill="#fdfefd" d="M 133.5,229.5 C 132.833,228.167 132.833,228.167 133.5,229.5 Z"/></g>
<g><path style="opacity:0.016" fill="#fefffe" d="M 430.5,242.5 C 429.833,241.167 429.833,241.167 430.5,242.5 Z"/></g>
<g><path style="opacity:0.008" fill="#fefffe" d="M 430.5,242.5 C 431.833,243.167 431.833,243.167 430.5,242.5 Z"/></g>
<g><path style="opacity:1" fill="#fafafa" d="M 377.5,242.5 C 390.717,241.07 401.884,245.07 411,254.5C 418.131,274.049 411.297,285.883 390.5,290C 377.057,292.302 366.224,288.135 358,277.5C 352.067,265.618 354.567,255.784 365.5,248C 369.481,245.838 373.481,244.005 377.5,242.5 Z"/></g>
<g><path style="opacity:1" fill="#0e0e0e" d="M 273.5,245.5 C 281.676,245.652 284.01,249.319 280.5,256.5C 272.357,259.377 268.857,256.71 270,248.5C 271.145,247.364 272.312,246.364 273.5,245.5 Z"/></g>
<g><path style="opacity:0.008" fill="#fefefe" d="M 434.5,251.5 C 434.369,250.761 434.536,250.094 435,249.5C 435.692,250.437 435.525,251.103 434.5,251.5 Z"/></g>
<g><path style="opacity:1" fill="#8c6b5c" d="M 225.5,261.5 C 225.869,266.087 227.869,270.254 231.5,274C 213.134,290.23 201.634,310.396 197,334.5C 196.182,337.227 196.348,339.894 197.5,342.5C 199.833,340.667 202.167,338.833 204.5,337C 205.483,336.409 206.15,336.743 206.5,338C 202.585,357.687 201.585,377.521 203.5,397.5C 179.139,386.111 169.639,367.111 175,340.5C 184.465,309.772 194.131,279.105 204,248.5C 210.847,253.501 218.014,257.834 225.5,261.5 Z"/></g>
<g><path style="opacity:0.012" fill="#fdfefd" d="M 118.5,252.5 C 119.833,253.167 119.833,253.167 118.5,252.5 Z"/></g>
<g><path style="opacity:0.01" fill="#fefefe" d="M 435.5,254.5 C 435.369,253.761 435.536,253.094 436,252.5C 436.692,253.437 436.525,254.103 435.5,254.5 Z"/></g>
<g><path style="opacity:0.009" fill="#fefefe" d="M 436.5,258.5 C 436.351,257.448 436.517,256.448 437,255.5C 437.74,256.749 437.573,257.749 436.5,258.5 Z"/></g>
<g><path style="opacity:0.01" fill="#fefefe" d="M 437.5,274.5 C 437.334,269.489 437.501,264.489 438,259.5C 438.816,264.684 438.65,269.684 437.5,274.5 Z"/></g>
<g><path style="opacity:1" fill="#121212" d="M 383.5,261.5 C 388.333,261.241 391.333,263.408 392.5,268C 390.676,273.746 387.009,275.412 381.5,273C 377.196,268.352 377.862,264.518 383.5,261.5 Z"/></g>
<g><path style="opacity:1" fill="#bf9a8a" d="M 225.5,261.5 C 237.628,266.376 249.628,271.543 261.5,277C 268.806,278.698 276.139,278.865 283.5,277.5C 298.185,280.755 310.685,287.755 321,298.5C 332.33,289.581 345.163,284.748 359.5,284C 367.688,291.445 377.355,294.778 388.5,294C 377.656,307.519 369.823,322.685 365,339.5C 359.857,358.498 356.857,377.832 356,397.5C 351.652,401.758 346.486,404.592 340.5,406C 338.963,407.11 338.297,408.61 338.5,410.5C 324.147,410.183 309.814,409.516 295.5,408.5C 287.729,406.845 279.729,406.178 271.5,406.5C 257.47,406.22 243.47,405.387 229.5,404C 220.487,403.08 211.82,400.913 203.5,397.5C 201.585,377.521 202.585,357.687 206.5,338C 206.15,336.743 205.483,336.409 204.5,337C 202.167,338.833 199.833,340.667 197.5,342.5C 196.348,339.894 196.182,337.227 197,334.5C 201.634,310.396 213.134,290.23 231.5,274C 227.869,270.254 225.869,266.087 225.5,261.5 Z"/></g>
<g><path style="opacity:0.012" fill="#fefffe" d="M 108.5,268.5 C 109.833,269.167 109.833,269.167 108.5,268.5 Z"/></g>
<g><path style="opacity:0.008" fill="#fefffe" d="M 436.5,274.5 C 436.833,274.5 437.167,274.5 437.5,274.5C 437.768,276.099 437.434,277.432 436.5,278.5C 436.5,277.167 436.5,275.833 436.5,274.5 Z"/></g>
<g><path style="opacity:0.007" fill="#fefefe" d="M 435.5,278.5 C 435.833,278.5 436.167,278.5 436.5,278.5C 436.737,279.791 436.404,280.791 435.5,281.5C 435.5,280.5 435.5,279.5 435.5,278.5 Z"/></g>
<g><path style="opacity:0.01" fill="#fefefe" d="M 434.5,281.5 C 434.833,281.5 435.167,281.5 435.5,281.5C 435.167,284.167 434.833,284.167 434.5,281.5 Z"/></g>
<g><path style="opacity:0.012" fill="#fdfefd" d="M 433.5,284.5 C 434.833,285.167 434.833,285.167 433.5,284.5 Z"/></g>
<g><path style="opacity:0.012" fill="#fefffe" d="M 432.5,286.5 C 433.833,287.167 433.833,287.167 432.5,286.5 Z"/></g>
<g><path style="opacity:0.008" fill="#fefffe" d="M 431.5,287.5 C 431.833,287.5 432.167,287.5 432.5,287.5C 432.672,288.492 432.338,289.158 431.5,289.5C 431.5,288.833 431.5,288.167 431.5,287.5 Z"/></g>
<g><path style="opacity:0.008" fill="#fefffe" d="M 94.5,289.5 C 95.8333,290.167 95.8333,290.167 94.5,289.5 Z"/></g>
<g><path style="opacity:1" fill="#120e0d" d="M 284.5,289.5 C 286.124,289.36 287.29,290.027 288,291.5C 288.207,295.089 288.707,298.589 289.5,302C 303.043,308.338 317.21,310.172 332,307.5C 335.662,303.343 339.829,299.676 344.5,296.5C 345.932,296.733 346.432,297.4 346,298.5C 335.675,305.309 333.175,314.309 338.5,325.5C 337.349,326.731 336.183,326.731 335,325.5C 332.896,321.078 332.063,316.412 332.5,311.5C 329.5,311.5 326.5,311.5 323.5,311.5C 322.13,321.518 316.464,325.684 306.5,324C 301.369,320.109 299.035,314.943 299.5,308.5C 295.433,307.886 291.6,306.552 288,304.5C 286.412,308.255 283.912,311.255 280.5,313.5C 279.417,312.635 279.251,311.635 280,310.5C 285.297,304.356 286.797,297.356 284.5,289.5 Z"/></g>
<g><path style="opacity:0.012" fill="#fefffe" d="M 430.5,289.5 C 430.833,289.5 431.167,289.5 431.5,289.5C 431.315,290.17 430.981,290.17 430.5,289.5 Z"/></g>
<g><path style="opacity:0.008" fill="#fefffe" d="M 429.5,291.5 C 430.833,292.167 430.833,292.167 429.5,291.5 Z"/></g>
<g><path style="opacity:0.012" fill="#fdfefd" d="M 428.5,292.5 C 428.833,292.5 429.167,292.5 429.5,292.5C 429.315,293.17 428.981,293.17 428.5,292.5 Z"/></g>
<g><path style="opacity:0.016" fill="#fefffe" d="M 427.5,293.5 C 427.833,293.5 428.167,293.5 428.5,293.5C 428.315,294.17 427.981,294.17 427.5,293.5 Z"/></g>
<g><path style="opacity:0.008" fill="#fefffe" d="M 426.5,294.5 C 426.833,294.5 427.167,294.5 427.5,294.5C 427.315,295.17 426.981,295.17 426.5,294.5 Z"/></g>
<g><path style="opacity:0.004" fill="#fefffe" d="M 425.5,296.5 C 426.833,297.167 426.833,297.167 425.5,296.5 Z"/></g>
<g><path style="opacity:0.004" fill="#fdfefd" d="M 425.5,297.5 C 424.833,298.167 424.833,298.167 425.5,297.5 Z"/></g>
<g><path style="opacity:0.004" fill="#fefffe" d="M 424.5,298.5 C 423.833,299.167 423.833,299.167 424.5,298.5 Z"/></g>
<g><path style="opacity:0.004" fill="#fefffe" d="M 421.5,300.5 C 421.5,300.167 421.5,299.833 421.5,299.5C 422.167,299.5 422.833,299.5 423.5,299.5C 423.158,300.338 422.492,300.672 421.5,300.5 Z"/></g>
<g><path style="opacity:0.012" fill="#fefffe" d="M 420.5,300.5 C 420.833,300.5 421.167,300.5 421.5,300.5C 421.315,301.17 420.981,301.17 420.5,300.5 Z"/></g>
<g><path style="opacity:0.016" fill="#fefffe" d="M 419.5,301.5 C 419.833,301.5 420.167,301.5 420.5,301.5C 420.315,302.17 419.981,302.17 419.5,301.5 Z"/></g>
<g><path style="opacity:0.012" fill="#fefffe" d="M 418.5,302.5 C 418.833,302.5 419.167,302.5 419.5,302.5C 419.315,303.17 418.981,303.17 418.5,302.5 Z"/></g>
<g><path style="opacity:0.006" fill="#fefffe" d="M 416.5,304.5 C 416.5,304.167 416.5,303.833 416.5,303.5C 417.167,303.5 417.833,303.5 418.5,303.5C 418.158,304.338 417.492,304.672 416.5,304.5 Z"/></g>
<g><path style="opacity:0.016" fill="#fefffe" d="M 415.5,304.5 C 415.833,304.5 416.167,304.5 416.5,304.5C 416.315,305.17 415.981,305.17 415.5,304.5 Z"/></g>
<g><path style="opacity:0.006" fill="#fefefe" d="M 413.5,306.5 C 413.5,306.167 413.5,305.833 413.5,305.5C 414.167,305.5 414.833,305.5 415.5,305.5C 415.158,306.338 414.492,306.672 413.5,306.5 Z"/></g>
<g><path style="opacity:0.012" fill="#fefffe" d="M 413.5,306.5 C 412.833,307.167 412.833,307.167 413.5,306.5 Z"/></g>
<g><path style="opacity:0.012" fill="#fdfefd" d="M 410.5,307.5 C 411.833,308.167 411.833,308.167 410.5,307.5 Z"/></g>
<g><path style="opacity:0.012" fill="#fefffe" d="M 408.5,308.5 C 409.833,309.167 409.833,309.167 408.5,308.5 Z"/></g>
<g><path style="opacity:0.01" fill="#fefffe" d="M 405.5,310.5 C 405.5,310.167 405.5,309.833 405.5,309.5C 408.167,309.833 408.167,310.167 405.5,310.5 Z"/></g>
<g><path style="opacity:0.014" fill="#fdfefd" d="M 403.5,311.5 C 403.5,311.167 403.5,310.833 403.5,310.5C 404.167,310.5 404.833,310.5 405.5,310.5C 405.158,311.338 404.492,311.672 403.5,311.5 Z"/></g>
<g><path style="opacity:0.006" fill="#fefffe" d="M 402.5,311.5 C 402.833,311.5 403.167,311.5 403.5,311.5C 403.672,312.492 403.338,313.158 402.5,313.5C 402.5,312.833 402.5,312.167 402.5,311.5 Z"/></g>
<g><path style="opacity:0.016" fill="#fefffe" d="M 401.5,313.5 C 401.833,313.5 402.167,313.5 402.5,313.5C 402.315,314.17 401.981,314.17 401.5,313.5 Z"/></g>
<g><path style="opacity:0.008" fill="#fefffe" d="M 400.5,314.5 C 400.833,314.5 401.167,314.5 401.5,314.5C 401.672,315.492 401.338,316.158 400.5,316.5C 400.5,315.833 400.5,315.167 400.5,314.5 Z"/></g>
<g><path style="opacity:0.016" fill="#fefffe" d="M 399.5,316.5 C 399.833,316.5 400.167,316.5 400.5,316.5C 400.315,317.17 399.981,317.17 399.5,316.5 Z"/></g>
<g><path style="opacity:1" fill="#a5596b" d="M 302.5,310.5 C 304.857,310.337 307.19,310.503 309.5,311C 310.103,312.825 310.77,314.659 311.5,316.5C 313.217,315.332 313.884,313.665 313.5,311.5C 315.924,311.192 318.257,311.526 320.5,312.5C 318.566,319.302 314.233,322.135 307.5,321C 304.397,318.194 302.73,314.694 302.5,310.5 Z"/></g>
<g><path style="opacity:0.006" fill="#fefefe" d="M 398.5,317.5 C 398.833,317.5 399.167,317.5 399.5,317.5C 399.672,318.492 399.338,319.158 398.5,319.5C 398.5,318.833 398.5,318.167 398.5,317.5 Z"/></g>
<g><path style="opacity:0.01" fill="#fefffe" d="M 397.5,319.5 C 397.833,319.5 398.167,319.5 398.5,319.5C 398.672,320.492 398.338,321.158 397.5,321.5C 397.5,320.833 397.5,320.167 397.5,319.5 Z"/></g>
<g><path style="opacity:0.008" fill="#fefffe" d="M 396.5,321.5 C 396.833,321.5 397.167,321.5 397.5,321.5C 397.672,322.492 397.338,323.158 396.5,323.5C 396.5,322.833 396.5,322.167 396.5,321.5 Z"/></g>
<g><path style="opacity:0.008" fill="#fefffe" d="M 69.5,323.5 C 70.8333,324.167 70.8333,324.167 69.5,323.5 Z"/></g>
<g><path style="opacity:0.008" fill="#fefffe" d="M 395.5,323.5 C 395.833,323.5 396.167,323.5 396.5,323.5C 396.672,324.492 396.338,325.158 395.5,325.5C 395.5,324.833 395.5,324.167 395.5,323.5 Z"/></g>
<g><path style="opacity:0.01" fill="#fefefe" d="M 394.5,325.5 C 394.833,325.5 395.167,325.5 395.5,325.5C 395.672,326.492 395.338,327.158 394.5,327.5C 394.5,326.833 394.5,326.167 394.5,325.5 Z"/></g>
<g><path style="opacity:0.01" fill="#fefffe" d="M 393.5,327.5 C 393.833,327.5 394.167,327.5 394.5,327.5C 394.167,330.167 393.833,330.167 393.5,327.5 Z"/></g>
<g><path style="opacity:0.008" fill="#fefefe" d="M 392.5,332.5 C 392.369,331.761 392.536,331.094 393,330.5C 393.692,331.437 393.525,332.103 392.5,332.5 Z"/></g>
<g><path style="opacity:0.01" fill="#fefffe" d="M 391.5,332.5 C 391.833,332.5 392.167,332.5 392.5,332.5C 392.167,335.167 391.833,335.167 391.5,332.5 Z"/></g>
<g><path style="opacity:0.008" fill="#fefffe" d="M 390.5,337.5 C 390.369,336.761 390.536,336.094 391,335.5C 391.692,336.437 391.525,337.103 390.5,337.5 Z"/></g>
<g><path style="opacity:0.007" fill="#fefffe" d="M 389.5,337.5 C 389.833,337.5 390.167,337.5 390.5,337.5C 390.737,338.791 390.404,339.791 389.5,340.5C 389.5,339.5 389.5,338.5 389.5,337.5 Z"/></g>
<g><path style="opacity:0.01" fill="#fefffe" d="M 50.5,340.5 C 50.8966,339.475 51.5632,339.308 52.5,340C 51.9056,340.464 51.2389,340.631 50.5,340.5 Z"/></g>
<g><path style="opacity:0.01" fill="#fefefe" d="M 47.5,341.5 C 47.8966,340.475 48.5632,340.308 49.5,341C 48.9056,341.464 48.2389,341.631 47.5,341.5 Z"/></g>
<g><path style="opacity:0.008" fill="#fefffe" d="M 388.5,340.5 C 388.833,340.5 389.167,340.5 389.5,340.5C 389.167,344.5 388.833,344.5 388.5,340.5 Z"/></g>
<g><path style="opacity:0.01" fill="#fefefe" d="M 44.5,342.5 C 44.8966,341.475 45.5632,341.308 46.5,342C 45.9056,342.464 45.2389,342.631 44.5,342.5 Z"/></g>
<g><path style="opacity:0.01" fill="#fefffe" d="M 41.5,343.5 C 41.8966,342.475 42.5632,342.308 43.5,343C 42.9056,343.464 42.2389,343.631 41.5,343.5 Z"/></g>
<g><path style="opacity:0.01" fill="#fefffe" d="M 40.5,344.5 C 39.7611,344.631 39.0944,344.464 38.5,344C 39.4368,343.308 40.1034,343.475 40.5,344.5 Z"/></g>
<g><path style="opacity:0.01" fill="#fefffe" d="M 37.5,345.5 C 36.7611,345.631 36.0944,345.464 35.5,345C 36.4368,344.308 37.1034,344.475 37.5,345.5 Z"/></g>
<g><path style="opacity:0.01" fill="#fefefe" d="M 387.5,344.5 C 388.525,344.897 388.692,345.563 388,346.5C 387.536,345.906 387.369,345.239 387.5,344.5 Z"/></g>
<g><path style="opacity:0.012" fill="#fefefe" d="M 34.5,346.5 C 33.7611,346.631 33.0944,346.464 32.5,346C 33.4368,345.308 34.1034,345.475 34.5,346.5 Z"/></g>
<g><path style="opacity:0.009" fill="#fefefe" d="M 386.5,347.5 C 387.573,348.251 387.74,349.251 387,350.5C 386.517,349.552 386.351,348.552 386.5,347.5 Z"/></g>
<g><path style="opacity:0.012" fill="#fefffe" d="M 24.5,348.5 C 25.8333,349.167 25.8333,349.167 24.5,348.5 Z"/></g>
<g><path style="opacity:0.009" fill="#fefffe" d="M 385.5,351.5 C 386.573,352.251 386.74,353.251 386,354.5C 385.517,353.552 385.351,352.552 385.5,351.5 Z"/></g>
<g><path style="opacity:0.009" fill="#fefefe" d="M 384.5,355.5 C 385.833,356.833 385.833,358.167 384.5,359.5C 384.5,358.167 384.5,356.833 384.5,355.5 Z"/></g>
<g><path style="opacity:0.008" fill="#fefffe" d="M 15.5,356.5 C 16.8333,357.167 16.8333,357.167 15.5,356.5 Z"/></g>
<g><path style="opacity:0.012" fill="#fefffe" d="M 15.5,359.5 C 14.8333,358.167 14.8333,358.167 15.5,359.5 Z"/></g>
<g><path style="opacity:0.008" fill="#fefffe" d="M 383.5,359.5 C 383.833,359.5 384.167,359.5 384.5,359.5C 384.167,366.167 383.833,366.167 383.5,359.5 Z"/></g>
<g><path style="opacity:0.01" fill="#fefffe" d="M 382.5,365.5 C 383.598,366.601 383.765,367.934 383,369.5C 382.51,368.207 382.343,366.873 382.5,365.5 Z"/></g>
<g><path style="opacity:0.009" fill="#fefffe" d="M 381.5,377.5 C 381.338,375.473 381.505,373.473 382,371.5C 382.789,373.712 382.622,375.712 381.5,377.5 Z"/></g>
<g><path style="opacity:0.009" fill="#fefefe" d="M 380.5,377.5 C 380.833,377.5 381.167,377.5 381.5,377.5C 381.167,388.167 380.833,388.167 380.5,377.5 Z"/></g>
<g><path style="opacity:0.009" fill="#fefefe" d="M 379.5,386.5 C 380.648,390.981 380.815,395.648 380,400.5C 379.501,395.845 379.334,391.179 379.5,386.5 Z"/></g>
<g><path style="opacity:0.008" fill="#fefffe" d="M 378.5,404.5 C 378.351,403.448 378.517,402.448 379,401.5C 379.74,402.749 379.573,403.749 378.5,404.5 Z"/></g>
<g><path style="opacity:0.008" fill="#fefefe" d="M 377.5,404.5 C 377.833,404.5 378.167,404.5 378.5,404.5C 378.672,405.492 378.338,406.158 377.5,406.5C 377.5,405.833 377.5,405.167 377.5,404.5 Z"/></g>
<g><path style="opacity:1" fill="#7f665b" d="M 271.5,406.5 C 279.729,406.178 287.729,406.845 295.5,408.5C 287.319,408.224 279.319,407.557 271.5,406.5 Z"/></g>
<g><path style="opacity:0.008" fill="#fefffe" d="M 376.5,406.5 C 376.833,406.5 377.167,406.5 377.5,406.5C 377.672,407.492 377.338,408.158 376.5,408.5C 376.5,407.833 376.5,407.167 376.5,406.5 Z"/></g>
<g><path style="opacity:0.012" fill="#fdfefd" d="M 375.5,408.5 C 375.833,408.5 376.167,408.5 376.5,408.5C 376.315,409.17 375.981,409.17 375.5,408.5 Z"/></g>
<g><path style="opacity:0.024" fill="#fefffe" d="M 374.5,410.5 C 375.833,411.167 375.833,411.167 374.5,410.5 Z"/></g>
<g><path style="opacity:0.016" fill="#fefffe" d="M 381.5,414.5 C 382.833,415.167 382.833,415.167 381.5,414.5 Z"/></g>
<g><path style="opacity:0.012" fill="#fefffe" d="M 392.5,420.5 C 393.833,421.167 393.833,421.167 392.5,420.5 Z"/></g>
<g><path style="opacity:1" fill="#1b1c50" d="M 341.5,419.5 C 383.779,442.642 426.112,465.809 468.5,489C 458.733,489.947 449.066,489.613 439.5,488C 405.641,468.574 371.974,448.907 338.5,429C 339.607,425.846 340.607,422.68 341.5,419.5 Z"/></g>
<g><path style="opacity:0.012" fill="#fefffe" d="M 394.5,421.5 C 395.833,422.167 395.833,422.167 394.5,421.5 Z"/></g>
<g><path style="opacity:0.016" fill="#fefffe" d="M 401.5,425.5 C 402.833,426.167 402.833,426.167 401.5,425.5 Z"/></g>
<g><path style="opacity:0.012" fill="#fefffe" d="M 403.5,426.5 C 404.833,427.167 404.833,427.167 403.5,426.5 Z"/></g>
<g><path style="opacity:0.012" fill="#fefffe" d="M 405.5,427.5 C 406.833,428.167 406.833,428.167 405.5,427.5 Z"/></g>
<g><path style="opacity:0.012" fill="#fdfefd" d="M 412.5,431.5 C 413.833,432.167 413.833,432.167 412.5,431.5 Z"/></g>
<g><path style="opacity:0.016" fill="#fefffe" d="M 421.5,436.5 C 422.833,437.167 422.833,437.167 421.5,436.5 Z"/></g>
<g><path style="opacity:0.012" fill="#fefffe" d="M 423.5,437.5 C 424.833,438.167 424.833,438.167 423.5,437.5 Z"/></g>
<g><path style="opacity:0.012" fill="#fefffe" d="M 425.5,438.5 C 426.833,439.167 426.833,439.167 425.5,438.5 Z"/></g>
<g><path style="opacity:0.016" fill="#fefffe" d="M 432.5,442.5 C 433.833,443.167 433.833,443.167 432.5,442.5 Z"/></g>
<g><path style="opacity:0.016" fill="#fefffe" d="M 441.5,447.5 C 442.833,448.167 442.833,448.167 441.5,447.5 Z"/></g>
<g><path style="opacity:0.012" fill="#fefffe" d="M 443.5,448.5 C 444.833,449.167 444.833,449.167 443.5,448.5 Z"/></g>
<g><path style="opacity:0.012" fill="#fefffe" d="M 445.5,449.5 C 446.833,450.167 446.833,450.167 445.5,449.5 Z"/></g>
<g><path style="opacity:0.016" fill="#fefffe" d="M 452.5,453.5 C 453.833,454.167 453.833,454.167 452.5,453.5 Z"/></g>
<g><path style="opacity:0.012" fill="#fefffe" d="M 454.5,454.5 C 455.833,455.167 455.833,455.167 454.5,454.5 Z"/></g>
<g><path style="opacity:0.012" fill="#fefffe" d="M 456.5,455.5 C 457.833,456.167 457.833,456.167 456.5,455.5 Z"/></g>
<g><path style="opacity:0.012" fill="#fdfefd" d="M 463.5,459.5 C 464.833,460.167 464.833,460.167 463.5,459.5 Z"/></g>
<g><path style="opacity:0.012" fill="#fdfefd" d="M 465.5,460.5 C 466.833,461.167 466.833,461.167 465.5,460.5 Z"/></g>
<g><path style="opacity:0.016" fill="#fefffe" d="M 472.5,464.5 C 473.833,465.167 473.833,465.167 472.5,464.5 Z"/></g>
<g><path style="opacity:0.012" fill="#fefffe" d="M 474.5,465.5 C 475.833,466.167 475.833,466.167 474.5,465.5 Z"/></g>
<g><path style="opacity:0.012" fill="#fefffe" d="M 476.5,466.5 C 477.833,467.167 477.833,467.167 476.5,466.5 Z"/></g>
<g><path style="opacity:0.012" fill="#fefffe" d="M 483.5,470.5 C 484.833,471.167 484.833,471.167 483.5,470.5 Z"/></g>
<g><path style="opacity:0.012" fill="#fefffe" d="M 486.5,472.5 C 487.833,473.167 487.833,473.167 486.5,472.5 Z"/></g>
<g><path style="opacity:0.008" fill="#fefffe" d="M 488.5,473.5 C 489.833,474.167 489.833,474.167 488.5,473.5 Z"/></g>
<g><path style="opacity:0.008" fill="#fefffe" d="M 491.5,476.5 C 490.833,475.167 490.833,475.167 491.5,476.5 Z"/></g>
<g><path style="opacity:0.004" fill="#fdfefd" d="M 491.5,476.5 C 492.833,477.167 492.833,477.167 491.5,476.5 Z"/></g>
<g><path style="opacity:0.012" fill="#fdfefd" d="M 493.5,479.5 C 492.833,478.167 492.833,478.167 493.5,479.5 Z"/></g>
<g><path style="opacity:0.012" fill="#fefffe" d="M 493.5,479.5 C 494.833,480.167 494.833,480.167 493.5,479.5 Z"/></g>
<g><path style="opacity:0.012" fill="#fefffe" d="M 494.5,481.5 C 495.833,482.167 495.833,482.167 494.5,481.5 Z"/></g>
<g><path style="opacity:0.012" fill="#fefffe" d="M 494.5,499.5 C 495.833,500.167 495.833,500.167 494.5,499.5 Z"/></g>
<g><path style="opacity:0.008" fill="#fefffe" d="M 493.5,501.5 C 494.833,502.167 494.833,502.167 493.5,501.5 Z"/></g>
<g><path style="opacity:0.012" fill="#fefffe" d="M 492.5,502.5 C 492.833,502.5 493.167,502.5 493.5,502.5C 493.315,503.17 492.981,503.17 492.5,502.5 Z"/></g>
<g><path style="opacity:0.012" fill="#fefffe" d="M 486.5,508.5 C 487.833,509.167 487.833,509.167 486.5,508.5 Z"/></g>
<g><path style="opacity:0.006" fill="#fefffe" d="M 484.5,510.5 C 484.5,510.167 484.5,509.833 484.5,509.5C 485.167,509.5 485.833,509.5 486.5,509.5C 486.158,510.338 485.492,510.672 484.5,510.5 Z"/></g>
<g><path style="opacity:0.008" fill="#fefffe" d="M 24.5,511.5 C 24.8417,510.662 25.5084,510.328 26.5,510.5C 26.5,510.833 26.5,511.167 26.5,511.5C 25.8333,511.5 25.1667,511.5 24.5,511.5 Z"/></g>
<g><path style="opacity:0.008" fill="#fefefe" d="M 482.5,511.5 C 482.5,511.167 482.5,510.833 482.5,510.5C 483.167,510.5 483.833,510.5 484.5,510.5C 484.5,510.833 484.5,511.167 484.5,511.5C 483.833,511.5 483.167,511.5 482.5,511.5 Z"/></g>
</svg>
