<?xml version="1.0" encoding="UTF-8"?>
<!DOCTYPE svg PUBLIC "-//W3C//DTD SVG 1.1//EN" "http://www.w3.org/Graphics/SVG/1.1/DTD/svg11.dtd">
<svg xmlns="http://www.w3.org/2000/svg" version="1.1" width="948px" height="948px" style="shape-rendering:geometricPrecision; text-rendering:geometricPrecision; image-rendering:optimizeQuality; fill-rule:evenodd; clip-rule:evenodd" xmlns:xlink="http://www.w3.org/1999/xlink">
<g><path style="opacity:1" fill="#2e2e2e" d="M 248.5,42.5 C 246.451,40.5823 244.117,39.0823 241.5,38C 236.349,37.1818 231.349,37.6818 226.5,39.5C 230.916,34.5931 236.25,33.4265 242.5,36C 245.409,37.4055 247.409,39.5722 248.5,42.5 Z"/></g>
<g><path style="opacity:1" fill="#010101" d="M 248.5,42.5 C 249.687,44.7402 250.354,47.2402 250.5,50C 248.15,82.115 246.983,114.282 247,146.5C 245.612,160.49 244.445,174.49 243.5,188.5C 242.71,189.609 242.21,190.942 242,192.5C 241.501,197.155 241.334,201.821 241.5,206.5C 240.697,221.503 240.197,236.503 240,251.5C 321.532,185.666 414.698,158.166 519.5,169C 599.647,179.25 668.981,211.75 727.5,266.5C 727.56,267.043 727.893,267.376 728.5,267.5C 729.48,264.914 729.813,262.247 729.5,259.5C 730.618,200.508 730.785,141.508 730,82.5C 728.925,78.23 728.425,73.8967 728.5,69.5C 728.326,62.4648 728.659,55.4648 729.5,48.5C 731.833,46.8333 733.833,44.8333 735.5,42.5C 739.833,42.5 744.167,42.5 748.5,42.5C 752.153,43.9894 754.653,46.6561 756,50.5C 762.271,71.6415 769.937,92.3082 779,112.5C 781.202,126.911 783.869,141.245 787,155.5C 787.897,161.806 788.397,168.139 788.5,174.5C 789.08,176.749 790.413,178.415 792.5,179.5C 795.15,195.361 797.983,211.361 801,227.5C 801.333,233.833 801.667,240.167 802,246.5C 806.66,259.157 811.327,271.823 816,284.5C 819.112,292.616 821.446,300.949 823,309.5C 824.636,331.16 824.969,352.826 824,374.5C 828.502,383.169 832.169,392.169 835,401.5C 838.348,418.418 839.348,435.418 838,452.5C 836.954,454.09 835.787,455.59 834.5,457C 858.079,580.539 828.579,689.373 746,783.5C 714.407,817.367 677.907,844.534 636.5,865C 620.432,878.384 602.432,888.384 582.5,895C 559.794,898.729 537.128,902.562 514.5,906.5C 505.983,906.174 497.65,906.507 489.5,907.5C 478.495,907.667 467.495,907.5 456.5,907C 444.627,904.455 432.627,902.788 420.5,902C 411.987,899.359 403.32,897.359 394.5,896C 373.511,888.337 352.511,880.67 331.5,873C 237.98,831.814 171.813,763.981 133,669.5C 100.295,582.922 99.1284,495.922 129.5,408.5C 128.873,407.583 128.539,406.583 128.5,405.5C 128.413,400.463 128.746,395.463 129.5,390.5C 130.819,385.555 131.986,380.555 133,375.5C 134.201,360.488 135.534,345.488 137,330.5C 147.192,264.067 163.192,199.067 185,135.5C 193.98,115.868 200.98,95.5343 206,74.5C 212.762,63.9802 218.762,52.9802 224,41.5C 224.708,40.6195 225.542,39.9528 226.5,39.5C 231.349,37.6818 236.349,37.1818 241.5,38C 244.117,39.0823 246.451,40.5823 248.5,42.5 Z"/></g>
<g><path style="opacity:1" fill="#474747" d="M 748.5,42.5 C 744.167,42.5 739.833,42.5 735.5,42.5C 737.29,41.0027 739.456,40.336 742,40.5C 744.544,40.336 746.71,41.0027 748.5,42.5 Z"/></g>
<g><path style="opacity:1" fill="#595959" d="M 735.5,42.5 C 733.833,44.8333 731.833,46.8333 729.5,48.5C 730.5,45.5 732.5,43.5 735.5,42.5 Z"/></g>
<g><path style="opacity:1" fill="#585858" d="M 729.5,48.5 C 728.659,55.4648 728.326,62.4648 728.5,69.5C 727.835,66.6862 727.502,63.6862 727.5,60.5C 727.278,56.2032 727.945,52.2032 729.5,48.5 Z"/></g>
<g><path style="opacity:1" fill="#424242" d="M 215.5,86.5 C 220.331,85.6671 222.664,87.6671 222.5,92.5C 221.704,97.0528 220.204,101.386 218,105.5C 212.99,107.661 210.49,105.994 210.5,100.5C 210.991,95.3581 212.657,90.6915 215.5,86.5 Z"/></g>
<g><path style="opacity:1" fill="#3d3d3d" d="M 744.5,89.5 C 749.492,88.4921 751.492,90.4921 750.5,95.5C 750.31,99.9787 749.476,104.312 748,108.5C 746.556,110.155 744.722,110.822 742.5,110.5C 743.722,105.502 743.722,100.502 742.5,95.5C 742.363,93.1595 743.03,91.1595 744.5,89.5 Z"/></g>
<g><path style="opacity:1" fill="#414141" d="M 193.5,145.5 C 200.182,144.825 202.682,147.825 201,154.5C 200.654,156.848 199.487,158.681 197.5,160C 194.318,161.712 191.318,163.545 188.5,165.5C 190.1,160.388 190.933,155.055 191,149.5C 191.662,148.016 192.496,146.683 193.5,145.5 Z"/></g>
<g><path style="opacity:1" fill="#545454" d="M 788.5,174.5 C 790.587,175.585 791.92,177.251 792.5,179.5C 790.413,178.415 789.08,176.749 788.5,174.5 Z"/></g>
<g><path style="opacity:1" fill="#464646" d="M 243.5,188.5 C 243.156,194.678 242.489,200.678 241.5,206.5C 241.334,201.821 241.501,197.155 242,192.5C 242.21,190.942 242.71,189.609 243.5,188.5 Z"/></g>
<g><path style="opacity:1" fill="#434343" d="M 749.5,196.5 C 750.822,196.33 751.989,196.663 753,197.5C 756.897,209.824 759.063,222.49 759.5,235.5C 758.315,247.216 756.815,258.883 755,270.5C 751.946,278.016 748.279,278.349 744,271.5C 743.833,268 743.667,264.5 743.5,261C 745.059,246.868 746.226,232.702 747,218.5C 749.689,211.31 750.522,203.977 749.5,196.5 Z"/></g>
<g><path style="opacity:1" fill="#434343" d="M 300.5,234.5 C 303.694,234.176 304.694,235.342 303.5,238C 289.553,247.614 275.886,257.614 262.5,268C 259.202,272.3 255.535,276.3 251.5,280C 244.333,282.167 241.833,279.667 244,272.5C 255.503,259.167 269.003,248.333 284.5,240C 288.42,238.687 292.42,237.687 296.5,237C 298.066,236.392 299.4,235.558 300.5,234.5 Z"/></g>
<g><path style="opacity:1" fill="#444444" d="M 514.5,248.5 C 519.654,249.612 520.82,252.612 518,257.5C 517.771,274.52 517.105,291.52 516,308.5C 514.287,313.038 511.12,314.538 506.5,313C 505.874,312.25 505.374,311.416 505,310.5C 503.884,296.512 503.551,282.512 504,268.5C 505.148,260.536 508.648,253.869 514.5,248.5 Z"/></g>
<g><path style="opacity:1" fill="#444444" d="M 609.5,241.5 C 610.833,241.5 612.167,241.5 613.5,241.5C 613.649,242.552 613.483,243.552 613,244.5C 609.747,246.543 606.58,248.71 603.5,251C 599.211,256.958 594.544,262.624 589.5,268C 569.918,285.586 549.751,302.42 529,318.5C 527.994,320.534 527.494,322.7 527.5,325C 529.642,333.569 531.309,342.236 532.5,351C 532.359,354.552 531.859,358.052 531,361.5C 530.439,362.022 529.772,362.355 529,362.5C 527.056,361.561 525.389,360.227 524,358.5C 521,350.5 518,342.5 515,334.5C 511.407,321.24 514.907,310.407 525.5,302C 542.41,289.761 558.743,276.761 574.5,263C 583.182,256.655 592.515,251.322 602.5,247C 605.02,245.303 607.353,243.47 609.5,241.5 Z"/></g>
<g><path style="opacity:1" fill="#424242" d="M 154.5,250.5 C 158.375,249.874 160.209,251.541 160,255.5C 160.838,271.526 162.004,287.526 163.5,303.5C 163.606,320.467 161.44,337.134 157,353.5C 155.106,358.392 152.772,363.059 150,367.5C 148.987,369.846 147.321,371.513 145,372.5C 143.053,371.956 142.22,370.623 142.5,368.5C 146.622,354.485 149.122,340.151 150,325.5C 150.359,309.721 151.692,294.054 154,278.5C 154.5,269.173 154.666,259.839 154.5,250.5 Z"/></g>
<g><path style="opacity:1" fill="#616161" d="M 729.5,259.5 C 729.813,262.247 729.48,264.914 728.5,267.5C 727.893,267.376 727.56,267.043 727.5,266.5C 728.167,264.167 728.833,261.833 729.5,259.5 Z"/></g>
<g><path style="opacity:1" fill="#434343" d="M 409.5,247.5 C 425.53,247.384 440.864,250.551 455.5,257C 460.757,264.955 466.924,272.455 474,279.5C 482.333,291.5 490.667,303.5 499,315.5C 506.809,330.561 506.142,345.227 497,359.5C 492.756,363.971 489.59,363.471 487.5,358C 489.329,353.18 491.163,348.347 493,343.5C 493.667,340.833 493.667,338.167 493,335.5C 485.572,343.097 478.072,350.43 470.5,357.5C 466.986,359.265 465.486,358.265 466,354.5C 471.302,344.193 478.469,335.36 487.5,328C 488.793,327.51 490.127,327.343 491.5,327.5C 491.509,325.692 491.009,324.025 490,322.5C 480.168,307.329 471.168,291.662 463,275.5C 460.872,272.37 458.372,269.537 455.5,267C 439.618,267.868 424.284,265.201 409.5,259C 405.89,257.056 402.557,254.723 399.5,252C 402.775,250.194 406.109,248.694 409.5,247.5 Z"/></g>
<g><path style="opacity:1" fill="#404040" d="M 313.5,303.5 C 327.928,302.29 341.928,304.123 355.5,309C 359.167,309.333 362.833,309.667 366.5,310C 385.764,320.26 401.597,334.427 414,352.5C 418.167,356 422.333,359.5 426.5,363C 425.833,363.667 425.167,363.667 424.5,363C 417.109,357.277 409.443,351.944 401.5,347C 390.534,337.703 379.868,328.036 369.5,318C 368.391,317.362 367.225,316.862 366,316.5C 362.645,318.263 359.145,319.596 355.5,320.5C 344.42,317.984 333.42,315.151 322.5,312C 318.484,311.814 314.484,311.814 310.5,312C 309.196,311.196 308.529,310.029 308.5,308.5C 309.855,306.479 311.521,304.812 313.5,303.5 Z"/></g>
<g><path style="opacity:1" fill="#3f3f3f" d="M 470.5,318.5 C 475.835,318.005 478.335,320.338 478,325.5C 474.768,328.171 471.268,330.338 467.5,332C 466.5,332.667 465.5,332.667 464.5,332C 463.24,330.186 463.24,328.353 464.5,326.5C 466.497,323.842 468.497,321.175 470.5,318.5 Z"/></g>
<g><path style="opacity:1" fill="#444444" d="M 683.5,325.5 C 691.84,325.334 700.173,325.5 708.5,326C 711.076,326.782 713.076,328.282 714.5,330.5C 712.269,332.886 709.603,334.719 706.5,336C 689.643,340.464 672.643,344.464 655.5,348C 640.694,348.857 626.027,350.691 611.5,353.5C 611.67,354.822 611.337,355.989 610.5,357C 597.521,365.302 584.521,373.636 571.5,382C 564.6,385.098 561.766,382.931 563,375.5C 576.005,366.246 589.838,358.413 604.5,352C 600.244,347.615 600.577,343.615 605.5,340C 620.747,334.884 636.413,332.217 652.5,332C 663.057,330.272 673.39,328.106 683.5,325.5 Z"/></g>
<g><path style="opacity:1" fill="#f8d956" d="M 335.5,331.5 C 337.515,332.924 339.848,333.59 342.5,333.5C 350.289,335.119 358.289,336.285 366.5,337C 369.244,337.803 371.911,338.803 374.5,340C 384.149,348.666 395.482,353.666 408.5,355C 414.338,361.67 420.338,368.17 426.5,374.5C 424.5,374.167 422.5,373.833 420.5,373.5C 422.618,375.34 424.951,377.007 427.5,378.5C 427.881,379.931 428.881,380.764 430.5,381C 429.207,381.49 427.873,381.657 426.5,381.5C 424.786,380.262 422.786,379.595 420.5,379.5C 418.362,377.577 415.862,375.91 413,374.5C 410.901,373.713 408.734,373.38 406.5,373.5C 405.448,371.744 403.781,371.077 401.5,371.5C 398.781,370.087 395.781,369.42 392.5,369.5C 393.183,371.176 394.517,371.843 396.5,371.5C 397.552,373.256 399.219,373.923 401.5,373.5C 401.5,374.833 401.5,376.167 401.5,377.5C 400.5,377.5 399.5,377.5 398.5,377.5C 395.781,376.087 392.781,375.42 389.5,375.5C 387.5,374.833 385.5,374.167 383.5,373.5C 381.285,372.732 378.952,372.065 376.5,371.5C 369.337,371.036 362.337,370.369 355.5,369.5C 345.362,368.137 335.029,367.47 324.5,367.5C 319.145,366.769 313.645,366.102 308,365.5C 302.69,367.341 297.19,368.008 291.5,367.5C 286.065,368.123 280.732,368.79 275.5,369.5C 270.274,370.909 265.274,372.909 260.5,375.5C 257.152,375.711 254.152,376.711 251.5,378.5C 242.402,381.858 233.069,385.024 223.5,388C 222.167,389.667 222.167,391.333 223.5,393C 227.241,394.014 230.907,394.847 234.5,395.5C 237.167,396.167 239.833,396.833 242.5,397.5C 247.269,398.889 252.269,399.556 257.5,399.5C 260.791,400.257 264.124,400.924 267.5,401.5C 273.259,401.214 278.925,401.548 284.5,402.5C 308.649,403.893 332.649,405.226 356.5,406.5C 357.833,407.167 359.167,407.833 360.5,408.5C 355.269,408.444 350.269,409.111 345.5,410.5C 336.896,411.134 328.396,412.467 320,414.5C 302.083,413.447 284.25,411.78 266.5,409.5C 265.549,410.919 265.216,412.585 265.5,414.5C 271.167,414.5 276.833,414.5 282.5,414.5C 287.5,415.167 292.5,415.833 297.5,416.5C 293.298,416.183 289.298,416.517 285.5,417.5C 276.751,418.177 268.085,419.177 259.5,420.5C 254.269,420.444 249.269,421.111 244.5,422.5C 241.615,422.806 238.948,422.473 236.5,421.5C 230.926,417.386 225.592,412.886 220.5,408C 218.975,406.991 217.308,406.491 215.5,406.5C 215.5,407.833 215.5,409.167 215.5,410.5C 216.552,410.351 217.552,410.517 218.5,411C 221.982,415.18 225.982,418.68 230.5,421.5C 225.5,422.167 220.5,422.833 215.5,423.5C 214.167,423.5 212.833,423.5 211.5,423.5C 207.833,423.5 204.167,423.5 200.5,423.5C 200.5,422.167 200.5,420.833 200.5,419.5C 200.779,411.028 201.946,402.695 204,394.5C 205.754,392.75 207.921,392.083 210.5,392.5C 210.5,391.5 210.5,390.5 210.5,389.5C 209.022,389.762 207.689,389.429 206.5,388.5C 207.467,383.531 210.467,381.198 215.5,381.5C 215.523,379.4 214.856,377.567 213.5,376C 215.089,372.159 217.422,368.826 220.5,366C 236.041,354.81 252.375,344.81 269.5,336C 282.23,333.318 294.896,330.318 307.5,327C 312.5,326.333 317.5,326.333 322.5,327C 326.744,328.803 331.078,330.303 335.5,331.5 Z"/></g>
<g><path style="opacity:1" fill="#4b421c" d="M 335.5,331.5 C 338.152,331.41 340.485,332.076 342.5,333.5C 339.848,333.59 337.515,332.924 335.5,331.5 Z"/></g>
<g><path style="opacity:1" fill="#a59139" d="M 675.5,360.5 C 682.022,360.177 688.355,360.51 694.5,361.5C 690.445,361.176 686.445,361.509 682.5,362.5C 683.243,363.182 683.909,363.849 684.5,364.5C 683.5,364.5 682.5,364.5 681.5,364.5C 681.263,360.711 680.596,360.711 679.5,364.5C 678.167,363.167 676.833,361.833 675.5,360.5 Z"/></g>
<g><path style="opacity:1" fill="#f5d655" d="M 675.5,360.5 C 676.833,361.833 678.167,363.167 679.5,364.5C 680.421,367.083 681.754,369.416 683.5,371.5C 684.423,370.697 685.423,370.53 686.5,371C 685.549,371.718 685.383,372.551 686,373.5C 692.817,382.456 699.151,391.789 705,401.5C 705.74,402.749 705.573,403.749 704.5,404.5C 702.887,403.308 701.22,402.308 699.5,401.5C 697.285,400.732 694.952,400.065 692.5,399.5C 687.043,394.714 681.043,390.714 674.5,387.5C 671.975,386.36 669.308,385.693 666.5,385.5C 661.714,384.186 657.047,382.519 652.5,380.5C 649.781,379.087 646.781,378.42 643.5,378.5C 643.158,377.662 642.492,377.328 641.5,377.5C 639.857,377.52 638.524,376.853 637.5,375.5C 632.511,376.781 627.511,378.114 622.5,379.5C 621.614,378.675 621.281,377.675 621.5,376.5C 619.447,376.402 617.78,377.069 616.5,378.5C 613.593,379.787 610.593,380.787 607.5,381.5C 597.903,385.794 588.57,390.461 579.5,395.5C 577.833,395.5 576.167,395.5 574.5,395.5C 574.737,396.791 574.404,397.791 573.5,398.5C 570.135,397.86 566.802,397.026 563.5,396C 562.167,395.333 562.167,394.667 563.5,394C 588.841,384.999 613.508,374.332 637.5,362C 650.092,360.559 662.759,360.059 675.5,360.5 Z"/></g>
<g><path style="opacity:1" fill="#fada56" d="M 694.5,361.5 C 707.704,366.598 721.037,371.431 734.5,376C 744.88,384.715 755.547,393.048 766.5,401C 770.822,406.322 775.489,411.322 780.5,416C 779.224,418.281 777.557,420.281 775.5,422C 769.819,425.173 764.486,428.839 759.5,433C 750.943,435.411 742.276,437.245 733.5,438.5C 732.1,437.9 731.1,436.9 730.5,435.5C 730.167,435.5 729.833,435.5 729.5,435.5C 729.826,429.948 728.493,424.948 725.5,420.5C 724.811,417.811 723.144,416.144 720.5,415.5C 719.732,416.263 719.232,417.263 719,418.5C 718.768,417.263 718.268,416.263 717.5,415.5C 716.833,414.5 716.167,413.5 715.5,412.5C 715.768,410.901 715.434,409.568 714.5,408.5C 713.126,406.286 711.959,403.953 711,401.5C 710.329,400.748 709.496,400.414 708.5,400.5C 706.651,395.634 704.317,390.967 701.5,386.5C 695.509,379.497 689.842,372.164 684.5,364.5C 683.909,363.849 683.243,363.182 682.5,362.5C 686.445,361.509 690.445,361.176 694.5,361.5 Z"/></g>
<g><path style="opacity:1" fill="#615522" d="M 392.5,369.5 C 388.78,369.436 385.114,368.936 381.5,368C 372.447,364.617 363.114,362.117 353.5,360.5C 353.5,359.5 353.5,358.5 353.5,357.5C 358.752,359.52 364.252,360.853 370,361.5C 377.751,364.143 385.251,366.81 392.5,369.5 Z"/></g>
<g><path style="opacity:1" fill="#a18d37" d="M 679.5,364.5 C 681.445,365.028 683.445,366.195 685.5,368C 684.177,368.816 683.511,369.983 683.5,371.5C 681.754,369.416 680.421,367.083 679.5,364.5 Z"/></g>
<g><path style="opacity:1" fill="#938133" d="M 291.5,367.5 C 286.604,369.446 281.271,370.113 275.5,369.5C 280.732,368.79 286.065,368.123 291.5,367.5 Z"/></g>
<g><path style="opacity:1" fill="#87762e" d="M 324.5,367.5 C 335.029,367.47 345.362,368.137 355.5,369.5C 344.971,369.53 334.638,368.863 324.5,367.5 Z"/></g>
<g><path style="opacity:1" fill="#564b1e" d="M 392.5,369.5 C 395.781,369.42 398.781,370.087 401.5,371.5C 399.95,372.72 398.284,372.72 396.5,371.5C 394.517,371.843 393.183,371.176 392.5,369.5 Z"/></g>
<g><path style="opacity:1" fill="#605422" d="M 420.5,373.5 C 418.516,373.617 416.85,372.95 415.5,371.5C 416.533,370.548 417.7,370.548 419,371.5C 420.03,371.836 420.53,372.503 420.5,373.5 Z"/></g>
<g><path style="opacity:1" fill="#fefefe" d="M 310.5,372.5 C 329.491,374.492 348.825,375.992 368.5,377C 361.764,376.934 356.264,379.434 352,384.5C 351.333,386.5 351.333,388.5 352,390.5C 354.992,391.634 357.492,393.467 359.5,396C 365.56,396.412 371.393,397.579 377,399.5C 384.483,398.79 391.983,398.29 399.5,398C 402.011,396.152 404.511,394.319 407,392.5C 408.775,393.27 410.275,394.437 411.5,396C 403.055,399.203 394.388,401.703 385.5,403.5C 379.164,402.989 372.997,401.989 367,400.5C 365.106,400.58 363.273,400.913 361.5,401.5C 360.692,401.192 360.025,400.692 359.5,400C 352.136,399.235 344.803,399.402 337.5,400.5C 329.858,398.165 322.024,397.831 314,399.5C 299.057,396.767 283.891,395.267 268.5,395C 261.018,393.102 253.352,391.769 245.5,391C 243.616,390.784 241.949,390.117 240.5,389C 251.684,385.456 262.684,381.456 273.5,377C 285.995,375.524 298.328,374.024 310.5,372.5 Z"/></g>
<g><path style="opacity:1" fill="#776829" d="M 376.5,371.5 C 378.952,372.065 381.285,372.732 383.5,373.5C 380.612,374.01 378.279,373.344 376.5,371.5 Z"/></g>
<g><path style="opacity:1" fill="#82712c" d="M 389.5,375.5 C 392.781,375.42 395.781,376.087 398.5,377.5C 395.219,377.58 392.219,376.913 389.5,375.5 Z"/></g>
<g><path style="opacity:1" fill="#5f5322" d="M 406.5,373.5 C 408.734,373.38 410.901,373.713 413,374.5C 415.862,375.91 418.362,377.577 420.5,379.5C 416.326,378.651 412.326,377.318 408.5,375.5C 407.287,375.253 406.62,374.586 406.5,373.5 Z"/></g>
<g><path style="opacity:1" fill="#6f6127" d="M 420.5,373.5 C 422.5,373.833 424.5,374.167 426.5,374.5C 427.683,375.504 429.016,376.338 430.5,377C 429.584,377.278 428.918,377.778 428.5,378.5C 428.167,378.5 427.833,378.5 427.5,378.5C 424.951,377.007 422.618,375.34 420.5,373.5 Z"/></g>
<g><path style="opacity:1" fill="#483f19" d="M 260.5,375.5 C 257.848,377.289 254.848,378.289 251.5,378.5C 254.152,376.711 257.152,375.711 260.5,375.5 Z"/></g>
<g><path style="opacity:1" fill="#e5c84f" d="M 396.5,371.5 C 398.284,372.72 399.95,372.72 401.5,371.5C 403.781,371.077 405.448,371.744 406.5,373.5C 406.62,374.586 407.287,375.253 408.5,375.5C 412.326,377.318 416.326,378.651 420.5,379.5C 421.784,381.614 423.784,382.614 426.5,382.5C 426.5,382.167 426.5,381.833 426.5,381.5C 427.873,381.657 429.207,381.49 430.5,381C 428.881,380.764 427.881,379.931 427.5,378.5C 427.833,378.5 428.167,378.5 428.5,378.5C 434.841,380.469 439.841,384.303 443.5,390C 438.84,390.943 434.173,391.777 429.5,392.5C 424.039,388.971 418.706,385.304 413.5,381.5C 410.099,379.69 406.765,377.69 403.5,375.5C 403.003,377.216 402.669,378.883 402.5,380.5C 401.201,379.306 399.868,378.306 398.5,377.5C 399.5,377.5 400.5,377.5 401.5,377.5C 401.5,376.167 401.5,374.833 401.5,373.5C 399.219,373.923 397.552,373.256 396.5,371.5 Z"/></g>
<g><path style="opacity:1" fill="#2f2a13" d="M 641.5,377.5 C 640.359,378.339 639.026,379.006 637.5,379.5C 632.383,377.963 627.383,378.296 622.5,380.5C 620.484,379.822 618.484,379.156 616.5,378.5C 617.78,377.069 619.447,376.402 621.5,376.5C 621.281,377.675 621.614,378.675 622.5,379.5C 627.511,378.114 632.511,376.781 637.5,375.5C 638.524,376.853 639.857,377.52 641.5,377.5 Z"/></g>
<g><path style="opacity:1" fill="#201c0e" d="M 684.5,364.5 C 689.842,372.164 695.509,379.497 701.5,386.5C 704.317,390.967 706.651,395.634 708.5,400.5C 707.275,401.937 706.275,403.604 705.5,405.5C 704.893,405.376 704.56,405.043 704.5,404.5C 705.573,403.749 705.74,402.749 705,401.5C 699.151,391.789 692.817,382.456 686,373.5C 685.383,372.551 685.549,371.718 686.5,371C 685.423,370.53 684.423,370.697 683.5,371.5C 683.511,369.983 684.177,368.816 685.5,368C 683.445,366.195 681.445,365.028 679.5,364.5C 680.596,360.711 681.263,360.711 681.5,364.5C 682.5,364.5 683.5,364.5 684.5,364.5 Z"/></g>
<g><path style="opacity:1" fill="#938133" d="M 643.5,378.5 C 646.781,378.42 649.781,379.087 652.5,380.5C 649.219,380.58 646.219,379.913 643.5,378.5 Z"/></g>
<g><path style="opacity:1" fill="#5d5121" d="M 420.5,379.5 C 422.786,379.595 424.786,380.262 426.5,381.5C 426.5,381.833 426.5,382.167 426.5,382.5C 423.784,382.614 421.784,381.614 420.5,379.5 Z"/></g>
<g><path style="opacity:1" fill="#635723" d="M 426.5,382.5 C 428.484,382.383 430.15,383.05 431.5,384.5C 430.467,385.452 429.3,385.452 428,384.5C 426.97,384.164 426.47,383.497 426.5,382.5 Z"/></g>
<g><path style="opacity:1" fill="#fefefe" d="M 627.5,383.5 C 631.846,383.334 636.179,383.501 640.5,384C 649.833,387 659.167,390 668.5,393C 659.33,393.316 655.663,397.816 657.5,406.5C 661.652,409.495 666.319,410.995 671.5,411C 680.833,411.333 690.167,411.667 699.5,412C 702.297,413.233 704.963,414.733 707.5,416.5C 704.455,417.853 701.621,417.52 699,415.5C 696.001,416.985 693.168,416.819 690.5,415C 657.152,412.917 623.819,410.917 590.5,409C 589.328,408.581 588.328,407.915 587.5,407C 600.278,398.018 613.612,390.185 627.5,383.5 Z"/></g>
<g><path style="opacity:1" fill="#211d0e" d="M 413.5,381.5 C 418.706,385.304 424.039,388.971 429.5,392.5C 425.386,393.73 421.22,394.73 417,395.5C 415.454,394.497 415.287,393.497 416.5,392.5C 418.402,393.511 420.402,393.678 422.5,393C 418.992,390.952 415.992,388.452 413.5,385.5C 412.595,384.298 412.595,382.964 413.5,381.5 Z"/></g>
<g><path style="opacity:1" fill="#473e19" d="M 666.5,385.5 C 669.308,385.693 671.975,386.36 674.5,387.5C 674.083,388.124 673.416,388.457 672.5,388.5C 670.403,387.451 668.403,386.451 666.5,385.5 Z"/></g>
<g><path style="opacity:1" fill="#dabe4b" d="M 413.5,385.5 C 415.992,388.452 418.992,390.952 422.5,393C 420.402,393.678 418.402,393.511 416.5,392.5C 414.622,390.715 412.956,388.715 411.5,386.5C 411.957,385.702 412.624,385.369 413.5,385.5 Z"/></g>
<g><path style="opacity:1" fill="#d9bf51" d="M 601.5,388.5 C 602.598,389.397 602.598,390.23 601.5,391C 595.386,393.598 589.553,396.765 584,400.5C 581.784,401.773 579.617,401.773 577.5,400.5C 579.167,399.833 580.833,399.167 582.5,398.5C 588.55,394.726 594.883,391.393 601.5,388.5 Z"/></g>
<g><path style="opacity:1" fill="#201c0e" d="M 607.5,381.5 C 606.095,383.611 604.095,385.111 601.5,386C 602.598,386.77 602.598,387.603 601.5,388.5C 594.883,391.393 588.55,394.726 582.5,398.5C 580.076,398.808 577.743,398.474 575.5,397.5C 576.949,396.828 578.282,396.161 579.5,395.5C 588.57,390.461 597.903,385.794 607.5,381.5 Z"/></g>
<g><path style="opacity:1" fill="#3e3616" d="M 250.5,397.5 C 247.833,397.5 245.167,397.5 242.5,397.5C 239.833,396.833 237.167,396.167 234.5,395.5C 237.448,395.777 240.281,395.444 243,394.5C 245.334,396.02 247.834,397.02 250.5,397.5 Z"/></g>
<g><path style="opacity:1" fill="#b39d3e" d="M 242.5,397.5 C 245.167,397.5 247.833,397.5 250.5,397.5C 252.833,398.167 255.167,398.833 257.5,399.5C 252.269,399.556 247.269,398.889 242.5,397.5 Z"/></g>
<g><path style="opacity:1" fill="#464646" d="M 129.5,390.5 C 128.746,395.463 128.413,400.463 128.5,405.5C 127.694,404.003 127.028,402.336 126.5,400.5C 127.081,396.929 128.081,393.596 129.5,390.5 Z"/></g>
<g><path style="opacity:1" fill="#7d6e2b" d="M 579.5,395.5 C 578.282,396.161 576.949,396.828 575.5,397.5C 577.743,398.474 580.076,398.808 582.5,398.5C 580.833,399.167 579.167,399.833 577.5,400.5C 575.847,400.34 574.514,399.674 573.5,398.5C 574.404,397.791 574.737,396.791 574.5,395.5C 576.167,395.5 577.833,395.5 579.5,395.5 Z"/></g>
<g><path style="opacity:1" fill="#4b411a" d="M 267.5,401.5 C 270.146,400.836 272.979,400.502 276,400.5C 279.252,400.519 282.085,401.186 284.5,402.5C 278.925,401.548 273.259,401.214 267.5,401.5 Z"/></g>
<g><path style="opacity:1" fill="#564b1d" d="M 692.5,399.5 C 694.952,400.065 697.285,400.732 699.5,401.5C 696.612,402.01 694.279,401.344 692.5,399.5 Z"/></g>
<g><path style="opacity:1" fill="#706126" d="M 356.5,406.5 C 360.514,406.334 364.514,406.501 368.5,407C 365.832,407.567 363.166,408.067 360.5,408.5C 359.167,407.833 357.833,407.167 356.5,406.5 Z"/></g>
<g><path style="opacity:1" fill="#342e15" d="M 360.5,408.5 C 355.731,409.889 350.731,410.556 345.5,410.5C 350.269,409.111 355.269,408.444 360.5,408.5 Z"/></g>
<g><path style="opacity:1" fill="#434343" d="M 796.5,408.5 C 801.716,408.134 806.716,408.968 811.5,411C 815.059,413.28 816.559,416.447 816,420.5C 809.371,425.286 802.204,426.453 794.5,424C 788.859,418.036 789.526,412.869 796.5,408.5 Z"/></g>
<g><path style="opacity:1" fill="#211d0d" d="M 236.5,421.5 C 235.167,421.833 233.833,422.167 232.5,422.5C 231.833,422.167 231.167,421.833 230.5,421.5C 225.982,418.68 221.982,415.18 218.5,411C 217.552,410.517 216.552,410.351 215.5,410.5C 215.5,409.167 215.5,407.833 215.5,406.5C 217.308,406.491 218.975,406.991 220.5,408C 225.592,412.886 230.926,417.386 236.5,421.5 Z"/></g>
<g><path style="opacity:1" fill="#a59141" d="M 714.5,408.5 C 715.434,409.568 715.768,410.901 715.5,412.5C 713.335,412.884 711.668,412.217 710.5,410.5C 711.391,409.41 712.391,409.41 713.5,410.5C 714.298,410.043 714.631,409.376 714.5,408.5 Z"/></g>
<g><path style="opacity:1" fill="#434343" d="M 165.5,413.5 C 171.105,412.908 176.439,413.741 181.5,416C 183.536,418.299 183.869,420.799 182.5,423.5C 176.896,425.188 171.23,426.688 165.5,428C 162.872,429.626 160.539,431.626 158.5,434C 156.866,434.494 155.199,434.66 153.5,434.5C 152.789,430.719 153.955,427.719 157,425.5C 158.147,420.204 160.98,416.204 165.5,413.5 Z"/></g>
<g><path style="opacity:1" fill="#a18c37" d="M 266.5,409.5 C 266.5,410.833 266.5,412.167 266.5,413.5C 272.026,413.179 277.36,413.512 282.5,414.5C 276.833,414.5 271.167,414.5 265.5,414.5C 265.216,412.585 265.549,410.919 266.5,409.5 Z"/></g>
<g><path style="opacity:1" fill="#89782f" d="M 282.5,414.5 C 288.026,414.179 293.36,414.512 298.5,415.5C 298.5,416.167 298.167,416.5 297.5,416.5C 292.5,415.833 287.5,415.167 282.5,414.5 Z"/></g>
<g><path style="opacity:1" fill="#54491e" d="M 298.5,415.5 C 303.511,415.334 308.511,415.501 313.5,416C 304.2,417.128 294.866,417.628 285.5,417.5C 289.298,416.517 293.298,416.183 297.5,416.5C 298.167,416.5 298.5,416.167 298.5,415.5 Z"/></g>
<g><path style="opacity:1" fill="#3f3616" d="M 621.5,417.5 C 624.482,416.835 627.648,416.502 631,416.5C 634.576,416.515 637.742,417.182 640.5,418.5C 634.256,417.542 627.923,417.209 621.5,417.5 Z"/></g>
<g><path style="opacity:1" fill="#efd153" d="M 621.5,417.5 C 627.923,417.209 634.256,417.542 640.5,418.5C 665.014,418.68 689.347,420.846 713.5,425C 715.898,426.018 718.231,427.185 720.5,428.5C 721.024,430.453 722.024,432.12 723.5,433.5C 723.167,433.833 722.833,434.167 722.5,434.5C 716.665,431.874 710.831,431.874 705,434.5C 704.235,434.43 703.735,434.097 703.5,433.5C 692.963,431.872 682.297,430.539 671.5,429.5C 661.986,429.597 652.653,428.597 643.5,426.5C 640.663,424.598 637.329,423.931 633.5,424.5C 627.896,422.242 622.229,420.075 616.5,418C 618.134,417.506 619.801,417.34 621.5,417.5 Z"/></g>
<g><path style="opacity:1" fill="#6f622b" d="M 717.5,415.5 C 718.268,416.263 718.768,417.263 719,418.5C 719.232,417.263 719.732,416.263 720.5,415.5C 720.674,417.861 721.007,420.194 721.5,422.5C 719.058,422.646 718.391,421.813 719.5,420C 717.893,418.951 717.227,417.451 717.5,415.5 Z"/></g>
<g><path style="opacity:1" fill="#3e3617" d="M 259.5,420.5 C 254.731,421.889 249.731,422.556 244.5,422.5C 249.269,421.111 254.269,420.444 259.5,420.5 Z"/></g>
<g><path style="opacity:1" fill="#ae983c" d="M 230.5,421.5 C 231.167,421.833 231.833,422.167 232.5,422.5C 227.025,423.489 221.358,423.822 215.5,423.5C 220.5,422.833 225.5,422.167 230.5,421.5 Z"/></g>
<g><path style="opacity:1" fill="#8f7d31" d="M 200.5,419.5 C 200.5,420.833 200.5,422.167 200.5,423.5C 204.167,423.5 207.833,423.5 211.5,423.5C 207.702,424.483 203.702,424.817 199.5,424.5C 199.216,422.585 199.549,420.919 200.5,419.5 Z"/></g>
<g><path style="opacity:1" fill="#928032" d="M 633.5,424.5 C 637.329,423.931 640.663,424.598 643.5,426.5C 640.059,425.903 636.725,425.237 633.5,424.5 Z"/></g>
<g><path style="opacity:1" fill="#424242" d="M 802.5,426.5 C 810.178,425.993 816.345,428.66 821,434.5C 822.651,439.141 821.151,441.807 816.5,442.5C 811.073,441.652 805.739,440.486 800.5,439C 796.078,433.952 796.744,429.786 802.5,426.5 Z"/></g>
<g><path style="opacity:1" fill="#424242" d="M 174.5,428.5 C 181.456,429.392 183.289,433.059 180,439.5C 177.054,444.445 172.888,447.945 167.5,450C 165.978,451.522 164.478,453.022 163,454.5C 161.72,454.387 160.887,453.72 160.5,452.5C 163.97,448.961 165.47,444.628 165,439.5C 167.27,434.892 170.437,431.226 174.5,428.5 Z"/></g>
<g><path style="opacity:1" fill="#50461b" d="M 681.5,432.5 C 681.5,432.833 681.5,433.167 681.5,433.5C 678.287,433.19 675.287,433.523 672.5,434.5C 671.957,434.44 671.624,434.107 671.5,433.5C 674.768,432.513 678.102,432.18 681.5,432.5 Z"/></g>
<g><path style="opacity:1" fill="#262110" d="M 671.5,429.5 C 682.297,430.539 692.963,431.872 703.5,433.5C 700.813,433.336 698.146,433.503 695.5,434C 694.584,434.278 693.918,434.778 693.5,435.5C 689.5,434.833 685.5,434.167 681.5,433.5C 681.5,433.167 681.5,432.833 681.5,432.5C 679.866,431.839 678.033,431.506 676,431.5C 673.621,431.654 671.454,432.32 669.5,433.5C 668.5,433 667.5,432.5 666.5,432C 668.491,431.626 670.158,430.793 671.5,429.5 Z"/></g>
<g><path style="opacity:1" fill="#483e19" d="M 725.5,420.5 C 728.493,424.948 729.826,429.948 729.5,435.5C 728.346,430.559 727.013,425.559 725.5,420.5 Z"/></g>
<g><path style="opacity:1" fill="#d7bb4a" d="M 672.5,434.5 C 675.287,433.523 678.287,433.19 681.5,433.5C 685.5,434.167 689.5,434.833 693.5,435.5C 696.681,435.002 699.347,435.835 701.5,438C 700.774,439.397 699.607,440.231 698,440.5C 691.872,439.386 685.705,438.553 679.5,438C 677.14,436.82 674.807,435.653 672.5,434.5 Z"/></g>
<g><path style="opacity:1" fill="#706226" d="M 730.5,435.5 C 731.1,436.9 732.1,437.9 733.5,438.5C 732.791,439.404 731.791,439.737 730.5,439.5C 730.5,438.167 730.5,436.833 730.5,435.5 Z"/></g>
<g><path style="opacity:1" fill="#fcdc57" d="M 650.5,503.5 C 650.679,505.606 651.679,507.272 653.5,508.5C 653.76,507.095 654.093,505.762 654.5,504.5C 656.153,504.66 657.486,505.326 658.5,506.5C 659.611,507.66 660.611,508.993 661.5,510.5C 662.386,509.675 662.719,508.675 662.5,507.5C 665.198,507.45 667.364,508.45 669,510.5C 670.579,509.2 671.745,509.534 672.5,511.5C 673.611,512.66 674.611,513.993 675.5,515.5C 676.088,513.988 676.422,512.655 676.5,511.5C 678.627,512.398 679.794,514.064 680,516.5C 680.219,515.062 680.719,513.729 681.5,512.5C 682.767,514.567 684.433,516.234 686.5,517.5C 688.006,523.719 688.673,530.052 688.5,536.5C 687.566,537.568 687.232,538.901 687.5,540.5C 684.311,542.18 680.978,543.514 677.5,544.5C 675.694,545.024 674.028,545.691 672.5,546.5C 665.167,548.833 657.833,551.167 650.5,553.5C 646.253,553.923 642.253,554.923 638.5,556.5C 635.54,558.396 632.207,559.396 628.5,559.5C 625.2,560.093 621.866,560.76 618.5,561.5C 606.007,562.167 593.673,562.833 581.5,563.5C 577.731,563.756 574.064,563.423 570.5,562.5C 569.833,562.5 569.167,562.5 568.5,562.5C 560.067,563.139 551.734,563.806 543.5,564.5C 527.508,563.866 511.508,563.533 495.5,563.5C 492.947,562.745 490.28,562.078 487.5,561.5C 471.054,559.373 454.721,557.373 438.5,555.5C 436.285,554.732 433.952,554.065 431.5,553.5C 429.833,553.5 428.167,553.5 426.5,553.5C 424.365,551.631 421.698,550.964 418.5,551.5C 412.167,549.5 405.833,547.5 399.5,545.5C 397.972,544.691 396.306,544.024 394.5,543.5C 394.167,543.5 393.833,543.5 393.5,543.5C 390.664,542.224 387.664,541.558 384.5,541.5C 373.405,536.403 362.072,531.569 350.5,527C 346.169,523.74 341.835,520.573 337.5,517.5C 336.922,514.72 336.255,512.053 335.5,509.5C 333.007,503.803 335.007,501.303 341.5,502C 341.043,501.586 340.709,501.086 340.5,500.5C 341.94,499.048 343.606,498.048 345.5,497.5C 348.557,498.899 351.223,500.899 353.5,503.5C 354.891,504.645 356.224,504.645 357.5,503.5C 353.825,501.147 350.492,498.481 347.5,495.5C 350.259,494.358 352.926,493.024 355.5,491.5C 356.183,491.863 356.85,492.196 357.5,492.5C 356.602,493.158 355.602,493.824 354.5,494.5C 355.325,495.386 356.325,495.719 357.5,495.5C 357.842,496.338 358.508,496.672 359.5,496.5C 360.262,498.262 361.596,499.262 363.5,499.5C 363.063,497.926 362.063,496.759 360.5,496C 362.81,495.503 365.143,495.337 367.5,495.5C 367.833,495.5 368.167,495.5 368.5,495.5C 372.945,498.571 377.278,501.904 381.5,505.5C 381.833,505.167 382.167,504.833 382.5,504.5C 379.66,501.287 376.326,498.787 372.5,497C 371.748,496.329 371.414,495.496 371.5,494.5C 374.206,494.575 376.873,494.908 379.5,495.5C 382.059,495.198 384.393,495.532 386.5,496.5C 388.584,499.752 391.418,502.085 395,503.5C 395.492,502.451 395.326,501.451 394.5,500.5C 392.614,499.594 390.78,498.594 389,497.5C 388.517,496.552 388.351,495.552 388.5,494.5C 390.415,494.784 392.081,494.451 393.5,493.5C 395.284,492.28 396.95,492.28 398.5,493.5C 401.929,495.103 405.429,496.77 409,498.5C 409.5,498.167 410,497.833 410.5,497.5C 408.033,495.009 405.033,493.676 401.5,493.5C 401.5,492.5 401.5,491.5 401.5,490.5C 405.316,490.979 408.65,489.979 411.5,487.5C 412.107,487.624 412.44,487.957 412.5,488.5C 414.378,489.208 416.045,490.374 417.5,492C 418.793,492.49 420.127,492.657 421.5,492.5C 421.5,491.5 421.5,490.5 421.5,489.5C 419.379,489.675 417.379,489.341 415.5,488.5C 417.801,487.142 419.801,485.309 421.5,483C 423.577,482.808 425.577,482.308 427.5,481.5C 426.529,480.038 426.862,478.705 428.5,477.5C 430.071,476.691 431.738,476.357 433.5,476.5C 433.715,474.821 433.048,473.821 431.5,473.5C 429.922,471.682 430.422,470.682 433,470.5C 450.029,466.461 467.195,463.128 484.5,460.5C 514.304,465.647 544.304,469.147 574.5,471C 588.588,477.808 602.588,484.808 616.5,492C 624.24,495.215 632.24,497.548 640.5,499C 644.076,500.209 647.409,501.709 650.5,503.5 Z"/></g>
<g><path style="opacity:1" fill="#c7ae48" d="M 429.5,473.5 C 426.735,473.71 424.735,475.043 423.5,477.5C 422.417,477.461 421.417,477.127 420.5,476.5C 420.002,477.603 419.669,478.603 419.5,479.5C 417.102,477.896 414.435,476.896 411.5,476.5C 410.287,476.747 409.62,477.414 409.5,478.5C 406.272,477.586 402.939,477.253 399.5,477.5C 404.488,476.609 409.488,475.275 414.5,473.5C 417.597,472.659 420.93,472.659 424.5,473.5C 426.454,470.953 428.121,470.953 429.5,473.5 Z"/></g>
<g><path style="opacity:1" fill="#211d0e" d="M 429.5,473.5 C 430.167,473.5 430.833,473.5 431.5,473.5C 433.048,473.821 433.715,474.821 433.5,476.5C 431.738,476.357 430.071,476.691 428.5,477.5C 426.862,478.705 426.529,480.038 427.5,481.5C 425.577,482.308 423.577,482.808 421.5,483C 419.801,485.309 417.801,487.142 415.5,488.5C 414.5,488.5 413.5,488.5 412.5,488.5C 412.44,487.957 412.107,487.624 411.5,487.5C 408.65,489.979 405.316,490.979 401.5,490.5C 401.5,491.5 401.5,492.5 401.5,493.5C 400.5,493.5 399.5,493.5 398.5,493.5C 396.95,492.28 395.284,492.28 393.5,493.5C 391.5,493.5 389.5,493.5 387.5,493.5C 387.737,494.791 387.404,495.791 386.5,496.5C 384.393,495.532 382.059,495.198 379.5,495.5C 381.698,494.835 384.031,494.168 386.5,493.5C 382.737,493.104 379.403,492.104 376.5,490.5C 381.117,491.775 385.784,491.775 390.5,490.5C 390.137,489.817 389.804,489.15 389.5,488.5C 390.5,488.5 391.5,488.5 392.5,488.5C 393.274,489.147 394.274,489.48 395.5,489.5C 398.813,488.283 402.146,487.283 405.5,486.5C 406.338,486.158 406.672,485.492 406.5,484.5C 408.857,484.663 411.19,484.497 413.5,484C 414.471,482.519 415.804,481.685 417.5,481.5C 419.94,480.762 421.94,479.429 423.5,477.5C 424.735,475.043 426.735,473.71 429.5,473.5 Z"/></g>
<g><path style="opacity:1" fill="#f2d353" d="M 396.5,477.5 C 397.5,477.5 398.5,477.5 399.5,477.5C 402.939,477.253 406.272,477.586 409.5,478.5C 412.811,478.307 415.478,479.307 417.5,481.5C 415.804,481.685 414.471,482.519 413.5,484C 411.19,484.497 408.857,484.663 406.5,484.5C 402.842,482.522 399.509,480.188 396.5,477.5 Z"/></g>
<g><path style="opacity:1" fill="#695c25" d="M 423.5,477.5 C 421.94,479.429 419.94,480.762 417.5,481.5C 415.478,479.307 412.811,478.307 409.5,478.5C 409.62,477.414 410.287,476.747 411.5,476.5C 414.435,476.896 417.102,477.896 419.5,479.5C 419.669,478.603 420.002,477.603 420.5,476.5C 421.417,477.127 422.417,477.461 423.5,477.5 Z"/></g>
<g><path style="opacity:1" fill="#f6d755" d="M 386.5,479.5 C 389.397,479.319 392.23,479.652 395,480.5C 398.844,482.246 402.344,484.246 405.5,486.5C 402.146,487.283 398.813,488.283 395.5,489.5C 394.274,489.48 393.274,489.147 392.5,488.5C 388.441,486.972 384.441,485.139 380.5,483C 379.748,482.329 379.414,481.496 379.5,480.5C 381.806,480.007 384.139,479.674 386.5,479.5 Z"/></g>
<g><path style="opacity:1" fill="#695c25" d="M 396.5,477.5 C 399.509,480.188 402.842,482.522 406.5,484.5C 406.672,485.492 406.338,486.158 405.5,486.5C 402.344,484.246 398.844,482.246 395,480.5C 392.23,479.652 389.397,479.319 386.5,479.5C 389.656,478.566 392.989,477.899 396.5,477.5 Z"/></g>
<g><path style="opacity:1" fill="#eed052" d="M 372.5,482.5 C 378.179,484.504 383.845,486.504 389.5,488.5C 389.804,489.15 390.137,489.817 390.5,490.5C 385.784,491.775 381.117,491.775 376.5,490.5C 374.898,488.926 372.898,488.259 370.5,488.5C 369.514,486.592 367.848,485.592 365.5,485.5C 367.426,483.707 369.759,482.707 372.5,482.5 Z"/></g>
<g><path style="opacity:1" fill="#6d5f27" d="M 379.5,480.5 C 379.414,481.496 379.748,482.329 380.5,483C 384.441,485.139 388.441,486.972 392.5,488.5C 391.5,488.5 390.5,488.5 389.5,488.5C 383.845,486.504 378.179,484.504 372.5,482.5C 374.657,481.593 376.99,480.927 379.5,480.5 Z"/></g>
<g><path style="opacity:1" fill="#594d1f" d="M 363.5,486.5 C 363.842,485.662 364.508,485.328 365.5,485.5C 367.848,485.592 369.514,486.592 370.5,488.5C 368.035,488.233 365.701,487.566 363.5,486.5 Z"/></g>
<g><path style="opacity:1" fill="#b9a140" d="M 363.5,486.5 C 365.701,487.566 368.035,488.233 370.5,488.5C 372.898,488.259 374.898,488.926 376.5,490.5C 371.555,491.124 366.555,490.957 361.5,490C 360.16,487.851 360.827,486.684 363.5,486.5 Z"/></g>
<g><path style="opacity:1" fill="#78692b" d="M 412.5,488.5 C 413.5,488.5 414.5,488.5 415.5,488.5C 417.379,489.341 419.379,489.675 421.5,489.5C 421.5,490.5 421.5,491.5 421.5,492.5C 420.127,492.657 418.793,492.49 417.5,492C 416.045,490.374 414.378,489.208 412.5,488.5 Z"/></g>
<g><path style="opacity:1" fill="#5d5120" d="M 357.5,492.5 C 358.625,493.348 358.625,494.348 357.5,495.5C 356.325,495.719 355.325,495.386 354.5,494.5C 355.602,493.824 356.602,493.158 357.5,492.5 Z"/></g>
<g><path style="opacity:1" fill="#7e6e2c" d="M 367.5,495.5 C 365.143,495.337 362.81,495.503 360.5,496C 362.063,496.759 363.063,497.926 363.5,499.5C 361.596,499.262 360.262,498.262 359.5,496.5C 360.334,495.252 361.667,494.585 363.5,494.5C 365.045,494.511 366.378,494.844 367.5,495.5 Z"/></g>
<g><path style="opacity:1" fill="#6a5d25" d="M 393.5,493.5 C 392.081,494.451 390.415,494.784 388.5,494.5C 388.351,495.552 388.517,496.552 389,497.5C 390.78,498.594 392.614,499.594 394.5,500.5C 395.326,501.451 395.492,502.451 395,503.5C 391.418,502.085 388.584,499.752 386.5,496.5C 387.404,495.791 387.737,494.791 387.5,493.5C 389.5,493.5 391.5,493.5 393.5,493.5 Z"/></g>
<g><path style="opacity:1" fill="#6c5e26" d="M 398.5,493.5 C 399.5,493.5 400.5,493.5 401.5,493.5C 405.033,493.676 408.033,495.009 410.5,497.5C 410,497.833 409.5,498.167 409,498.5C 405.429,496.77 401.929,495.103 398.5,493.5 Z"/></g>
<g><path style="opacity:1" fill="#6a5d25" d="M 347.5,495.5 C 350.492,498.481 353.825,501.147 357.5,503.5C 356.224,504.645 354.891,504.645 353.5,503.5C 351.223,500.899 348.557,498.899 345.5,497.5C 345.833,496.5 346.5,495.833 347.5,495.5 Z"/></g>
<g><path style="opacity:1" fill="#6c5e26" d="M 363.5,499.5 C 365.312,499.771 366.978,500.438 368.5,501.5C 365.83,503.09 364.163,502.423 363.5,499.5 Z"/></g>
<g><path style="opacity:1" fill="#6a5d25" d="M 371.5,494.5 C 371.414,495.496 371.748,496.329 372.5,497C 376.326,498.787 379.66,501.287 382.5,504.5C 382.167,504.833 381.833,505.167 381.5,505.5C 377.278,501.904 372.945,498.571 368.5,495.5C 369.609,495.443 370.609,495.11 371.5,494.5 Z"/></g>
<g><path style="opacity:1" fill="#434343" d="M 295.5,495.5 C 296.5,495.5 297.5,495.5 298.5,495.5C 298.66,497.199 298.494,498.866 298,500.5C 292.454,505.267 288.121,510.933 285,517.5C 277.903,526.6 270.069,535.1 261.5,543C 258.454,545.174 255.12,545.841 251.5,545C 249.643,543.818 248.643,542.151 248.5,540C 252.199,531.282 257.866,523.949 265.5,518C 272.487,512.506 279.82,507.506 287.5,503C 290.666,501 293.332,498.5 295.5,495.5 Z"/></g>
<g><path style="opacity:1" fill="#87762f" d="M 650.5,503.5 C 651.222,503.918 651.722,504.584 652,505.5C 652.601,503.641 653.434,503.308 654.5,504.5C 654.093,505.762 653.76,507.095 653.5,508.5C 651.679,507.272 650.679,505.606 650.5,503.5 Z"/></g>
<g><path style="opacity:1" fill="#584d1f" d="M 658.5,506.5 C 660.099,506.232 661.432,506.566 662.5,507.5C 662.719,508.675 662.386,509.675 661.5,510.5C 660.611,508.993 659.611,507.66 658.5,506.5 Z"/></g>
<g><path style="opacity:1" fill="#8f7d31" d="M 335.5,509.5 C 336.255,512.053 336.922,514.72 337.5,517.5C 335.631,515.365 334.964,512.698 335.5,509.5 Z"/></g>
<g><path style="opacity:1" fill="#81702d" d="M 676.5,511.5 C 676.422,512.655 676.088,513.988 675.5,515.5C 674.611,513.993 673.611,512.66 672.5,511.5C 674.035,510.646 675.368,510.646 676.5,511.5 Z"/></g>
<g><path style="opacity:1" fill="#fbdb56" d="M 320.5,513.5 C 320.865,515.588 320.865,517.921 320.5,520.5C 319.542,520.953 318.708,521.619 318,522.5C 317.76,524.852 316.927,526.852 315.5,528.5C 314.71,529.609 314.21,530.942 314,532.5C 313.5,539.492 313.334,546.492 313.5,553.5C 314.791,553.737 315.791,553.404 316.5,552.5C 316.335,549.482 316.502,546.482 317,543.5C 319.528,540.902 321.028,537.902 321.5,534.5C 322.971,532.784 323.971,530.784 324.5,528.5C 324.5,528.167 324.5,527.833 324.5,527.5C 325.15,527.196 325.817,526.863 326.5,526.5C 327.906,530.17 327.573,533.67 325.5,537C 327.377,543.043 328.877,549.209 330,555.5C 331.011,556.337 332.178,556.67 333.5,556.5C 333.232,551.361 332.232,546.361 330.5,541.5C 330.623,540.075 330.957,538.742 331.5,537.5C 331.433,536.041 331.766,534.708 332.5,533.5C 333.468,531.393 333.802,529.059 333.5,526.5C 334.5,526.5 335.5,526.5 336.5,526.5C 336.5,527.167 336.5,527.833 336.5,528.5C 337.024,530.306 337.691,531.972 338.5,533.5C 339.594,536.682 340.928,539.682 342.5,542.5C 342.179,544.048 341.179,544.715 339.5,544.5C 339.263,545.791 339.596,546.791 340.5,547.5C 341.833,547.5 343.167,547.5 344.5,547.5C 347.534,557.106 350.201,566.773 352.5,576.5C 352.581,581.476 353.581,586.143 355.5,590.5C 356.434,591.568 356.768,592.901 356.5,594.5C 362.446,607.558 368.779,620.391 375.5,633C 378.667,636.5 381.833,640 385,643.5C 385.764,647.099 387.93,649.099 391.5,649.5C 391.657,648.127 391.49,646.793 391,645.5C 378.83,631.736 369.83,616.07 364,598.5C 363.148,597.429 362.315,596.429 361.5,595.5C 360.15,589.977 358.484,584.644 356.5,579.5C 356.343,578.127 356.51,576.793 357,575.5C 357.236,577.119 358.069,578.119 359.5,578.5C 359.433,580.401 359.767,582.234 360.5,584C 372.75,608.277 388.583,630.111 408,649.5C 408.483,650.448 408.649,651.448 408.5,652.5C 412.375,653.367 415.375,655.534 417.5,659C 422.082,660.803 425.749,663.803 428.5,668C 432.284,668.729 435.617,670.229 438.5,672.5C 441.205,674.253 444.205,675.586 447.5,676.5C 451.804,678.02 456.137,679.687 460.5,681.5C 460.918,682.222 461.584,682.722 462.5,683C 474.318,684.402 485.985,684.568 497.5,683.5C 499.5,683.5 501.5,683.5 503.5,683.5C 512.192,683.831 520.859,683.498 529.5,682.5C 531.631,681.831 533.631,681.165 535.5,680.5C 537.607,679.532 539.941,679.198 542.5,679.5C 545.28,678.922 547.947,678.255 550.5,677.5C 561.783,674.402 572.95,670.735 584,666.5C 586.862,665.09 589.362,663.423 591.5,661.5C 595.828,661.727 599.494,660.393 602.5,657.5C 614.654,651.286 626.32,644.286 637.5,636.5C 642.671,632.492 647.671,628.325 652.5,624C 654.908,621.312 656.908,618.479 658.5,615.5C 662.744,613.593 666.078,610.593 668.5,606.5C 669.167,607.167 669.833,607.833 670.5,608.5C 669.491,614.949 667.991,621.282 666,627.5C 662.123,630.521 659.289,634.188 657.5,638.5C 665.819,636.001 670.319,630.334 671,621.5C 672.039,620.29 673.206,619.29 674.5,618.5C 677.393,615.494 678.727,611.828 678.5,607.5C 679.58,604.474 680.914,601.474 682.5,598.5C 684.414,595.316 685.08,591.649 684.5,587.5C 684.187,574.754 684.52,562.087 685.5,549.5C 686.708,548.766 688.041,548.433 689.5,548.5C 689.5,552.167 689.5,555.833 689.5,559.5C 690.791,559.737 691.791,559.404 692.5,558.5C 692.989,557.005 693.655,555.671 694.5,554.5C 695.29,553.391 695.79,552.058 696,550.5C 696.278,551.416 696.778,552.082 697.5,552.5C 698.078,555.28 698.745,557.947 699.5,560.5C 700.043,560.56 700.376,560.893 700.5,561.5C 700.08,566.272 698.746,570.606 696.5,574.5C 695.514,578.97 695.181,583.637 695.5,588.5C 697.415,588.784 699.081,588.451 700.5,587.5C 701.79,586.942 702.623,585.942 703,584.5C 704.842,580.205 706.342,575.872 707.5,571.5C 707.936,566.061 708.936,560.728 710.5,555.5C 710.81,552.287 710.477,549.287 709.5,546.5C 709.727,543.562 708.727,541.229 706.5,539.5C 703.893,533.242 701.726,526.909 700,520.5C 706.333,529.5 714,537.167 723,543.5C 727.238,552.73 728.571,562.397 727,572.5C 725.31,579.258 723.31,585.925 721,592.5C 718.311,618.301 714.644,643.967 710,669.5C 701.506,697.98 690.839,725.647 678,752.5C 671.059,763.772 663.726,774.772 656,785.5C 652.624,790.377 648.457,794.377 643.5,797.5C 642.957,797.44 642.624,797.107 642.5,796.5C 644.265,793.769 645.932,791.102 647.5,788.5C 649.423,786.362 651.09,783.862 652.5,781C 653.287,778.901 653.62,776.734 653.5,774.5C 656.257,764.996 659.257,755.663 662.5,746.5C 664.078,741.417 664.745,736.084 664.5,730.5C 665.485,726.366 665.818,722.032 665.5,717.5C 664.791,716.596 663.791,716.263 662.5,716.5C 662.763,720.6 662.43,724.6 661.5,728.5C 661.538,732.363 661.205,736.196 660.5,740C 656.789,750.887 653.456,761.887 650.5,773C 647.158,780.998 643.158,788.498 638.5,795.5C 636.683,797.012 635.683,799.012 635.5,801.5C 626.084,804.405 617.751,809.239 610.5,816C 600.927,819.786 591.593,824.12 582.5,829C 570.705,832.265 559.038,835.932 547.5,840C 524.833,840.667 502.167,840.667 479.5,840C 464.184,834.946 448.518,831.279 432.5,829C 424.533,826.512 416.866,823.346 409.5,819.5C 410.209,818.596 411.209,818.263 412.5,818.5C 412.174,816.339 411.174,814.506 409.5,813C 398.931,804.858 388.931,795.858 379.5,786C 378.5,785.667 377.5,785.333 376.5,785C 361.358,770.093 347.691,754.259 335.5,737.5C 335.392,735.217 334.559,733.217 333,731.5C 332.756,735.886 333.256,740.22 334.5,744.5C 335.288,745.77 336.288,746.77 337.5,747.5C 340.142,751.148 342.809,754.815 345.5,758.5C 352.453,765.624 359.287,772.957 366,780.5C 378.098,791.443 390.265,802.11 402.5,812.5C 402.5,813.833 401.833,814.5 400.5,814.5C 386.256,808.379 372.589,801.212 359.5,793C 351.963,785.794 344.129,778.96 336,772.5C 333.292,763.803 328.292,756.803 321,751.5C 315.288,739.075 309.288,726.742 303,714.5C 295.953,694.646 290.62,674.313 287,653.5C 279.06,628.679 271.726,603.679 265,578.5C 264.918,567.815 266.918,557.482 271,547.5C 274.557,543.975 278.39,540.809 282.5,538C 295.319,530.004 307.985,521.837 320.5,513.5 Z"/></g>
<g><path style="opacity:1" fill="#6e6026" d="M 320.5,520.5 C 320.865,517.921 320.865,515.588 320.5,513.5C 321.527,512.152 322.86,511.652 324.5,512C 322.671,514.682 321.337,517.516 320.5,520.5 Z"/></g>
<g><path style="opacity:1" fill="#414141" d="M 127.5,515.5 C 130.05,515.884 131.383,517.384 131.5,520C 130.407,528.475 130.24,536.975 131,545.5C 133.935,559.507 136.602,573.507 139,587.5C 121.556,567.176 116.556,544.176 124,518.5C 125.518,517.837 126.685,516.837 127.5,515.5 Z"/></g>
<g><path style="opacity:1" fill="#635722" d="M 686.5,517.5 C 688.443,520.952 689.443,524.786 689.5,529C 689.497,531.69 689.164,534.19 688.5,536.5C 688.673,530.052 688.006,523.719 686.5,517.5 Z"/></g>
<g><path style="opacity:1" fill="#272210" d="M 331.5,537.5 C 330.957,538.742 330.623,540.075 330.5,541.5C 332.232,546.361 333.232,551.361 333.5,556.5C 332.178,556.67 331.011,556.337 330,555.5C 328.877,549.209 327.377,543.043 325.5,537C 327.573,533.67 327.906,530.17 326.5,526.5C 325.817,526.863 325.15,527.196 324.5,527.5C 325.183,525.824 326.517,525.157 328.5,525.5C 328.5,529.5 328.5,533.5 328.5,537.5C 329.5,537.5 330.5,537.5 331.5,537.5 Z"/></g>
<g><path style="opacity:1" fill="#5f5220" d="M 336.5,526.5 C 335.5,526.5 334.5,526.5 333.5,526.5C 333.802,529.059 333.468,531.393 332.5,533.5C 332.5,530.833 332.5,528.167 332.5,525.5C 334.099,525.232 335.432,525.566 336.5,526.5 Z"/></g>
<g><path style="opacity:1" fill="#766729" d="M 336.5,528.5 C 338.256,529.552 338.923,531.219 338.5,533.5C 337.691,531.972 337.024,530.306 336.5,528.5 Z"/></g>
<g><path style="opacity:1" fill="#54491d" d="M 324.5,528.5 C 323.971,530.784 322.971,532.784 321.5,534.5C 321.455,531.923 322.455,529.923 324.5,528.5 Z"/></g>
<g><path style="opacity:1" fill="#fefffe" d="M 345.5,532.5 C 349.826,534.493 354.159,536.493 358.5,538.5C 360.322,537.571 361.655,538.238 362.5,540.5C 362.013,541.446 361.68,542.446 361.5,543.5C 363.373,550.059 363.873,556.725 363,563.5C 362.333,564.167 361.667,564.833 361,565.5C 353.856,555.028 348.689,544.028 345.5,532.5 Z"/></g>
<g><path style="opacity:1" fill="#444444" d="M 753.5,533.5 C 758.742,532.271 762.575,533.937 765,538.5C 764.929,555.453 759.929,570.786 750,584.5C 744.396,587.936 739.563,592.269 735.5,597.5C 733.926,598.631 732.259,598.798 730.5,598C 729.483,596.951 729.316,595.784 730,594.5C 732.374,592.461 734.374,590.128 736,587.5C 739.708,575.747 743.708,564.081 748,552.5C 749.03,548.227 749.697,543.894 750,539.5C 750.926,537.308 752.093,535.308 753.5,533.5 Z"/></g>
<g><path style="opacity:1" fill="#574c1e" d="M 315.5,528.5 C 315.01,533.314 314.676,538.147 314.5,543C 314.515,546.576 315.182,549.742 316.5,552.5C 315.791,553.404 314.791,553.737 313.5,553.5C 313.334,546.492 313.5,539.492 314,532.5C 314.21,530.942 314.71,529.609 315.5,528.5 Z"/></g>
<g><path style="opacity:1" fill="#fefffe" d="M 367.5,542.5 C 372.504,543.158 377.171,544.825 381.5,547.5C 385.198,548.394 388.865,549.394 392.5,550.5C 393.083,552.002 393.916,553.335 395,554.5C 394.978,562.364 395.812,570.031 397.5,577.5C 397.333,580.687 396.333,583.521 394.5,586C 390.833,586.667 387.167,586.667 383.5,586C 382.069,585.535 380.903,584.701 380,583.5C 374.236,570.326 370.07,556.659 367.5,542.5 Z"/></g>
<g><path style="opacity:1" fill="#4d431b" d="M 384.5,541.5 C 387.664,541.558 390.664,542.224 393.5,543.5C 393.083,544.124 392.416,544.457 391.5,544.5C 389.105,543.345 386.771,542.345 384.5,541.5 Z"/></g>
<g><path style="opacity:1" fill="#5a4e1f" d="M 342.5,542.5 C 343.404,543.209 343.737,544.209 343.5,545.5C 341.821,545.285 340.821,545.952 340.5,547.5C 339.596,546.791 339.263,545.791 339.5,544.5C 341.179,544.715 342.179,544.048 342.5,542.5 Z"/></g>
<g><path style="opacity:1" fill="#665823" d="M 394.5,543.5 C 396.306,544.024 397.972,544.691 399.5,545.5C 397.219,545.923 395.552,545.256 394.5,543.5 Z"/></g>
<g><path style="opacity:1" fill="#726427" d="M 706.5,539.5 C 708.727,541.229 709.727,543.562 709.5,546.5C 708.256,544.337 707.256,542.003 706.5,539.5 Z"/></g>
<g><path style="opacity:1" fill="#665923" d="M 677.5,544.5 C 676.448,546.256 674.781,546.923 672.5,546.5C 674.028,545.691 675.694,545.024 677.5,544.5 Z"/></g>
<g><path style="opacity:1" fill="#404040" d="M 224.5,546.5 C 227.352,546.352 229.019,547.686 229.5,550.5C 228.366,565.141 228.199,579.807 229,594.5C 230.914,598.314 231.581,602.314 231,606.5C 227.841,609.341 225.508,608.674 224,604.5C 219.794,589.104 218.461,573.437 220,557.5C 220.414,553.346 221.914,549.679 224.5,546.5 Z"/></g>
<g><path style="opacity:1" fill="#7c6c2a" d="M 418.5,551.5 C 421.698,550.964 424.365,551.631 426.5,553.5C 423.72,552.922 421.053,552.255 418.5,551.5 Z"/></g>
<g><path style="opacity:1" fill="#79692a" d="M 697.5,552.5 C 696.778,552.082 696.278,551.416 696,550.5C 695.79,552.058 695.29,553.391 694.5,554.5C 694.5,552.833 694.5,551.167 694.5,549.5C 695.5,549.5 696.5,549.5 697.5,549.5C 697.5,550.5 697.5,551.5 697.5,552.5 Z"/></g>
<g><path style="opacity:1" fill="#fefffe" d="M 402.5,553.5 C 413.058,557.553 424.058,559.887 435.5,560.5C 435.436,564.22 434.936,567.886 434,571.5C 432.748,575.777 431.248,579.944 429.5,584C 430.059,584.725 430.392,585.558 430.5,586.5C 428.85,590.733 427.516,595.066 426.5,599.5C 425.719,600.737 424.719,601.737 423.5,602.5C 420.381,600.027 417.048,598.027 413.5,596.5C 413.5,595.5 413.5,594.5 413.5,593.5C 412.5,593.5 411.5,593.5 410.5,593.5C 410.657,592.127 410.49,590.793 410,589.5C 407.852,588.023 406.518,586.023 406,583.5C 405.003,577.347 403.67,571.347 402,565.5C 401.238,561.413 401.404,557.413 402.5,553.5 Z"/></g>
<g><path style="opacity:1" fill="#53491c" d="M 431.5,553.5 C 433.952,554.065 436.285,554.732 438.5,555.5C 435.612,556.01 433.279,555.344 431.5,553.5 Z"/></g>
<g><path style="opacity:1" fill="#332d12" d="M 692.5,558.5 C 691.791,559.404 690.791,559.737 689.5,559.5C 689.5,555.833 689.5,552.167 689.5,548.5C 688.041,548.433 686.708,548.766 685.5,549.5C 686.552,547.744 688.219,547.077 690.5,547.5C 689.92,551.649 690.586,555.316 692.5,558.5 Z"/></g>
<g><path style="opacity:1" fill="#7d6d2b" d="M 650.5,553.5 C 646.841,555.447 642.841,556.447 638.5,556.5C 642.253,554.923 646.253,553.923 650.5,553.5 Z"/></g>
<g><path style="opacity:1" fill="#fefffe" d="M 672.5,555.5 C 673.821,558.598 674.488,562.098 674.5,566C 674.333,569.5 674.167,573 674,576.5C 672.383,577.536 672.216,578.703 673.5,580C 672.008,583.31 670.008,586.31 667.5,589C 664.238,589.345 661.405,590.512 659,592.5C 652.322,583.931 650.155,574.264 652.5,563.5C 659.198,560.608 665.865,557.941 672.5,555.5 Z"/></g>
<g><path style="opacity:1" fill="#574b1e" d="M 697.5,552.5 C 699.369,554.635 700.036,557.302 699.5,560.5C 698.745,557.947 698.078,555.28 697.5,552.5 Z"/></g>
<g><path style="opacity:1" fill="#444444" d="M 246.5,558.5 C 250.182,557.725 252.682,559.059 254,562.5C 255.204,586.128 258.537,609.462 264,632.5C 267.202,642.44 270.202,652.44 273,662.5C 274.11,669.811 274.443,677.144 274,684.5C 272.695,687.306 270.528,688.14 267.5,687C 266.874,686.25 266.374,685.416 266,684.5C 265.667,680.833 265.333,677.167 265,673.5C 248.856,638.978 241.856,602.644 244,564.5C 244.573,562.359 245.406,560.359 246.5,558.5 Z"/></g>
<g><path style="opacity:1" fill="#fefffe" d="M 441.5,562.5 C 452.559,563.475 463.559,564.808 474.5,566.5C 475.072,571.17 475.739,575.837 476.5,580.5C 475.818,582.841 475.151,585.174 474.5,587.5C 466.852,590.519 458.852,591.686 450.5,591C 449.333,589.833 448.167,588.667 447,587.5C 446.701,581.364 445.035,575.698 442,570.5C 441.503,567.854 441.336,565.187 441.5,562.5 Z"/></g>
<g><path style="opacity:1" fill="#463d18" d="M 487.5,561.5 C 490.28,562.078 492.947,562.745 495.5,563.5C 492.302,564.036 489.635,563.369 487.5,561.5 Z"/></g>
<g><path style="opacity:1" fill="#756628" d="M 628.5,559.5 C 625.939,561.094 622.939,562.094 619.5,562.5C 609.856,563.498 600.19,563.832 590.5,563.5C 587.5,563.5 584.5,563.5 581.5,563.5C 593.673,562.833 606.007,562.167 618.5,561.5C 621.866,560.76 625.2,560.093 628.5,559.5 Z"/></g>
<g><path style="opacity:1" fill="#9c8936" d="M 568.5,562.5 C 560.567,564.468 552.234,565.135 543.5,564.5C 551.734,563.806 560.067,563.139 568.5,562.5 Z"/></g>
<g><path style="opacity:1" fill="#383114" d="M 570.5,562.5 C 574.064,563.423 577.731,563.756 581.5,563.5C 584.5,563.5 587.5,563.5 590.5,563.5C 587.351,564.165 584.018,564.498 580.5,564.5C 576.761,564.486 573.428,563.82 570.5,562.5 Z"/></g>
<g><path style="opacity:1" fill="#fefffe" d="M 637.5,563.5 C 640.33,563.694 642.996,564.361 645.5,565.5C 646.398,571.206 646.398,576.873 645.5,582.5C 642.553,583.321 639.553,583.821 636.5,584C 636,584.5 635.5,585 635,585.5C 632.86,579.076 631.694,572.409 631.5,565.5C 634.01,565.946 636.01,565.28 637.5,563.5 Z"/></g>
<g><path style="opacity:1" fill="#fefffe" d="M 478.5,568.5 C 479.274,567.853 480.274,567.52 481.5,567.5C 486.85,567.976 492.017,568.976 497,570.5C 498.561,570.397 500.061,570.063 501.5,569.5C 502.308,569.808 502.975,570.308 503.5,571C 506.667,571.167 509.833,571.333 513,571.5C 518.846,571.051 524.68,570.885 530.5,571C 531.889,581.006 531.222,590.839 528.5,600.5C 527.5,600.5 526.5,600.5 525.5,600.5C 525.855,602.89 526.522,605.223 527.5,607.5C 527.167,608.5 526.833,609.5 526.5,610.5C 524.231,611.815 521.898,612.982 519.5,614C 513.5,614.667 507.5,614.667 501.5,614C 496.013,612.213 490.346,610.879 484.5,610C 484,609.5 483.5,609 483,608.5C 482.367,603.255 481.533,598.088 480.5,593C 481.654,592.086 481.487,591.253 480,590.5C 479.61,585.496 479.777,580.496 480.5,575.5C 480.333,573.5 480.167,571.5 480,569.5C 479.617,568.944 479.117,568.611 478.5,568.5 Z"/></g>
<g><path style="opacity:1" fill="#fefffe" d="M 621.5,567.5 C 622.816,570.087 623.483,573.087 623.5,576.5C 623.552,580.587 623.052,584.587 622,588.5C 617.974,590.688 613.974,593.021 610,595.5C 607.23,596.348 604.397,596.681 601.5,596.5C 598.204,587.853 596.87,578.853 597.5,569.5C 605.675,569.159 613.675,568.492 621.5,567.5 Z"/></g>
<g><path style="opacity:1" fill="#8c7b30" d="M 710.5,555.5 C 708.936,560.728 707.936,566.061 707.5,571.5C 707.5,566.167 707.5,560.833 707.5,555.5C 708.5,555.5 709.5,555.5 710.5,555.5 Z"/></g>
<g><path style="opacity:1" fill="#fefffe" d="M 564.5,569.5 C 565.822,569.33 566.989,569.663 568,570.5C 568.79,579.036 568.623,587.536 567.5,596C 565.49,598.875 564.157,602.042 563.5,605.5C 558.641,607.621 553.641,609.288 548.5,610.5C 546.971,610.471 545.804,609.804 545,608.5C 544.255,603.607 542.922,598.94 541,594.5C 540.048,587.967 539.215,581.467 538.5,575C 540.037,573.89 540.703,572.39 540.5,570.5C 548.684,570.826 556.684,570.492 564.5,569.5 Z"/></g>
<g><path style="opacity:1" fill="#fefffe" d="M 571.5,569.5 C 578.167,569.5 584.833,569.5 591.5,569.5C 591.496,575.94 591.996,582.273 593,588.5C 589.172,589.843 585.672,591.843 582.5,594.5C 581.609,592.283 579.776,590.283 577,588.5C 575.161,582.066 573.328,575.733 571.5,569.5 Z"/></g>
<g><path style="opacity:1" fill="#706227" d="M 359.5,578.5 C 358.069,578.119 357.236,577.119 357,575.5C 356.51,576.793 356.343,578.127 356.5,579.5C 355.549,578.081 355.216,576.415 355.5,574.5C 356.5,574.5 357.5,574.5 358.5,574.5C 358.433,575.959 358.766,577.292 359.5,578.5 Z"/></g>
<g><path style="opacity:1" fill="#978434" d="M 696.5,574.5 C 696.5,578.833 696.5,583.167 696.5,587.5C 697.833,587.5 699.167,587.5 700.5,587.5C 699.081,588.451 697.415,588.784 695.5,588.5C 695.181,583.637 695.514,578.97 696.5,574.5 Z"/></g>
<g><path style="opacity:1" fill="#685b24" d="M 352.5,576.5 C 354.091,580.929 355.091,585.595 355.5,590.5C 353.581,586.143 352.581,581.476 352.5,576.5 Z"/></g>
<g><path style="opacity:1" fill="#84742d" d="M 684.5,587.5 C 685.08,591.649 684.414,595.316 682.5,598.5C 683.103,594.727 683.77,591.061 684.5,587.5 Z"/></g>
<g><path style="opacity:1" fill="#cdb449" d="M 671.5,606.5 C 670.662,606.842 670.328,607.508 670.5,608.5C 669.833,607.833 669.167,607.167 668.5,606.5C 669.451,603.058 670.785,599.725 672.5,596.5C 673.231,599.875 672.898,603.208 671.5,606.5 Z"/></g>
<g><path style="opacity:1" fill="#7d6d2b" d="M 678.5,607.5 C 678.727,611.828 677.393,615.494 674.5,618.5C 674.5,618.167 674.5,617.833 674.5,617.5C 676.044,614.191 677.377,610.857 678.5,607.5 Z"/></g>
<g><path style="opacity:1" fill="#221d0e" d="M 356.5,594.5 C 358.176,595.183 358.843,596.517 358.5,598.5C 359.5,598.5 360.5,598.5 361.5,598.5C 361.5,597.5 361.5,596.5 361.5,595.5C 362.315,596.429 363.148,597.429 364,598.5C 369.83,616.07 378.83,631.736 391,645.5C 391.49,646.793 391.657,648.127 391.5,649.5C 387.93,649.099 385.764,647.099 385,643.5C 381.833,640 378.667,636.5 375.5,633C 368.779,620.391 362.446,607.558 356.5,594.5 Z"/></g>
<g><path style="opacity:1" fill="#221e0e" d="M 671.5,606.5 C 671.244,608.792 671.577,610.959 672.5,613C 670.44,614.493 670.107,616.326 671.5,618.5C 672.213,616.565 673.213,616.232 674.5,617.5C 674.5,617.833 674.5,618.167 674.5,618.5C 673.206,619.29 672.039,620.29 671,621.5C 670.319,630.334 665.819,636.001 657.5,638.5C 659.289,634.188 662.123,630.521 666,627.5C 667.991,621.282 669.491,614.949 670.5,608.5C 670.328,607.508 670.662,606.842 671.5,606.5 Z"/></g>
<g><path style="opacity:1" fill="#fefffe" d="M 573.5,649.5 C 578.653,651.506 581.653,655.173 582.5,660.5C 578.02,661.707 573.687,663.373 569.5,665.5C 568.34,661.541 568.173,657.541 569,653.5C 570.667,652.267 572.167,650.933 573.5,649.5 Z"/></g>
<g><path style="opacity:1" fill="#fefffe" d="M 546.5,651.5 C 553.863,654.171 559.863,658.838 564.5,665.5C 563.5,666.333 562.5,667.167 561.5,668C 554.867,669.732 548.2,671.232 541.5,672.5C 541.369,666.779 541.869,661.112 543,655.5C 544.376,654.295 545.542,652.962 546.5,651.5 Z"/></g>
<g><path style="opacity:1" fill="#fefffe" d="M 472.5,656.5 C 477.498,656.117 481.664,657.784 485,661.5C 486.349,665.217 487.682,668.884 489,672.5C 489.743,674.441 489.576,676.274 488.5,678C 481.656,677.178 474.656,676.511 467.5,676C 465.993,674.527 465.326,672.693 465.5,670.5C 466.799,666.637 467.799,662.637 468.5,658.5C 470.38,658.771 471.713,658.104 472.5,656.5 Z"/></g>
<g><path style="opacity:1" fill="#fefffe" d="M 499.5,659.5 C 505.431,662.263 509.931,666.596 513,672.5C 513.494,674.134 513.66,675.801 513.5,677.5C 506.833,677.5 500.167,677.5 493.5,677.5C 493.337,675.143 493.503,672.81 494,670.5C 495.172,666.473 497.005,662.806 499.5,659.5 Z"/></g>
<g><path style="opacity:1" fill="#fefffe" d="M 451.5,660.5 C 459.583,661.592 463.249,666.259 462.5,674.5C 457.261,673.351 452.261,671.517 447.5,669C 449.949,666.725 451.283,663.892 451.5,660.5 Z"/></g>
<g><path style="opacity:1" fill="#393214" d="M 602.5,657.5 C 599.494,660.393 595.828,661.727 591.5,661.5C 592.519,660.83 594.019,659.83 596,658.5C 596.414,658.957 596.914,659.291 597.5,659.5C 598.842,657.995 600.508,657.328 602.5,657.5 Z"/></g>
<g><path style="opacity:1" fill="#fefffe" d="M 526.5,664.5 C 532.358,664.77 535.691,667.77 536.5,673.5C 531.5,674.833 526.5,676.167 521.5,677.5C 521.335,674.15 521.502,670.817 522,667.5C 523.878,666.947 525.378,665.947 526.5,664.5 Z"/></g>
<g><path style="opacity:1" fill="#51471c" d="M 438.5,672.5 C 442.083,672.73 445.083,674.063 447.5,676.5C 444.205,675.586 441.205,674.253 438.5,672.5 Z"/></g>
<g><path style="opacity:1" fill="#766728" d="M 550.5,677.5 C 547.947,678.255 545.28,678.922 542.5,679.5C 544.635,677.631 547.302,676.964 550.5,677.5 Z"/></g>
<g><path style="opacity:1" fill="#82722d" d="M 460.5,681.5 C 472.777,682.931 485.11,683.597 497.5,683.5C 485.985,684.568 474.318,684.402 462.5,683C 461.584,682.722 460.918,682.222 460.5,681.5 Z"/></g>
<g><path style="opacity:1" fill="#494019" d="M 535.5,680.5 C 533.631,681.165 531.631,681.831 529.5,682.5C 520.859,683.498 512.192,683.831 503.5,683.5C 514.063,682.8 524.73,681.8 535.5,680.5 Z"/></g>
<g><path style="opacity:1" fill="#383115" d="M 632.5,691.5 C 631.698,690.048 631.198,688.382 631,686.5C 630.503,689.146 630.336,691.813 630.5,694.5C 629.127,691.032 628.127,687.366 627.5,683.5C 631.53,684.506 633.197,687.173 632.5,691.5 Z"/></g>
<g><path style="opacity:1" fill="#211d0e" d="M 445.5,698.5 C 448.38,701.634 452.047,703.134 456.5,703C 453.986,704.252 451.32,704.752 448.5,704.5C 444.928,702.917 441.262,701.417 437.5,700C 427.09,693.139 416.757,686.306 406.5,679.5C 406.12,675.843 407.453,674.843 410.5,676.5C 419.974,683.482 429.641,690.149 439.5,696.5C 441.53,697.172 443.53,697.838 445.5,698.5 Z"/></g>
<g><path style="opacity:1" fill="#665923" d="M 633.5,691.5 C 634.255,694.053 634.922,696.72 635.5,699.5C 633.631,697.365 632.964,694.698 633.5,691.5 Z"/></g>
<g><path style="opacity:1" fill="#49401a" d="M 445.5,698.5 C 450.667,700.588 456,702.255 461.5,703.5C 459.708,704.309 457.708,704.809 455.5,705C 457.382,705.198 459.048,705.698 460.5,706.5C 456.267,706.461 452.267,705.795 448.5,704.5C 451.32,704.752 453.986,704.252 456.5,703C 452.047,703.134 448.38,701.634 445.5,698.5 Z"/></g>
<g><path style="opacity:1" fill="#24200f" d="M 552.5,711.5 C 553.949,709.836 555.949,709.002 558.5,709C 555.964,708.814 553.631,708.314 551.5,707.5C 576.941,702.869 598.107,690.869 615,671.5C 616.644,668.253 616.811,664.92 615.5,661.5C 616.822,661.33 617.989,661.663 619,662.5C 619.767,666.594 619.434,670.594 618,674.5C 612.985,679.348 608.152,684.348 603.5,689.5C 588.03,700.402 571.03,707.735 552.5,711.5 Z"/></g>
<g><path style="opacity:1" fill="#1f1b0d" d="M 461.5,703.5 C 469.05,705.46 476.717,706.793 484.5,707.5C 486.279,709.344 488.612,710.01 491.5,709.5C 495.97,710.486 500.637,710.819 505.5,710.5C 511.825,711.166 518.325,711.5 525,711.5C 531.869,711.497 538.369,710.83 544.5,709.5C 547.082,709.975 549.082,709.308 550.5,707.5C 550.833,707.5 551.167,707.5 551.5,707.5C 553.631,708.314 555.964,708.814 558.5,709C 555.949,709.002 553.949,709.836 552.5,711.5C 521.313,716.8 490.646,715.133 460.5,706.5C 459.048,705.698 457.382,705.198 455.5,705C 457.708,704.809 459.708,704.309 461.5,703.5 Z"/></g>
<g><path style="opacity:1" fill="#756628" d="M 550.5,707.5 C 549.082,709.308 547.082,709.975 544.5,709.5C 546.374,708.715 548.374,708.048 550.5,707.5 Z"/></g>
<g><path style="opacity:1" fill="#675a24" d="M 484.5,707.5 C 486.952,708.065 489.285,708.732 491.5,709.5C 488.612,710.01 486.279,709.344 484.5,707.5 Z"/></g>
<g><path style="opacity:1" fill="#766729" d="M 544.5,709.5 C 538.369,710.83 531.869,711.497 525,711.5C 518.325,711.5 511.825,711.166 505.5,710.5C 518.579,710.814 531.579,710.48 544.5,709.5 Z"/></g>
<g><path style="opacity:1" fill="#5f5321" d="M 631.5,701.5 C 633.036,703.025 634.036,705.025 634.5,707.5C 635.48,710.086 635.813,712.753 635.5,715.5C 634.191,710.918 632.858,706.252 631.5,701.5 Z"/></g>
<g><path style="opacity:1" fill="#c8af45" d="M 642.5,706.5 C 642.5,706.833 642.5,707.167 642.5,707.5C 642.5,707.833 642.5,708.167 642.5,708.5C 642.829,714.537 642.496,720.537 641.5,726.5C 640.52,723.914 640.187,721.247 640.5,718.5C 641.167,714.5 641.833,710.5 642.5,706.5 Z"/></g>
<g><path style="opacity:1" fill="#4e441b" d="M 665.5,717.5 C 664.167,721.167 662.833,724.833 661.5,728.5C 662.43,724.6 662.763,720.6 662.5,716.5C 663.791,716.263 664.791,716.596 665.5,717.5 Z"/></g>
<g><path style="opacity:1" fill="#3b3415" d="M 642.5,707.5 C 642.5,707.167 642.5,706.833 642.5,706.5C 643.5,706.5 644.5,706.5 645.5,706.5C 645.5,713.5 645.5,720.5 645.5,727.5C 645.15,720.605 644.15,713.938 642.5,707.5 Z"/></g>
<g><path style="opacity:1" fill="#978434" d="M 330.5,723.5 C 331.649,723.791 332.316,724.624 332.5,726C 332.167,726.833 331.833,727.667 331.5,728.5C 330.548,726.955 330.215,725.288 330.5,723.5 Z"/></g>
<g><path style="opacity:1" fill="#201c0d" d="M 632.5,691.5 C 632.833,691.5 633.167,691.5 633.5,691.5C 632.964,694.698 633.631,697.365 635.5,699.5C 636.575,706.088 638.242,712.421 640.5,718.5C 640.187,721.247 640.52,723.914 641.5,726.5C 642.496,720.537 642.829,714.537 642.5,708.5C 643.49,714.645 643.823,720.978 643.5,727.5C 642.178,727.33 641.011,727.663 640,728.5C 640.053,731.675 639.22,734.342 637.5,736.5C 639.172,729.222 638.505,722.222 635.5,715.5C 635.813,712.753 635.48,710.086 634.5,707.5C 634.036,705.025 633.036,703.025 631.5,701.5C 631.802,698.941 631.468,696.607 630.5,694.5C 630.336,691.813 630.503,689.146 631,686.5C 631.198,688.382 631.698,690.048 632.5,691.5 Z"/></g>
<g><path style="opacity:1" fill="#53481d" d="M 335.5,737.5 C 334.876,737.917 334.543,738.584 334.5,739.5C 335.889,741.996 336.889,744.663 337.5,747.5C 336.288,746.77 335.288,745.77 334.5,744.5C 333.256,740.22 332.756,735.886 333,731.5C 334.559,733.217 335.392,735.217 335.5,737.5 Z"/></g>
<g><path style="opacity:1" fill="#6e6026" d="M 664.5,730.5 C 664.745,736.084 664.078,741.417 662.5,746.5C 662.668,740.966 663.335,735.633 664.5,730.5 Z"/></g>
<g><path style="opacity:1" fill="#282311" d="M 637.5,772.5 C 636.957,772.44 636.624,772.107 636.5,771.5C 637.167,770.833 637.833,770.167 638.5,769.5C 637.465,767.872 637.465,766.205 638.5,764.5C 639.693,764.03 640.36,763.03 640.5,761.5C 640.48,760.274 640.147,759.274 639.5,758.5C 639.232,756.901 639.566,755.568 640.5,754.5C 640.259,757.999 641.092,758.332 643,755.5C 645.241,750.648 647.074,745.648 648.5,740.5C 649.642,728.174 650.642,715.84 651.5,703.5C 652.5,703.5 653.5,703.5 654.5,703.5C 653.784,716.852 652.784,730.186 651.5,743.5C 650.227,748.711 648.394,753.711 646,758.5C 642.696,762.955 639.863,767.622 637.5,772.5 Z"/></g>
<g><path style="opacity:1" fill="#1d190c" d="M 665.5,717.5 C 665.818,722.032 665.485,726.366 664.5,730.5C 663.335,735.633 662.668,740.966 662.5,746.5C 659.257,755.663 656.257,764.996 653.5,774.5C 651.561,779.102 649.561,783.769 647.5,788.5C 645.932,791.102 644.265,793.769 642.5,796.5C 642.624,797.107 642.957,797.44 643.5,797.5C 642.791,798.404 641.791,798.737 640.5,798.5C 640.715,796.821 640.048,795.821 638.5,795.5C 643.158,788.498 647.158,780.998 650.5,773C 653.456,761.887 656.789,750.887 660.5,740C 661.205,736.196 661.538,732.363 661.5,728.5C 662.833,724.833 664.167,721.167 665.5,717.5 Z"/></g>
<g><path style="opacity:1" fill="#141107" d="M 642.5,708.5 C 642.5,708.167 642.5,707.833 642.5,707.5C 644.15,713.938 645.15,720.605 645.5,727.5C 643.319,736.526 641.652,745.526 640.5,754.5C 639.566,755.568 639.232,756.901 639.5,758.5C 637.525,760.362 637.192,762.362 638.5,764.5C 637.465,766.205 637.465,767.872 638.5,769.5C 637.833,770.167 637.167,770.833 636.5,771.5C 636.624,772.107 636.957,772.44 637.5,772.5C 635.33,775.506 633.664,778.839 632.5,782.5C 631.817,782.863 631.15,783.196 630.5,783.5C 629.323,785.679 628.323,788.013 627.5,790.5C 626.833,790.833 626.167,791.167 625.5,791.5C 622.886,788.313 623.553,785.647 627.5,783.5C 626.754,782.264 626.421,780.93 626.5,779.5C 629.078,772.252 631.745,764.919 634.5,757.5C 636.477,750.637 637.477,743.637 637.5,736.5C 639.22,734.342 640.053,731.675 640,728.5C 641.011,727.663 642.178,727.33 643.5,727.5C 643.823,720.978 643.49,714.645 642.5,708.5 Z"/></g>
<g><path style="opacity:1" fill="#ccb44f" d="M 639.5,758.5 C 640.147,759.274 640.48,760.274 640.5,761.5C 640.36,763.03 639.693,764.03 638.5,764.5C 637.192,762.362 637.525,760.362 639.5,758.5 Z"/></g>
<g><path style="opacity:1" fill="#201c0d" d="M 335.5,737.5 C 347.691,754.259 361.358,770.093 376.5,785C 377.5,785.333 378.5,785.667 379.5,786C 388.931,795.858 398.931,804.858 409.5,813C 411.174,814.506 412.174,816.339 412.5,818.5C 411.209,818.263 410.209,818.596 409.5,819.5C 408.833,819.5 408.5,819.167 408.5,818.5C 406.833,816.167 404.833,814.167 402.5,812.5C 390.265,802.11 378.098,791.443 366,780.5C 359.287,772.957 352.453,765.624 345.5,758.5C 342.809,754.815 340.142,751.148 337.5,747.5C 336.889,744.663 335.889,741.996 334.5,739.5C 334.543,738.584 334.876,737.917 335.5,737.5 Z"/></g>
<g><path style="opacity:1" fill="#aa943b" d="M 653.5,774.5 C 653.62,776.734 653.287,778.901 652.5,781C 651.09,783.862 649.423,786.362 647.5,788.5C 649.561,783.769 651.561,779.102 653.5,774.5 Z"/></g>
<g><path style="opacity:1" fill="#231f0f" d="M 467.5,796.5 C 465.142,796.253 463.142,796.919 461.5,798.5C 444.14,789.598 426.473,781.265 408.5,773.5C 408.5,772.167 408.5,770.833 408.5,769.5C 428.47,777.93 448.137,786.93 467.5,796.5 Z"/></g>
<g><path style="opacity:1" fill="#a38e38" d="M 630.5,783.5 C 630.821,786.577 629.821,788.91 627.5,790.5C 628.323,788.013 629.323,785.679 630.5,783.5 Z"/></g>
<g><path style="opacity:1" fill="#221e0e" d="M 484.5,824.5 C 484.209,825.649 483.376,826.316 482,826.5C 479.538,825.841 477.038,825.507 474.5,825.5C 466.458,822.228 458.125,819.395 449.5,817C 441.595,812.747 433.595,808.58 425.5,804.5C 413.211,795.342 400.878,786.509 388.5,778C 385.081,773.39 380.747,770.224 375.5,768.5C 375.649,767.448 375.483,766.448 375,765.5C 359.659,750.494 346.159,733.994 334.5,716C 333.713,713.901 333.38,711.734 333.5,709.5C 334.822,709.33 335.989,709.663 337,710.5C 347.702,729.704 361.202,746.704 377.5,761.5C 378.246,762.736 378.579,764.07 378.5,765.5C 379.873,765.343 381.207,765.51 382.5,766C 384.984,768.984 387.65,771.818 390.5,774.5C 403.623,783.451 416.623,792.618 429.5,802C 438.052,805.759 446.386,809.926 454.5,814.5C 464.538,817.875 474.538,821.208 484.5,824.5 Z"/></g>
<g><path style="opacity:1" fill="#231e0e" d="M 626.5,779.5 C 626.421,780.93 626.754,782.264 627.5,783.5C 623.553,785.647 622.886,788.313 625.5,791.5C 623.799,792.211 622.799,793.545 622.5,795.5C 622.029,796.901 621.362,798.234 620.5,799.5C 615.292,805.542 609.625,811.042 603.5,816C 600.313,817.673 596.98,818.84 593.5,819.5C 594.949,817.836 596.949,817.002 599.5,817C 593.187,817.23 586.854,817.73 580.5,818.5C 576.761,818.486 573.428,817.82 570.5,816.5C 580.843,818.221 590.843,817.055 600.5,813C 612.202,804.049 620.869,792.882 626.5,779.5 Z"/></g>
<g><path style="opacity:1" fill="#988434" d="M 627.5,790.5 C 627.179,792.048 626.179,792.715 624.5,792.5C 624.715,794.179 624.048,795.179 622.5,795.5C 622.799,793.545 623.799,792.211 625.5,791.5C 626.167,791.167 626.833,790.833 627.5,790.5 Z"/></g>
<g><path style="opacity:1" fill="#7c6c2b" d="M 481.5,805.5 C 484.781,805.42 487.781,806.087 490.5,807.5C 487.219,807.58 484.219,806.913 481.5,805.5 Z"/></g>
<g><path style="opacity:1" fill="#625522" d="M 495.5,809.5 C 500.917,809.68 505.917,811.013 510.5,813.5C 505.292,812.606 500.292,811.272 495.5,809.5 Z"/></g>
<g><path style="opacity:1" fill="#1f1b0e" d="M 467.5,796.5 C 491.819,805.163 516.819,811.497 542.5,815.5C 548.14,816.293 553.807,816.626 559.5,816.5C 560.514,817.765 562.014,818.431 564,818.5C 565.986,818.431 567.486,817.765 568.5,816.5C 569.167,816.5 569.833,816.5 570.5,816.5C 573.428,817.82 576.761,818.486 580.5,818.5C 586.854,817.73 593.187,817.23 599.5,817C 596.949,817.002 594.949,817.836 593.5,819.5C 578.404,822.364 563.071,823.03 547.5,821.5C 535.014,819.365 522.68,816.699 510.5,813.5C 505.917,811.013 500.917,809.68 495.5,809.5C 493.972,808.691 492.306,808.024 490.5,807.5C 487.781,806.087 484.781,805.42 481.5,805.5C 474.84,802.912 468.173,800.579 461.5,798.5C 463.142,796.919 465.142,796.253 467.5,796.5 Z"/></g>
<g><path style="opacity:1" fill="#b29b3d" d="M 402.5,812.5 C 404.833,814.167 406.833,816.167 408.5,818.5C 405.515,817.674 402.849,816.341 400.5,814.5C 401.833,814.5 402.5,813.833 402.5,812.5 Z"/></g>
<g><path style="opacity:1" fill="#625521" d="M 559.5,816.5 C 562.5,817.833 565.5,817.833 568.5,816.5C 567.486,817.765 565.986,818.431 564,818.5C 562.014,818.431 560.514,817.765 559.5,816.5 Z"/></g>
<g><path style="opacity:1" fill="#51471c" d="M 484.5,824.5 C 495.031,828.159 494.364,829.325 482.5,828C 479.621,827.454 476.954,826.621 474.5,825.5C 477.038,825.507 479.538,825.841 482,826.5C 483.376,826.316 484.209,825.649 484.5,824.5 Z"/></g>
<g><path style="opacity:1" fill="#343434" d="M 489.5,907.5 C 497.65,906.507 505.983,906.174 514.5,906.5C 505.839,908.06 497.506,908.393 489.5,907.5 Z"/></g>
</svg>
